<svg width="704" height="323" viewBox="0 0 704 323" fill="none" xmlns="http://www.w3.org/2000/svg">
<g clip-path="url(#clip0_750_13)">
<mask id="mask0_750_13" style="mask-type:luminance" maskUnits="userSpaceOnUse" x="0" y="0" width="704" height="323">
<path d="M704 323H0V0H704V323Z" fill="white"/>
</mask>
<g mask="url(#mask0_750_13)">
<path d="M67.5535 30.7748C67.5535 34.0983 82.1566 26.6769 82.1566 30.9789C82.1566 28.7915 96.5626 33.8982 96.5626 35.7664C96.5626 38.1075 107.492 37.2442 107.492 43.0647C107.492 36.3243 120.521 33.9125 120.521 40.0321C120.521 47.3952 130.425 49.6636 130.425 45.9315C130.425 51.5538 140.947 36.7165 140.947 42.0013C140.947 41.2977 152.353 48.8387 152.353 48.6283C152.353 48.1069 162.113 41.512 162.113 40.03C162.113 42.7088 173.145 41.5343 173.145 40.1475C173.145 34.0459 184.522 39.2982 184.522 35.926C184.522 37.4261 196.716 36.296 196.716 36.2899C196.716 34.6867 208.303 36.4516 208.303 33.2411C208.303 40.1554 220.056 23.7372 220.056 31.1326C220.056 29.1816 230.293 18.2786 230.293 20.5106C230.293 24.0931 242.677 19.15 242.677 21.938C242.677 24.5054 254.55 23.3976 254.55 20.5025C254.55 23.8504 265.043 8.93431 265.043 11.3199C265.043 10.2625 276.922 12.7068 276.922 11.795C276.922 7.80215 288.267 5.29321 288.267 9.4377C288.267 11.3563 299.774 15.9799 299.774 9.67022C299.774 10.2322 311.175 10.3455 311.175 7.04199C311.175 3.9872 323.601 10.4122 323.601 7.82237C323.601 9.68841 335.122 12.5754 335.122 13.8511C335.122 14.8478 346.147 21.7499 346.147 20.7026C346.147 20.9837 360.08 22.8739 360.08 18.7962C360.08 15.8142 370.715 27.1861 370.715 26.976C370.715 26.6666 379.978 36.9288 379.978 39.0516C379.978 38.3219 391.573 45.9516 391.573 44.7649C391.573 45.7555 404.439 42.9899 404.439 45.5858C404.439 47.1889 416.888 46.0305 416.888 45.7314C416.888 45.6059 428.803 54.2225 428.803 55.8176C428.803 56.7192 440.926 60.9346 440.926 59.4526C440.926 59.6346 454.092 56.0663 454.092 58.0555C454.092 59.7781 462.224 70.5558 462.224 71.4596C462.224 74.114 474.198 75.6848 474.198 75.8568C474.198 73.0282 486.823 78.4081 486.823 77.387C486.823 75.2542 499.068 74.3848 499.068 73.6004C499.068 72.5047 511.678 79.0975 511.678 79.1176C511.678 81.4407 522.574 70.7418 522.574 70.7924C522.574 70.5153 536.101 65.5642 536.101 69.8744C536.101 70.9581 545.794 59.9054 545.794 58.7288C545.794 54.1921 556.905 46.0831 556.905 51.2486C556.905 44.6397 566.753 55.5002 566.753 54.8188C566.753 54.7844 577.386 51.8208 577.386 54.2204C577.386 53.1448 588.15 54.8572 588.15 52.971C588.15 48.2827 600.343 60.1298 600.343 62.6448C600.343 64.3066 612.943 49.8049 612.943 58.007C612.943 65.3803 624.937 56.05 624.937 52.7405C624.937 54.6004 637.725 49.8798 637.725 51.3375C637.725 54.1071 648.81 46.8837 648.81 44.8721C648.81 47.2111 660.752 39.7672 660.752 42.1347C660.752 46.0042 671.295 26.4927 671.295 31.6177C671.295 30.9264 683.174 30.5099 683.174 27.9827C683.174 35.7603 695.564 29.8266 695.564 27.7078C695.564 27.5521 708.433 32.4043 708.433 31.0072C708.433 27.3883 720.056 21.8814 720.056 25.9753C720.056 25.2737 728.771 25.3587 728.771 28.0192C728.771 28.8339 736.262 38.7321 736.262 34.7838C736.262 33.9953 740.563 46.5783 740.563 47.6782C740.563 47.9836 745.266 64.3309 745.266 62.3193C745.266 61.723 742.457 78.5253 742.457 76.9485C742.457 74.1604 746.003 91.262 746.003 90.8415C746.003 90.4149 745.825 103.958 745.825 105.339C745.825 106.144 754.029 116.452 754.029 118.001C754.029 117.706 752.329 132.855 752.329 132.855L754.907 146.737L754.131 161.282L762.126 174.309L759.126 189.066L756.287 203.303L763.505 217.78L761.148 232.143L757.019 245.843L754.508 260.017L744.945 271.456L743.064 287.65L732.596 297.858L731.052 314.325L721.002 325.622L716.661 338.202L714.005 352.158L701.59 353.668L689.87 361.143L677.923 355.321L666.27 362.796L654.455 362.953L642.637 362.979L630.749 359.738L619.045 365.036L607.215 364.522L595.441 366.632L583.602 365.697L571.634 358.522L559.863 360.778L548.138 365.288L536.326 365.632L524.451 362.691L512.659 364.027L500.818 362.742L489.056 365.659L477.314 369.877L465.397 364.212L453.685 370.343L441.775 364.805L429.936 363.323L418.234 370.636L406.298 362.666L394.55 367.287L382.792 371.534L370.929 367.899L359.091 366.011L347.275 365.657L335.471 366.58L323.73 373.849L311.908 373.625L300.053 369L288.209 364.816L276.42 368.144L264.633 372.862L252.82 373.564L240.974 365.904L229.175 370.248L217.361 370.294L205.546 370.225L193.732 367.261L181.911 374.718L170.113 366.412L158.301 367.02L146.462 372.828L134.649 372.159L122.862 368.046L111.035 369.604L99.2107 370.556L87.4464 365.808L75.5843 369.971L64.4621 368.388L53.2796 368.65L42.0938 367.937L31.8646 360.206L20.4686 360.843L9.56321 357.62L-0.70345 351.871L-8.23235 341.247L-18.178 334.133L-26.3816 323.877L-29.429 309.979L-32.0657 296.462L-30.2976 282.134L-33.0419 268.939L-32.7697 255.254L-33.0435 241.577L-34.9078 227.27L-37.2936 212.979L-38.5272 198.62L-39.2997 184.232L-39.7348 169.823L-41.252 155.388L-34.432 141.129L-35.734 126.741L-35.5988 112.383L-33.0859 98.2612L-38.5256 83.0702L-36.9188 68.6816C-36.9188 68.6816 -32.6557 51.5315 -32.6557 52.0349C-32.6557 51.3314 -25.1105 36.6943 -25.1105 38.1539C-25.1105 38.2854 -14.7509 28.0433 -14.7509 31.1144C-14.7509 31.456 -4.09309 36.1727 -4.09309 37.7071C-4.09309 40.483 7.77551 41.8172 7.77551 41.7992C7.77551 37.1492 19.8429 34.8505 19.8429 37.5555C19.8429 36.9632 31.7278 35.4308 31.7278 35.8815C31.7278 30.7404 43.8261 43.6954 43.8261 37.8365C43.8261 41.5565 55.5057 31.2194 55.5057 31.8887C55.5057 33.8175 67.5535 33.4576 67.5535 30.7748Z" fill="white"/>
</g>
<mask id="mask1_750_13" style="mask-type:luminance" maskUnits="userSpaceOnUse" x="0" y="0" width="704" height="323">
<path d="M704 323H0V0H704V323Z" fill="white"/>
</mask>
<g mask="url(#mask1_750_13)">
<path d="M35.5412 54.27C35.5412 54.0391 46.3786 44.3309 46.3786 49.1685C46.3786 46.5187 57.9169 54.1729 57.9169 47.5988C57.9169 44.2136 68.6467 40.4085 68.6467 44.0339C68.6467 45.8163 79.6275 41.4518 79.6275 46.5535C79.6275 45.2239 90.3801 48.4495 90.3801 51.0243C90.3801 48.7136 101.522 52.5279 101.522 56.4102C101.522 58.5263 114.628 51.5193 114.628 53.3038C114.628 47.9233 125.966 53.7897 125.966 56.6814C125.966 56.0249 137.465 56.8209 137.465 61.5357C137.465 61.2422 149.77 65.5167 149.77 65.3095C149.77 63.8975 161.918 61.9409 161.918 62.0673C161.918 65.6818 171.905 56.7641 171.905 57.8423C171.905 56.555 182.31 53.4504 182.31 55.5226C182.31 54.2958 190.791 47.8371 190.791 47.5988C190.791 48.1838 202.381 42.4514 202.381 43.5699C202.381 43.0655 213.177 37.478 213.177 35.8314C213.177 39.7757 225.126 33.7518 225.126 32.7744C225.126 29.91 237.926 34.2138 237.926 35.0555C237.926 39.1614 249.383 23.576 249.383 29.5689C249.383 29.6587 261.88 32.9632 261.88 30.9222C261.88 28.7052 273.75 30.3152 273.75 29.0041C273.75 28.2706 285.083 18.9072 285.083 21.8046C285.083 21.4891 297.4 22.7362 297.4 23.4036C297.4 29.7835 309.438 28.6282 309.438 27.6049C309.438 29.9521 322.049 21.5002 322.049 22.3639C322.049 20.752 333.781 29.4093 333.781 27.163C333.781 28.8464 346.042 28.1331 346.042 28.5951C346.042 26.9998 357.598 33.9351 357.598 33.1777C357.598 35.2739 368.054 43.5882 368.054 40.854C368.054 39.5905 378.598 48.0389 378.598 47.6464C378.598 46.8268 389.956 48.7944 389.956 52.2511C389.956 50.8941 402.754 54.9798 402.754 53.8025C402.754 53.8722 410.341 65.328 410.341 66.9654C410.341 63.4795 421.897 68.2473 421.897 71.4161C421.897 69.6648 432.364 76.4866 432.364 78.2085C432.364 80.8087 443.995 76.2592 443.995 77.1926C443.995 75.4872 452.095 87.2674 452.095 83.0626C452.095 87.1353 461.321 84.2986 461.321 83.9739C461.321 83.7887 473.396 88.4722 473.396 90.4655C473.396 90.9442 483.236 80.0368 483.236 80.0075C483.236 78.2287 494.929 75.5897 494.929 77.0403C494.929 79.7856 507.084 82.1108 507.084 79.8296C507.084 81.0379 518.821 78.6815 518.821 79.9028C518.821 83.3835 529.861 81.293 529.861 82.1621C529.861 79.2591 539.346 82.494 539.346 79.6406C539.346 77.2622 543.573 68.1905 543.573 68.8103C543.573 69.8886 557.278 72.731 557.278 68.9093C557.278 67.0222 568.71 59.0527 568.71 59.5423C568.71 60.8167 581.55 65.1939 581.55 61.8308C581.55 60.8076 594.017 65.7588 594.017 64.8181C594.017 62.4029 606.599 63.683 606.599 67.4625C606.599 66.3437 618.66 73.3086 618.66 69.3275C618.66 72.7786 629.433 60.6371 629.433 60.5159C629.433 59.1956 640.424 62.7092 640.424 56.3752C640.424 59.9622 653.068 56.0874 653.068 59.148C653.068 57.9688 663.247 48.6698 663.247 51.2552C663.247 46.185 676.023 56.5808 676.023 54.2132C676.023 64.5045 686.842 53.6649 686.842 49.2363C686.842 50.5402 697.352 44.5693 697.352 40.3517C697.352 40.7844 709.517 42.7576 709.517 43.447C709.517 41.3895 722.298 39.4255 722.298 42.0718C722.298 44.7143 724.935 56.2909 724.935 56.0983C724.935 58.1888 728.914 66.685 728.914 68.6545C728.914 65.5994 725.815 83.0718 725.815 82.5967C725.815 82.2576 727.695 96.1522 727.695 95.4792C727.695 97.0415 732.67 107.094 732.67 108.07C732.67 106.196 729.481 121.502 729.481 121.502L731.561 134.48L730.022 147.577L731.098 160.66L730.356 173.714L729.413 186.747L733.334 200.475L726.548 212.698L725.907 225.865L722.19 238.38L722.233 251.877L716.866 263.845L716.637 277.511L713.201 290.153L704.905 300.679L705.643 315.265L694.923 323.747L692.684 338.535L682.227 343.68L671.636 345.83L661.387 348.397L649.318 347.965L637.322 346.91L625.584 350.126L613.657 349.836L601.77 354.484L589.815 349.371L577.861 354.042L566.157 352.194L554.444 352.492L542.753 347.856L531.018 353.318L519.305 354.203L507.609 350.709L495.892 352.169L484.196 348.307L472.484 348.647L460.78 347.227L449.05 351.592L437.338 351.953L425.645 347.659L413.933 347.582L402.196 353.572L390.491 352.334L378.774 353.582L367.089 347.575L355.377 348.043L343.65 351.879L331.949 349.44L320.25 346.921L308.682 351.212L297.127 353.108L285.577 349.295L274.044 352.513L262.42 346.631L250.874 348.597L239.395 351.757L227.883 352.877L216.083 348.681L205.031 357.06L193.203 353.846L182.017 357.993L170.5 358.65L159.077 360.344L147.392 359.052L136.259 365.5L124.561 363.641L112.958 365.221L101.371 363.532L88.434 361.219L75.5299 359.075L62.6503 356.802L50.4128 351.223L39.683 349.285L28.9238 347.5L17.6447 348.437L7.20177 344.987L-3.49379 342.864L-16.1583 329.087L-22.6879 315.529L-24.1743 301.994L-21.8973 288.221L-22.5247 274.644L-24.4873 261.127L-26.9353 247.598L-21.6446 233.833L-28.8651 220.385L-24.2557 206.706L-24.4123 193.112L-29.333 179.48L-21.5761 165.708L-22.5818 151.852L-26.9891 137.862L-26.9304 123.976L-20.2886 110.414C-20.2886 110.414 -22.0652 94.8648 -22.0652 96.7244C-22.0652 96.3246 -21.2127 84.1849 -21.2127 83.2864C-21.2127 82.5399 -26.9744 70.1709 -26.9744 69.6612C-26.9744 70.1874 -25.4147 52.7316 -25.4147 56.0252C-25.4147 54.4552 -19.6284 42.6016 -19.6284 43.3864C-19.6284 45.8456 -7.89622 50.2982 -7.89622 49.9515C-7.89622 50.221 4.59226 54.5746 4.59226 57.5397C4.59226 58.3522 15.2781 54.2077 15.2781 55.7426C15.2781 56.1296 25.4765 59.7696 25.4765 56.4744C25.483 57.8002 35.5412 57.9525 35.5412 54.27Z" fill="#F2F8FB"/>
</g>
</g>
<defs>
<clipPath id="clip0_750_13">
<rect width="704" height="323" fill="white"/>
</clipPath>
</defs>
</svg>
