<svg width="2038" height="845" viewBox="0 0 2038 845" fill="none" xmlns="http://www.w3.org/2000/svg">
<mask id="mask0_748_12" style="mask-type:luminance" maskUnits="userSpaceOnUse" x="0" y="0" width="2038" height="845">
<path d="M2038 0H0V845H2038V0Z" fill="white"/>
</mask>
<g mask="url(#mask0_748_12)">
<path d="M2038 0H0V845H2038V0Z" fill="#E3F4FC"/>
<mask id="mask1_748_12" style="mask-type:luminance" maskUnits="userSpaceOnUse" x="0" y="0" width="2038" height="845">
<path d="M2038 0H0V845H2038V0Z" fill="white"/>
</mask>
<g mask="url(#mask1_748_12)">
<path d="M2122.47 199.517C2110.24 192.432 2139.49 187.01 2101.17 178.806C2056.68 172.977 2107.05 167.14 2098.85 161.284C2100.68 151.191 2093.87 141.055 2088.39 130.876C2074.08 116.065 2080.9 105.35 2077.45 90.844C2071.68 73.0678 2075.05 61.0969 2067.18 42.8668C2063.47 21.7808 2077.88 11.6643 2098.98 -4.82497C2111.66 -12.8759 2112.35 -22.5113 2120.86 -33.1325C2063.37 -34.8616 2132.09 -32.9173 2065.23 -37.1619C2088.37 -45.9364 2071.25 -55.0241 2068.95 -64.1665H-99.1054C-92.8095 -56.7336 -91.4412 -49.4572 -108.501 -42.7755C-96.3039 -31.4112 -103.733 -20.2932 -107.938 -9.21428C-95.9592 1.86461 -132.227 12.9083 -113.868 24.128C-133.235 32.7893 -122.262 41.8653 -113.661 50.5383C-116.909 59.9742 -94.8417 81.8737 -87.0793 84.1818C-67.0803 79.3739 -43.0968 65.2358 -47.1939 64.1287C-16.7001 81.6664 -52.641 101.246 -44.5739 118.502C-31.2303 129.303 -24.3607 140.12 -27.3546 151.031C-40.8832 161.941 -33.7451 172.95 -15.8582 184.142C-58.0333 193.445 13.5215 201.167 -26.9373 209.825C-0.881632 218.083 -54.3938 230.046 -36.8297 239.271C-33.2879 245.405 -59.9242 246.614 -26.705 251.856C0.141722 261.217 1.81102 266.831 -29.3904 274.088C-17.0013 288.551 11.4313 292.713 -30.6823 305.357C-7.31571 314.523 -4.36178 318.857 -36.1075 327.667C-62.8998 340.839 -0.51512 353.142 -39.9033 361.788C-87.2279 379.967 -36.0023 390.295 -68.67 393.621C-78.2067 410.224 -72.5019 398.879 -69.3377 417.989C-89.9352 421.647 -84.4811 437.894 -82.5941 448.961C-63.6149 452.783 -66.4888 467.969 -88.4726 477.546C-86.3572 483.985 -92.4974 505.095 -87.932 506.753C-80.1117 531.352 -62.7801 525.868 -62.7148 529.122C-49.2006 532.823 -62.3518 535.609 -55.2865 553.221C-41.5943 561.698 10.0632 569.706 14.8135 565.712C22.8188 563.028 14.5739 554.433 41.6746 560.708C29.5904 555.388 77.8442 548.327 96.809 561.213C136.23 569.139 135.95 566.146 179.828 563.224C189.974 567.187 241.185 541.168 262.981 565.203C302.246 565.41 317.948 565.446 352.738 565.211C364.028 559.742 398.001 572.585 414.238 572.03C430.096 583.934 433.973 593.589 451.99 591.965C471.451 588.597 486.288 613.673 507.212 601.155C526.481 611.412 551.089 616.772 575.248 602.88C599.415 598.119 623.131 603.044 640.636 597.227C652.074 582.929 663.629 585.174 675.13 588.319C703.724 595.068 716.778 572.354 746.315 585.327C764.007 597.247 780.335 590.299 798.591 589.317C826.654 568.356 845.183 578.117 869.135 598.209C882.677 589.575 888.012 608.173 897.178 616.995C910.454 630.108 931.006 641.816 950.416 641.12C958.752 642.345 963.759 639.055 971.946 647.016C979.414 647.102 987.562 644.481 994.888 655.951C1008.54 673.629 1018.95 655.775 1036.2 673.52C1051.66 669.643 1067.6 657.926 1083.54 673.23C1099.48 689.391 1115.43 682.732 1130.94 672.952C1148.25 671.028 1163.16 692.779 1178.04 677.42C1186.08 667.984 1196.52 672.053 1203.12 661.357C1217.49 649.957 1227.13 635.577 1246.4 645.083C1267.57 637.944 1299.22 620.621 1318.76 645.165C1323.03 656.326 1325.1 654.969 1324.99 649.844C1335.94 659.487 1349.08 650.65 1364.41 660.77C1373 648.897 1381.5 664.854 1390.1 661.22C1406.06 651.687 1422.49 659.464 1438.41 661.248C1449.06 673.567 1458.53 653.999 1468.49 656.659C1488.57 638.296 1496.43 638.456 1517.2 636.124C1535.93 634.153 1555.96 621.431 1575.73 632.834C1597.63 629.842 1610.55 654.918 1633.27 645.556C1672 647.184 1686.99 646.143 1711.23 644.559C1734.06 641.789 1744.61 634.219 1762.18 628.887C1765.44 633.433 1792.04 638.965 1800.76 629.173C1822.13 625.308 1835.31 623.845 1877.93 629.173C1915.82 627.506 1942.41 630.479 1949.9 628.285C1960.2 615.864 1969.85 616.873 1986.78 625.284C1960.76 641.41 2044.99 610.833 2038.95 621.13C2022.1 638.824 2062.69 624.228 2054.7 620.547C2077.56 630.898 2082.35 641.371 2080.05 633.382C2068.01 635.272 2098.33 629.779 2080.08 622.593C2071.6 615.676 2093.54 606.874 2090.59 607.305C2087.78 603.651 2118.81 586.911 2094.7 589.047C2094.41 582.236 2102.23 570.316 2108.31 575.347C2115.05 552.986 2105.98 555.756 2119.61 540.667C2103.56 517.731 2111.63 512.567 2119.29 505.024C2118.68 490.839 2145.08 492.322 2126.42 476.76C2101.78 450.573 2090.32 468.189 2114.73 453.937C2087.58 436.047 2126.07 427.413 2105.43 419.922C2126.61 417.762 2104.09 402.052 2086.63 393.829C2107.59 378.973 2055.04 369.925 2073.16 360.548C2090.29 348.769 2045.92 336.676 2074.13 325.375C2086.67 314.037 2080.7 307.195 2080.76 295.839C2081.88 285.871 2078.22 275.903 2096.79 265.927C2099.66 255.952 2108.63 245.976 2112.7 235.996C2140.35 224.182 2151.96 212.023 2122.47 199.517Z" fill="#F3FBFF"/>
</g>
</g>
</svg>
