<svg width="512" height="512" viewBox="0 0 512 512" fill="none" xmlns="http://www.w3.org/2000/svg">
<g clip-path="url(#clip0_1026_9)">
<path d="M9.11237 319.819C10.0544 319.819 11.0114 319.64 11.9375 319.263C41.4444 307.251 90.0739 303.248 123.141 316.413C123.716 328.087 125.65 359.233 131.045 391.194C140.672 448.227 155.954 477.011 177.761 479.191C194.453 480.865 209.652 468.369 222.911 442.052C223.367 441.171 223.643 440.209 223.724 439.22C223.805 438.232 223.689 437.238 223.384 436.294C223.078 435.351 222.588 434.478 221.943 433.725C221.298 432.972 220.509 432.355 219.624 431.909C218.738 431.462 217.773 431.196 216.784 431.126C215.795 431.055 214.802 431.181 213.861 431.497C212.921 431.812 212.053 432.311 211.307 432.964C210.561 433.618 209.952 434.413 209.516 435.303C202.515 449.197 191.585 465.498 179.255 464.266C170.765 463.417 164.034 451.672 159.881 441.969C154.355 429.056 149.637 411.176 145.858 388.825C139.327 350.208 137.937 311.498 137.924 311.112C137.86 310.677 137.923 310.225 137.48 308.813L116.771 251.676C113.688 243.181 112.111 234.213 112.113 225.176C112.113 204.588 120.082 185.173 134.551 170.508C138.699 166.306 143.31 162.59 148.298 159.43C150.642 157.946 153.455 157.742 156.017 158.869C158.561 159.989 160.322 162.166 160.878 164.865L165.979 213.461C167.394 227.202 173.861 239.929 184.126 249.173C194.391 258.417 207.723 263.52 221.537 263.492H291.465C305.279 263.519 318.611 258.416 328.876 249.173C339.141 239.929 345.608 227.203 347.023 213.462L352.124 164.866C352.68 162.167 354.44 159.99 356.984 158.87C359.546 157.742 362.36 157.947 364.704 159.431C369.691 162.591 374.303 166.308 378.451 170.509C399.422 191.751 406.401 223.609 396.232 251.673L375.522 308.814C375.434 309.198 375.194 309.582 375.078 311.113C375.065 311.499 373.675 350.21 367.144 388.826C363.364 411.177 358.645 429.057 353.12 441.97C348.968 451.673 342.236 463.418 333.745 464.267C314.826 466.177 293.415 425.713 279.192 361.2C277.094 350.395 267.99 343.144 256.5 343.144C245.012 343.144 235.909 350.394 233.81 361.199C231.512 371.62 227.648 387.422 222.258 403.711C221.664 405.591 221.834 407.629 222.732 409.385C223.629 411.141 225.182 412.472 227.054 413.092C228.926 413.711 230.967 413.569 232.734 412.695C234.502 411.822 235.855 410.287 236.499 408.424C242.108 391.477 246.111 375.09 248.482 364.327C248.499 364.253 248.514 364.179 248.527 364.104C249.598 358.431 255.357 358.144 256.501 358.144C257.645 358.144 263.403 358.431 264.475 364.104L264.52 364.327C267.872 379.542 275.12 408.744 286 433.373C299.484 463.898 315.047 479.342 332.297 479.34C357.047 478.841 371.962 449.096 381.956 391.195C387.358 359.195 389.29 328.013 389.862 316.373C423.135 302.82 470.785 307.49 500.091 319.276C500.979 319.635 501.929 319.82 502.887 319.82C504.63 319.822 506.319 319.216 507.663 318.108C509.008 316.999 509.925 315.457 510.257 313.746C510.588 312.035 510.313 310.262 509.48 308.732C508.646 307.201 507.305 306.009 505.688 305.36C475.927 293.389 431.058 288.278 395.144 298.693L410.335 256.784C422.463 223.31 414.139 185.309 389.125 159.972C384.178 154.96 378.677 150.527 372.729 146.759C369.509 144.72 365.838 143.506 362.038 143.224C358.238 142.942 354.427 143.601 350.942 145.142C347.888 146.482 345.156 148.46 342.93 150.943C340.703 153.426 339.034 156.357 338.033 159.538L281.69 205.742C266.82 217.936 245.284 217.876 230.482 205.599L174.979 159.563C173.98 156.377 172.31 153.441 170.082 150.954C167.854 148.466 165.119 146.485 162.061 145.143C158.576 143.602 154.765 142.944 150.966 143.226C147.166 143.508 143.494 144.722 140.274 146.76C134.326 150.529 128.824 154.962 123.877 159.974C106.618 177.464 97.1141 200.62 97.1141 225.178C97.1119 235.957 98.9915 246.654 102.668 256.786L117.901 298.81C81.3096 288.369 35.2252 293.591 6.28428 305.373C4.67377 306.029 3.34123 307.224 2.51463 308.754C1.68803 310.284 1.41873 312.053 1.75282 313.76C2.0869 315.466 3.0036 317.004 4.34608 318.109C5.68857 319.214 7.37341 319.819 9.11237 319.819ZM256.173 229.838C268.603 229.838 281.037 225.673 291.201 217.339L335.332 181.151L332.104 211.895C331.07 221.946 326.339 231.255 318.83 238.017C311.322 244.779 301.57 248.512 291.465 248.492H221.537C211.432 248.512 201.68 244.779 194.171 238.017C186.663 231.256 181.932 221.946 180.898 211.895L177.686 181.296L220.905 217.143C231.107 225.604 243.639 229.838 256.173 229.838ZM502.89 497H9.10937C7.12018 497 5.21247 497.79 3.8059 499.196C2.39933 500.603 1.60913 502.511 1.60913 504.5C1.60913 506.489 2.39933 508.397 3.8059 509.803C5.21247 511.21 7.12018 512 9.10937 512H502.89C504.879 512 506.787 511.21 508.193 509.803C509.6 508.397 510.39 506.489 510.39 504.5C510.39 502.511 509.6 500.603 508.193 499.196C506.787 497.79 504.879 497 502.89 497Z" fill="black"/>
<path d="M162.654 42.5364C167.9 71.8443 193.317 93.1169 223.089 93.1169H234.499V119.4C232.889 119.026 231.24 118.837 229.586 118.839C226.762 118.831 223.964 119.383 221.354 120.464C218.745 121.545 216.375 123.133 214.384 125.136C210.323 129.197 208.086 134.595 208.086 140.339C208.086 146.084 210.323 151.483 214.383 155.543L240.797 181.957C244.858 186.018 250.257 188.254 256 188.254C261.743 188.254 267.142 186.018 271.204 181.957L297.617 155.543C301.679 151.482 303.916 146.083 303.916 140.339C303.916 134.596 301.68 129.196 297.618 125.136C295.626 123.133 293.257 121.545 290.647 120.464C288.038 119.384 285.24 118.831 282.415 118.839C280.74 118.839 279.094 119.029 277.502 119.4V71.4123C277.502 59.5569 267.856 49.9116 256.001 49.9116C244.146 49.9116 234.5 59.5569 234.5 71.4123V78.1155H223.09C200.592 78.1155 181.386 62.041 177.422 39.8933L173.992 20.7237C173.899 20.2141 173.909 19.6912 174.022 19.1857C174.134 18.6801 174.346 18.2021 174.646 17.7796C174.942 17.3577 175.319 16.9992 175.756 16.725C176.192 16.4507 176.679 16.2663 177.188 16.1825C177.371 16.1522 177.554 16.1149 177.735 16.0705C192.859 12.3864 214.641 18.7556 233.358 24.8218C224.117 27.8159 213.252 30.768 204.233 31.615C202.314 31.7956 200.539 32.708 199.275 34.163C198.01 35.618 197.355 37.5038 197.444 39.4292C197.533 41.3545 198.36 43.1717 199.753 44.5036C201.147 45.8356 202.999 46.58 204.926 46.5825C239.606 41.9263 253.558 32.033 274.702 26.4439C294.208 20.0417 318.484 12.0734 335.297 16.0775C335.466 16.1185 335.636 16.1525 335.807 16.1805C336.317 16.2639 336.806 16.4484 337.244 16.7232C337.682 16.9979 338.061 17.3574 338.359 17.7806C338.657 18.2026 338.869 18.68 338.981 19.1849C339.093 19.6897 339.104 20.2118 339.012 20.7207L335.582 39.8913C332.476 57.2438 320.059 71.1503 303.178 76.1844C302.234 76.4659 301.354 76.9306 300.59 77.5519C299.826 78.1731 299.191 78.9389 298.723 79.8054C297.777 81.5553 297.565 83.6094 298.133 85.5157C298.702 87.422 300.004 89.0244 301.754 89.9704C303.504 90.9163 305.558 91.1284 307.465 90.5599C329.806 83.8976 346.239 65.4951 350.348 42.5344L353.778 23.3638C354.227 20.9001 354.178 18.3716 353.634 15.9272C353.09 13.4828 352.063 11.1718 350.613 9.13031C347.764 5.06884 343.422 2.3007 338.538 1.43107C317.637 -3.43508 291.245 5.22719 270.024 12.1924C265.239 13.7635 260.682 15.2585 256.508 16.4995C252.482 15.2965 248.061 13.8475 243.421 12.3264C221.907 5.27719 195.157 -3.49008 174.432 1.43607C169.559 2.31066 165.23 5.07604 162.388 9.12931C160.938 11.1711 159.911 13.4825 159.367 15.9273C158.824 18.372 158.775 20.9008 159.224 23.3648L162.654 42.5364ZM249.5 71.4123C249.5 67.8282 252.416 64.9121 256 64.9121C259.584 64.9121 262.5 67.8282 262.5 71.4123V132.953C262.5 134.437 262.94 135.887 263.764 137.121C264.588 138.354 265.759 139.316 267.13 139.883C268.5 140.451 270.009 140.6 271.464 140.31C272.919 140.02 274.255 139.306 275.304 138.256L277.818 135.742C279.046 134.514 280.678 133.838 282.414 133.838C284.15 133.838 285.782 134.514 287.011 135.742C288.239 136.97 288.914 138.601 288.914 140.338C288.914 142.075 288.238 143.707 287.01 144.935L260.596 171.348C259.368 172.576 257.736 173.252 256 173.252C254.264 173.252 252.632 172.576 251.404 171.348L224.989 144.934C223.761 143.707 223.086 142.074 223.086 140.337C223.086 138.6 223.762 136.968 224.99 135.741C226.218 134.513 227.85 133.837 229.586 133.837C231.322 133.837 232.954 134.513 234.182 135.741L236.696 138.255C237.745 139.305 239.081 140.02 240.537 140.31C241.992 140.6 243.5 140.452 244.871 139.884C246.242 139.316 247.413 138.354 248.237 137.12C249.061 135.887 249.501 134.436 249.5 132.952V71.4123Z" fill="black"/>
<path d="M453.523 371.539C457.542 370.586 460.028 366.555 459.075 362.536C458.122 358.517 454.091 356.032 450.072 356.985C446.053 357.938 443.567 361.969 444.52 365.988C445.473 370.007 449.504 372.492 453.523 371.539Z" fill="black"/>
<path d="M75.2426 466.562C79.2617 465.609 81.7472 461.578 80.7942 457.559C79.8412 453.54 75.8104 451.055 71.7914 452.008C67.7723 452.961 65.2867 456.992 66.2398 461.011C67.1928 465.03 71.2235 467.515 75.2426 466.562Z" fill="black"/>
<path d="M54.0397 436.126C56.9604 433.206 56.9604 428.47 54.0397 425.549C51.1189 422.629 46.3835 422.629 43.4628 425.549C40.542 428.47 40.542 433.206 43.4628 436.126C46.3835 439.047 51.1189 439.047 54.0397 436.126Z" fill="black"/>
</g>
<defs>
<clipPath id="clip0_1026_9">
<rect width="512" height="512" fill="white"/>
</clipPath>
</defs>
</svg>
