<svg width="512" height="512" viewBox="0 0 512 512" fill="none" xmlns="http://www.w3.org/2000/svg">
<path d="M255.827 284.209C193.425 282.174 178.46 228.746 175.256 211.498C169.249 210.106 163.896 206.706 160.083 201.86C155.73 195.861 153.71 188.482 154.403 181.103C153.908 177.127 154.254 173.091 155.417 169.257C156.58 165.423 158.535 161.876 161.155 158.845C162.635 157.328 164.335 156.045 166.199 155.039C154.601 136.315 148.889 114.54 149.802 92.5337C157.025 40.9186 198.621 35.8954 211.65 35.6048C217.646 28.6307 225.141 23.103 233.576 19.4353C249.375 13.0625 266.837 12.0895 283.247 16.6678C315.503 25.0881 337.014 41.2368 347.219 64.6712C361.749 97.9789 349.004 136.317 341.684 153.531C344.476 154.438 347.049 155.915 349.239 157.869C352.22 160.896 354.467 164.566 355.806 168.598C357.144 172.63 357.54 176.915 356.961 181.124C357.66 188.502 355.642 195.883 351.287 201.88C347.47 206.725 342.116 210.125 336.107 211.518C332.904 228.746 317.973 282.174 255.827 284.209ZM177.761 166.103C175.307 165.988 172.907 166.843 171.077 168.483C169.811 170.256 168.909 172.264 168.423 174.388C167.937 176.513 167.878 178.713 168.247 180.861C168.276 181.322 168.26 181.786 168.199 182.244C167.823 186.216 168.849 190.193 171.098 193.488C172.501 195.055 174.203 196.326 176.104 197.227C178.005 198.127 180.067 198.639 182.168 198.732C183.75 198.919 185.219 199.646 186.327 200.791C187.435 201.935 188.114 203.427 188.25 205.015C188.478 207.588 194.615 268.371 255.841 270.378C316.727 268.371 322.892 207.588 323.12 205.001C323.259 203.416 323.939 201.927 325.047 200.786C326.155 199.644 327.622 198.919 329.202 198.732C331.304 198.64 333.366 198.128 335.267 197.228C337.168 196.327 338.87 195.056 340.272 193.488C342.532 190.177 343.558 186.179 343.171 182.189C343.114 181.744 343.098 181.295 343.123 180.847C343.497 178.629 343.413 176.357 342.877 174.173C342.34 171.988 341.362 169.936 340.003 168.144C337.841 166.552 335.152 165.849 332.489 166.179C331.208 166.406 329.89 166.268 328.684 165.78C327.479 165.292 326.435 164.474 325.673 163.42C324.911 162.367 324.462 161.119 324.376 159.822C324.291 158.524 324.572 157.229 325.189 156.084C325.445 155.6 350.789 107.499 334.502 70.1164C326.068 50.7988 307.657 37.3138 279.767 30.0351C266.362 26.2416 252.08 26.9711 239.132 32.1108C231.765 35.2846 225.344 40.3088 220.492 46.6959C219.794 47.646 218.862 48.3999 217.787 48.8847C216.712 49.3695 215.53 49.5689 214.355 49.4634C212.563 49.3181 170.199 46.5783 163.556 93.9383C156.914 141.298 161.64 131.612 183.462 154.444C184.413 155.438 185.046 156.693 185.28 158.049C185.514 159.405 185.339 160.799 184.777 162.055C184.258 163.343 183.345 164.433 182.167 165.168C180.99 165.903 179.609 166.244 178.224 166.144L177.761 166.103Z" fill="black"/>
<path d="M331.285 166.269C329.499 166.27 327.782 165.581 326.492 164.346C325.203 163.111 324.441 161.425 324.366 159.64C324.283 157.848 322.138 116.051 290.934 112.031C276.661 113.844 262.169 112.714 248.35 108.711C234.531 104.708 221.678 97.9166 210.584 88.756C201.763 95.3913 181.435 115.56 185.344 158.575C185.396 160.336 184.774 162.05 183.605 163.368C182.437 164.686 180.81 165.508 179.055 165.668C177.301 165.828 175.552 165.313 174.165 164.227C172.778 163.142 171.856 161.568 171.589 159.827C165.853 96.7197 206.378 74.8144 208.1 73.915C209.383 73.2457 210.843 72.9952 212.275 73.1987C213.707 73.4023 215.04 74.0496 216.085 75.0497C225.947 83.9819 237.621 90.679 250.31 94.683C262.999 98.6869 276.403 99.9032 289.605 98.2488C290.239 98.1463 290.883 98.1231 291.522 98.1796C326.698 101.84 337.443 139.631 338.204 159.066C338.275 160.897 337.617 162.681 336.374 164.027C335.132 165.374 333.406 166.172 331.575 166.248L331.285 166.269ZM450.346 498.162H61.6545C59.8195 498.162 58.0597 497.433 56.7621 496.136C55.4646 494.838 54.7356 493.078 54.7356 491.243V414.111C54.7851 389.733 64.5002 366.369 81.7507 349.143C99.0011 331.918 122.379 322.236 146.757 322.221H160.042C161.877 322.221 163.636 322.95 164.934 324.248C166.232 325.545 166.96 327.305 166.96 329.14C166.96 330.975 166.232 332.735 164.934 334.032C163.636 335.33 161.877 336.059 160.042 336.059H146.757C126.048 336.07 106.188 344.293 91.5315 358.924C76.8753 373.556 68.6192 393.402 68.5734 414.111V484.324H443.427V414.111C443.403 393.418 435.172 373.579 420.539 358.946C405.907 344.314 386.068 336.083 365.374 336.059H351.135C349.3 336.059 347.54 335.33 346.243 334.032C344.945 332.735 344.216 330.975 344.216 329.14C344.216 327.305 344.945 325.545 346.243 324.248C347.54 322.95 349.3 322.221 351.135 322.221H365.374C389.734 322.256 413.087 331.948 430.312 349.174C447.537 366.399 457.23 389.751 457.264 414.111V491.243C457.264 493.078 456.536 494.838 455.238 496.136C453.94 497.433 452.181 498.162 450.346 498.162Z" fill="black"/>
<path d="M279.123 498.162C278.127 498.163 277.143 497.948 276.238 497.533C275.333 497.118 274.528 496.512 273.878 495.757C273.228 495.002 272.749 494.116 272.474 493.159C272.198 492.203 272.132 491.197 272.28 490.213L300.281 304.903C300.429 303.923 300.787 302.986 301.329 302.156C301.871 301.325 302.585 300.621 303.423 300.091C304.261 299.561 305.203 299.217 306.185 299.083C307.167 298.949 308.167 299.027 309.117 299.313L357.438 313.877C358.401 314.167 359.288 314.664 360.039 315.332C360.79 316 361.387 316.823 361.787 317.745C362.187 318.667 362.382 319.665 362.357 320.67C362.333 321.675 362.09 322.662 361.645 323.564L342.438 362.102L353.578 374.604C354.565 375.72 355.165 377.125 355.29 378.61C355.415 380.095 355.057 381.58 354.269 382.845L285.004 494.883C284.384 495.885 283.519 496.712 282.489 497.286C281.46 497.86 280.301 498.162 279.123 498.162ZM312.777 314.866L291.017 458.87L339.816 379.994L329.002 367.852C328.081 366.82 327.492 365.536 327.308 364.166C327.124 362.796 327.355 361.402 327.971 360.165L345.6 324.781L312.777 314.866ZM232.081 498.162C230.902 498.163 229.742 497.862 228.711 497.288C227.68 496.714 226.814 495.886 226.193 494.883L156.907 382.866C156.12 381.601 155.762 380.115 155.887 378.631C156.011 377.146 156.612 375.741 157.599 374.625L168.739 362.123L149.532 323.584C149.087 322.683 148.844 321.696 148.819 320.691C148.795 319.686 148.989 318.688 149.39 317.766C149.79 316.844 150.387 316.02 151.138 315.352C151.889 314.684 152.776 314.188 153.738 313.898L202.06 299.333C203.009 299.049 204.008 298.971 204.99 299.106C205.971 299.241 206.912 299.585 207.749 300.115C208.586 300.645 209.3 301.349 209.842 302.178C210.383 303.008 210.74 303.944 210.889 304.924L238.903 490.233C239.048 491.215 238.98 492.216 238.704 493.169C238.428 494.122 237.95 495.004 237.303 495.756C236.656 496.508 235.855 497.112 234.954 497.527C234.053 497.943 233.073 498.159 232.081 498.162ZM171.389 379.973L220.188 458.849L198.428 314.866L165.604 324.76L183.227 360.144C183.843 361.381 184.075 362.774 183.893 364.144C183.71 365.514 183.122 366.798 182.203 367.831L171.389 379.973Z" fill="black"/>
<path d="M256.118 369.159C241.157 369.148 226.211 368.243 211.359 366.447C210.438 366.362 209.543 366.094 208.728 365.658C207.912 365.222 207.192 364.627 206.611 363.908C206.029 363.188 205.597 362.36 205.341 361.471C205.086 360.582 205.01 359.651 205.121 358.733C205.231 357.815 205.524 356.928 205.983 356.125C206.441 355.322 207.056 354.619 207.792 354.057C208.527 353.496 209.367 353.088 210.263 352.857C211.158 352.626 212.091 352.577 213.006 352.713C241.283 356.19 269.88 356.19 298.157 352.713C299.96 352.518 301.768 353.039 303.191 354.163C304.614 355.288 305.539 356.927 305.765 358.727C305.992 360.526 305.503 362.343 304.404 363.786C303.304 365.228 301.682 366.181 299.887 366.44C285.368 368.262 270.75 369.17 256.118 369.159ZM307.138 312.853C306.061 312.849 304.999 312.593 304.038 312.107C303.077 311.62 302.243 310.916 301.603 310.051C291.321 296.151 289.46 268.599 289.287 265.507C289.181 263.675 289.807 261.877 291.026 260.507C292.246 259.137 293.96 258.307 295.791 258.2C297.617 258.115 299.404 258.747 300.77 259.963C302.135 261.178 302.971 262.88 303.097 264.704C303.519 271.983 306.079 292.843 312.721 301.824C313.48 302.852 313.94 304.07 314.049 305.344C314.158 306.617 313.912 307.895 313.339 309.038C312.766 310.18 311.888 311.141 310.801 311.814C309.715 312.488 308.464 312.847 307.186 312.853H307.138ZM204.067 312.853C202.789 312.847 201.537 312.488 200.451 311.814C199.365 311.141 198.487 310.18 197.914 309.038C197.34 307.895 197.095 306.617 197.204 305.344C197.313 304.07 197.772 302.852 198.531 301.824C205.187 292.829 207.74 271.976 208.163 264.704C208.215 263.795 208.446 262.906 208.843 262.087C209.239 261.268 209.793 260.534 210.473 259.929C211.153 259.324 211.945 258.859 212.804 258.56C213.664 258.261 214.574 258.134 215.483 258.186C216.391 258.239 217.281 258.47 218.1 258.867C218.919 259.263 219.652 259.817 220.258 260.497C220.863 261.176 221.328 261.969 221.627 262.828C221.926 263.688 222.053 264.598 222 265.507C221.827 268.599 219.925 296.151 209.685 310.051C209.036 310.928 208.188 311.639 207.212 312.126C206.235 312.613 205.158 312.862 204.067 312.853ZM395.451 401.187C393.65 401.187 391.92 400.486 390.628 399.232C389.336 397.977 388.584 396.268 388.532 394.468C387.238 349.412 370.107 335.236 369.941 335.097C368.511 333.962 367.584 332.311 367.359 330.5C367.134 328.689 367.629 326.861 368.737 325.411C369.837 323.972 371.461 323.025 373.255 322.777C375.049 322.528 376.869 322.997 378.32 324.082C379.233 324.774 400.854 341.566 402.37 394.067C402.422 395.9 401.744 397.679 400.486 399.012C399.227 400.346 397.491 401.125 395.658 401.18L395.451 401.187Z" fill="black"/>
<path d="M395.485 442.036C390.076 442.038 384.787 440.435 380.288 437.43C375.79 434.426 372.283 430.155 370.212 425.157C368.141 420.16 367.598 414.66 368.653 409.354C369.707 404.048 372.312 399.174 376.136 395.348C379.961 391.523 384.834 388.917 390.14 387.861C395.446 386.805 400.945 387.347 405.943 389.416C410.941 391.486 415.213 394.992 418.219 399.49C421.225 403.988 422.829 409.276 422.829 414.686C422.822 421.936 419.939 428.887 414.812 434.015C409.686 439.142 402.736 442.027 395.485 442.036ZM395.485 401.173C392.813 401.172 390.199 401.963 387.976 403.447C385.753 404.931 384.02 407.041 382.996 409.51C381.973 411.979 381.704 414.696 382.225 417.318C382.745 419.939 384.032 422.348 385.921 424.238C387.811 426.129 390.218 427.416 392.84 427.938C395.461 428.46 398.178 428.193 400.648 427.17C403.117 426.148 405.228 424.416 406.713 422.194C408.198 419.971 408.991 417.359 408.991 414.686C408.987 411.104 407.564 407.67 405.032 405.137C402.5 402.604 399.067 401.179 395.485 401.173ZM111.27 401.187C109.517 401.191 107.828 400.53 106.543 399.337C105.259 398.144 104.476 396.508 104.351 394.759C100.58 341.657 129.84 324.684 131.086 323.986C132.684 323.084 134.575 322.854 136.343 323.346C138.111 323.838 139.611 325.013 140.513 326.611C141.415 328.21 141.645 330.101 141.152 331.869C140.66 333.637 139.485 335.136 137.887 336.038C136.835 336.661 115.055 350.105 118.147 393.784C118.277 395.614 117.674 397.421 116.471 398.807C115.268 400.192 113.564 401.044 111.734 401.173L111.27 401.187Z" fill="black"/>
<path d="M97.2732 456.586C96.2026 456.591 95.1454 456.348 94.185 455.875C93.2245 455.402 92.3869 454.712 91.7381 453.86C88.3607 449.425 85.8727 444.378 84.411 438.999C81.1991 428.52 82.2528 417.196 87.3431 407.49C92.4334 397.783 101.149 390.478 111.595 387.162C116.55 385.769 121.733 385.377 126.841 386.009C131.95 386.641 136.881 388.284 141.347 390.843C149.173 395.365 155.434 402.168 159.291 410.342C163.149 418.517 164.419 427.675 162.934 436.591C162.633 438.401 161.625 440.018 160.132 441.085C158.639 442.152 156.784 442.583 154.974 442.282C153.163 441.981 151.547 440.973 150.48 439.48C149.412 437.987 148.982 436.132 149.283 434.321C150.298 428.212 149.436 421.938 146.809 416.33C144.183 410.721 139.916 406.041 134.573 402.909C131.692 401.246 128.509 400.173 125.209 399.754C121.908 399.335 118.558 399.577 115.352 400.467C108.419 402.786 102.68 407.744 99.3799 414.267C96.0796 420.79 95.4842 428.352 97.723 435.311C98.7241 438.994 100.43 442.448 102.746 445.482C103.525 446.507 104.003 447.73 104.125 449.012C104.247 450.294 104.009 451.584 103.437 452.739C102.865 453.893 101.983 454.864 100.889 455.544C99.7953 456.224 98.5334 456.585 97.2456 456.586H97.2732Z" fill="black"/>
<path d="M156.202 442.389C155.932 442.389 155.655 442.389 155.378 442.347L147.581 441.427C146.678 441.32 145.805 441.036 145.012 440.591C144.219 440.147 143.522 439.551 142.959 438.836C142.397 438.122 141.98 437.304 141.734 436.429C141.487 435.554 141.416 434.639 141.523 433.737C141.63 432.834 141.914 431.961 142.359 431.168C142.803 430.375 143.4 429.678 144.114 429.115C145.556 427.979 147.39 427.463 149.213 427.679L157.011 428.606C158.762 428.815 160.368 429.684 161.5 431.036C162.631 432.388 163.204 434.122 163.101 435.882C162.998 437.643 162.226 439.297 160.944 440.508C159.661 441.719 157.965 442.387 156.202 442.389ZM97.2731 456.649C95.6486 456.651 94.0751 456.081 92.8282 455.04C91.5814 453.999 90.7408 452.552 90.4537 450.953C90.1665 449.354 90.4512 447.705 91.2578 446.295C92.0644 444.884 93.3415 443.803 94.8653 443.24L103.168 440.175C104.02 439.857 104.926 439.71 105.835 439.742C106.743 439.774 107.637 439.985 108.464 440.362C109.291 440.74 110.036 441.276 110.656 441.942C111.275 442.607 111.758 443.388 112.076 444.24C112.394 445.091 112.541 445.998 112.509 446.906C112.477 447.815 112.266 448.708 111.889 449.536C111.511 450.363 110.975 451.107 110.309 451.727C109.644 452.347 108.863 452.83 108.011 453.148L99.7086 456.22C98.9291 456.508 98.1041 456.653 97.2731 456.649Z" fill="black"/>
</svg>
