<svg width="512" height="512" viewBox="0 0 512 512" fill="none" xmlns="http://www.w3.org/2000/svg">
<g clip-path="url(#clip0_1030_62)">
<path d="M507.606 351.388L467.949 311.73V175.699L493.84 166.365C496.742 165.32 499.251 163.405 501.026 160.882C502.8 158.359 503.754 155.35 503.756 152.266C503.758 149.181 502.809 146.171 501.038 143.645C499.267 141.12 496.76 139.202 493.86 138.153L256.982 52.3669C253.682 51.172 250.068 51.172 246.768 52.3669L9.89195 138.153C7.00349 139.2 4.50617 141.108 2.73763 143.621C0.969083 146.133 0.0146188 149.128 0.00327611 152.2C-0.00806657 155.272 0.924259 158.274 2.6742 160.799C4.42415 163.325 6.90731 165.252 9.78796 166.32L97.2086 198.704V297.55C97.2086 300.618 98.1485 303.613 99.9033 306.129C100.868 307.512 110.008 319.994 133.41 331.773C162.974 346.656 201.751 354.202 248.66 354.202C295.536 354.202 334.508 346.672 364.494 331.818C388.127 320.112 397.571 307.76 398.571 306.392C400.443 303.825 401.452 300.73 401.451 297.552V199.672L437.953 186.512V311.73L398.295 351.388C395.482 354.201 393.902 358.016 393.902 361.993C393.902 365.971 395.482 369.786 398.295 372.598L437.953 412.255V445.529C437.953 453.812 444.668 460.528 452.952 460.528C461.235 460.528 467.95 453.812 467.95 445.529V412.255L507.607 372.598C513.465 366.743 513.465 357.245 507.606 351.388ZM251.876 82.421L444.618 152.223L248.731 222.846L58.6053 152.414L251.876 82.421ZM371.453 291.573C320.179 337.711 167.816 332.42 127.206 291.723V209.817L243.45 252.879C245.294 253.171 247.036 254.762 253.747 252.925L371.454 210.489L371.453 291.573ZM452.951 384.833L430.11 361.993L452.951 339.152L475.79 361.993L452.951 384.833Z" fill="black"/>
</g>
<defs>
<clipPath id="clip0_1030_62">
<rect width="512" height="512" fill="white"/>
</clipPath>
</defs>
</svg>
