<svg width="512" height="512" viewBox="0 0 512 512" fill="none" xmlns="http://www.w3.org/2000/svg">
<g clip-path="url(#clip0_1030_65)">
<path d="M464.891 211.615C475.302 191.017 470.992 166.567 454.162 150.772L430.266 128.342C424.848 123.258 421.676 117.765 419.982 110.529L412.506 78.621C407.242 56.149 388.223 40.189 365.179 38.908L332.455 37.088C325.037 36.676 319.076 34.506 313.128 30.054L286.891 10.414C268.413 -3.41796 243.585 -3.41796 225.11 10.414L198.873 30.054C192.925 34.506 186.963 36.676 179.544 37.088L146.822 38.908C123.779 40.189 104.759 56.148 99.4941 78.621L92.0191 110.53C90.3251 117.764 87.1531 123.258 81.7351 128.343L57.8391 150.772C41.0101 166.567 36.6991 191.017 47.1101 211.615L61.8951 240.863C65.2481 247.496 66.3481 253.743 65.4661 261.12L61.5771 293.662C58.8381 316.578 71.2521 338.08 92.4681 347.166L122.594 360.069C126.189 361.608 129.228 363.48 131.903 365.802L85.8691 464.677C85.2525 466.003 85.0108 467.472 85.1703 468.925C85.3298 470.378 85.8844 471.76 86.7738 472.92C87.6633 474.08 88.8536 474.975 90.2155 475.506C91.5774 476.038 93.0589 476.186 94.4991 475.935L140.14 467.96L163.417 508.019C164.151 509.284 165.218 510.323 166.502 511.023C167.785 511.724 169.236 512.059 170.697 511.993C172.158 511.927 173.572 511.461 174.787 510.647C176.002 509.833 176.97 508.702 177.587 507.376L217.907 420.771L245.716 412.367C252.827 410.217 259.173 410.217 266.284 412.367L295.445 421.18L335.575 507.376C336.219 508.757 337.243 509.926 338.528 510.745C339.813 511.564 341.305 511.999 342.829 511.999C345.669 511.999 348.308 510.489 349.745 508.019L373.022 467.96L418.663 475.935C420.104 476.187 421.585 476.039 422.948 475.508C424.31 474.977 425.501 474.082 426.39 472.922C427.28 471.761 427.834 470.379 427.994 468.925C428.153 467.472 427.91 466.003 427.293 464.677L380.933 365.101C383.404 363.101 386.179 361.449 389.405 360.067L419.532 347.165C440.748 338.079 453.162 316.578 450.424 293.661L446.534 261.118C445.651 253.741 446.753 247.494 450.105 240.863L464.891 211.615ZM169.551 486.729L151.172 455.102C150.349 453.688 149.114 452.561 147.631 451.87C146.148 451.18 144.489 450.96 142.878 451.241L106.844 457.537L142.859 380.183L156.29 400.72C165.952 415.494 181.875 423.923 198.715 424.087L169.551 486.729ZM370.284 451.24C368.673 450.959 367.014 451.178 365.531 451.869C364.048 452.559 362.812 453.687 361.99 455.101L343.611 486.728L314.441 424.071C330.852 423.541 346.268 415.156 355.711 400.719L369.821 379.145L406.319 457.537L370.284 451.24ZM435.826 233.646C431.097 243.002 429.402 252.61 430.647 263.019L434.537 295.561C436.455 311.612 428.093 326.095 413.233 332.459L383.106 345.36C373.469 349.487 365.996 355.758 360.258 364.532L342.32 391.961C333.472 405.488 317.757 411.209 302.285 406.532L270.913 397.052C260.879 394.021 251.123 394.021 241.087 397.052L209.715 406.532C194.242 411.209 178.527 405.489 169.68 391.961L151.742 364.532C146.004 355.759 138.53 349.487 128.893 345.361L98.7671 332.459C83.9081 326.095 75.5451 311.611 77.4641 295.561L81.3531 263.02C82.5981 252.612 80.9041 243.004 76.1741 233.646L61.3891 204.397C54.0971 189.971 57.0011 173.501 68.7871 162.439L92.6831 140.011C100.328 132.836 105.205 124.387 107.596 114.18L115.071 82.272C118.759 66.533 131.57 55.783 147.71 54.884L180.431 53.064C190.899 52.483 200.067 49.146 208.46 42.864L234.697 23.224C241.168 18.38 248.584 15.959 256 15.959C263.416 15.959 270.832 18.38 277.303 23.224L303.54 42.864C311.934 49.146 321.102 52.483 331.567 53.064L364.29 54.884C380.43 55.782 393.241 66.532 396.928 82.272L404.404 114.18C406.795 124.388 411.673 132.837 419.317 140.01L443.213 162.439C454.999 173.502 457.903 189.971 450.611 204.397L435.826 233.646ZM256 76.633C181.325 76.633 120.572 137.386 120.572 212.061C120.572 286.737 181.325 347.49 256 347.49C330.675 347.49 391.428 286.737 391.428 212.061C391.428 137.386 330.675 76.633 256 76.633ZM256 331.489C190.147 331.489 136.572 277.914 136.572 212.06C136.572 146.207 190.147 92.632 256 92.632C321.853 92.632 375.428 146.207 375.428 212.06C375.428 277.914 321.853 331.489 256 331.489ZM314.497 147.147C307.318 147.174 300.586 149.996 295.54 155.091L239.235 211.958L216.448 189.17C205.958 178.682 188.891 178.681 178.403 189.171C167.916 199.659 167.916 216.725 178.403 227.214L220.282 269.092C225.527 274.336 232.416 276.958 239.303 276.958C246.192 276.958 253.08 274.336 258.325 269.092C274.195 253.221 324.332 202.368 333.675 192.939C344.092 182.426 344.036 165.392 333.553 154.966C328.456 149.897 321.669 147.106 314.497 147.147ZM322.311 181.678C312.958 191.117 262.843 241.949 247.012 257.779C242.762 262.032 235.847 262.029 231.597 257.779L189.718 215.902C185.468 211.651 185.468 204.736 189.718 200.486C191.843 198.36 194.634 197.298 197.426 197.298C200.218 197.298 203.009 198.361 205.134 200.486L233.607 228.959C235.108 230.459 237.142 231.302 239.264 231.302H239.284C240.338 231.3 241.381 231.089 242.353 230.682C243.326 230.275 244.208 229.68 244.949 228.931L306.91 166.351C307.909 165.338 309.1 164.533 310.413 163.983C311.726 163.433 313.135 163.149 314.558 163.148H314.601C317.497 163.148 320.219 164.271 322.272 166.313C326.511 170.527 326.528 177.421 322.311 181.678Z" fill="black"/>
</g>
<defs>
<clipPath id="clip0_1030_65">
<rect width="512" height="512" fill="white"/>
</clipPath>
</defs>
</svg>
