<svg class="svg-icon" style="width: 1em; height: 1em;vertical-align: middle;fill: currentColor;overflow: hidden;" viewBox="0 0 1024 1024" version="1.1" xmlns="http://www.w3.org/2000/svg"><path d="M265.6 1020c-24.8 0-48-13.6-60.8-37.6-44-83.2-88-182.4-127.2-287.2C-40 378.4-15.2 80.8 134.4 16 184-5.6 242.4 1.6 304 36.8c130.4 74.4 286.4 74.4 416.8 0 60.8-34.4 120-41.6 169.6-20.8 149.6 64.8 174.4 362.4 56.8 678.4-35.2 94.4-80.8 190.4-131.2 276.8-15.2 25.6-41.6 39.2-69.6 34.4-28.8-4-51.2-25.6-58.4-55.2-32-136.8-100.8-225.6-175.2-225.6-75.2 0-146.4 95.2-177.6 236-6.4 31.2-30.4 53.6-60 57.6-4 1.6-6.4 1.6-9.6 1.6z m-72-984c-16.8 0-32 3.2-47.2 9.6C85.6 72 46.4 152 37.6 269.6c-8.8 122.4 16 268.8 69.6 413.6 38.4 103.2 81.6 201.6 125.6 283.2 8 15.2 22.4 22.4 37.6 20.8 12.8-1.6 28-11.2 32.8-32.8C337.6 796 420 693.6 512 693.6c90.4 0 169.6 96 206.4 250.4 4.8 20 19.2 29.6 32 31.2 15.2 2.4 28.8-4.8 37.6-19.2 49.6-84.8 94.4-179.2 128.8-272 53.6-144.8 78.4-292 69.6-413.6-8.8-118.4-48-198.4-109.6-224.8-40-17.6-88.8-11.2-140.8 18.4-140 80-308 80-448 0-33.6-18.4-64.8-28-94.4-28z"  /><path d="M512 479.2c-4 0-7.2-2.4-8-6.4L483.2 368c-4-19.2 2.4-38.4 16-52.8l39.2-38.4c13.6-13.6 16-33.6 7.2-50.4l-66.4-115.2c-2.4-4-0.8-8.8 3.2-11.2 4-2.4 8.8-0.8 11.2 3.2L560 218.4c12.8 22.4 9.6 51.2-9.6 69.6l-39.2 38.4c-10.4 9.6-14.4 24-12 37.6L520 469.6c0.8 4-1.6 8.8-6.4 9.6H512z"  /></svg>