<svg width="512" height="512" viewBox="0 0 512 512" fill="none" xmlns="http://www.w3.org/2000/svg">
<g clip-path="url(#clip0_1467_2)">
<mask id="mask0_1467_2" style="mask-type:luminance" maskUnits="userSpaceOnUse" x="0" y="0" width="512" height="512">
<path d="M512 0H0V512H512V0Z" fill="white"/>
</mask>
<g mask="url(#mask0_1467_2)">
<path d="M426.237 52.4528C425.32 50.6874 423.739 49.3585 421.842 48.7585C419.946 48.1585 417.888 48.3365 416.123 49.2533C414.358 50.1702 413.029 51.7508 412.429 53.6474C411.829 55.5441 412.007 57.6014 412.924 59.3668C422.71 78.2027 424.764 99.8516 418.71 120.32C416.296 128.5 395.089 200.327 394.163 203.894C393.979 204.604 393.343 205.104 392.62 205.104H215.629C214.644 205.104 213.669 205.298 212.759 205.674C211.849 206.051 211.022 206.604 210.325 207.3C209.629 207.997 209.076 208.823 208.699 209.734C208.323 210.644 208.129 211.619 208.129 212.604C208.129 214.593 208.92 216.501 210.326 217.907C211.733 219.314 213.64 220.104 215.629 220.104H369.863L365.695 243.022C365.628 243.388 365.434 243.72 365.148 243.958C364.862 244.197 364.501 244.327 364.129 244.327H148.026C147.256 244.327 146.601 243.78 146.464 243.022L142.292 220.104H182.969C184.958 220.104 186.865 219.314 188.272 217.907C189.678 216.501 190.468 214.593 190.468 212.604C190.468 210.615 189.678 208.707 188.272 207.301C186.865 205.894 184.958 205.104 182.969 205.104H119.534C118.812 205.104 118.174 204.608 117.991 203.897C117.971 203.819 117.948 203.741 117.929 203.663L93.4443 120.32C86.0344 95.2576 90.7534 68.8787 106.394 47.9408C122.034 27.0079 145.991 15 172.124 15C179.859 14.9944 187.556 16.0808 194.987 18.2269C234.892 29.8011 277.263 29.8011 317.167 18.2269C324.598 16.0808 332.295 14.9944 340.03 15C360.136 15 379.429 22.2969 394.362 35.5469C395.849 36.8676 397.801 37.5434 399.787 37.4254C401.773 37.3075 403.631 36.4055 404.952 34.9179C406.272 33.4296 406.947 31.4778 406.828 29.4918C406.71 27.5058 405.807 25.6483 404.319 24.3279C386.639 8.64098 363.809 1.75286e-05 340.03 1.75286e-05C330.884 -0.00547355 321.782 1.27918 312.995 3.816C275.816 14.6011 236.338 14.6011 199.159 3.816C190.372 1.27918 181.271 -0.00547355 172.124 1.75286e-05C141.214 1.75286e-05 112.874 14.203 94.3743 38.9649C75.8745 63.7268 70.2925 94.9296 79.0584 124.559L103.507 207.792C104.451 211.322 106.533 214.443 109.431 216.669C112.329 218.895 115.88 220.102 119.534 220.104H127.046L131.706 245.706C132.399 249.529 134.413 252.987 137.396 255.476C140.379 257.966 144.141 259.329 148.026 259.327H180.711L186.007 304.952L180.723 306.366C178.031 307.079 175.508 308.319 173.298 310.014C171.09 311.709 169.239 313.825 167.854 316.241C166.455 318.647 165.548 321.308 165.184 324.068C164.821 326.827 165.009 329.632 165.737 332.319C168.272 341.776 176.855 348.026 186.21 348.026C187.807 348.021 189.397 347.837 190.952 347.476L193.647 370.683L186.499 372.601C175.215 375.624 168.491 387.265 171.515 398.553C174.05 408.006 182.632 414.26 191.987 414.26C193.8 414.26 195.636 414.025 197.467 413.533L198.589 413.233L201.284 436.416L195.164 438.056C189.694 439.521 185.128 443.029 182.296 447.932C180.899 450.339 179.993 453 179.63 455.76C179.267 458.519 179.455 461.324 180.184 464.01C181.644 469.475 185.151 474.045 190.053 476.877C193.262 478.739 196.904 479.721 200.613 479.725C202.453 479.725 204.308 479.482 206.132 478.995L206.229 478.967L208.272 496.549C209.292 505.357 216.752 512.002 225.624 512.002H286.534C295.401 512.002 302.862 505.357 303.886 496.549L309.132 451.396L316.995 449.287C328.276 446.264 334.999 434.623 331.975 423.337C329.687 414.799 322.464 408.881 314.195 407.81L317.261 381.436L325.659 379.186C336.94 376.167 343.663 364.522 340.639 353.237C338.304 344.519 330.831 338.53 322.347 337.647L325.39 311.479L331.433 309.862C342.722 306.835 349.44 295.194 346.417 283.909C344.288 275.968 337.894 270.296 330.358 268.679L331.448 259.331H364.128C372.151 259.331 379.015 253.601 380.452 245.71L385.112 220.104H392.62C400.179 220.104 406.784 214.987 408.683 207.664C409.343 205.116 423.643 156.577 433.096 124.575C440.252 100.367 437.818 74.7537 426.237 52.4528ZM288.983 494.814C288.914 495.415 288.626 495.97 288.174 496.372C287.723 496.775 287.139 496.998 286.534 496.998H225.62C225.015 496.998 224.431 496.775 223.979 496.373C223.528 495.97 223.24 495.415 223.17 494.814L220.874 475.041L293.546 455.568L288.983 494.814ZM317.483 427.217C318.37 430.514 316.405 433.912 313.108 434.799L202.249 464.502C201.465 464.715 200.646 464.77 199.84 464.664C199.034 464.558 198.257 464.293 197.554 463.885C196.849 463.481 196.231 462.941 195.736 462.296C195.241 461.651 194.879 460.913 194.671 460.127C194.458 459.343 194.402 458.524 194.508 457.718C194.614 456.912 194.879 456.135 195.288 455.432C195.693 454.727 196.233 454.108 196.878 453.613C197.523 453.117 198.26 452.754 199.046 452.545L309.906 422.842C311.491 422.418 313.18 422.641 314.601 423.461C316.021 424.282 317.059 425.633 317.484 427.217H317.483ZM298.803 410.287L215.929 432.494L213.237 409.307L301.671 385.612L298.803 410.287ZM326.151 357.116C326.573 358.702 326.349 360.39 325.529 361.812C324.708 363.233 323.357 364.271 321.772 364.698L193.585 399.045C192 399.47 190.311 399.247 188.889 398.427C187.468 397.606 186.43 396.255 186.003 394.67C185.12 391.373 187.085 387.976 190.382 387.089L318.569 352.741C319.091 352.6 319.63 352.53 320.171 352.531C322.905 352.531 325.413 354.354 326.151 357.116ZM331.929 287.788C332.351 289.374 332.127 291.063 331.306 292.484C330.485 293.906 329.134 294.943 327.549 295.37L281.722 307.651C280.771 307.905 279.879 308.345 279.098 308.944C278.316 309.544 277.661 310.291 277.168 311.144C276.676 311.997 276.357 312.939 276.228 313.915C276.1 314.892 276.166 315.884 276.421 316.835C277.491 320.835 281.601 323.21 285.604 322.14L309.8 315.655L306.933 340.331L208.292 366.761L205.601 343.577L254.031 330.601C255.953 330.085 257.591 328.828 258.586 327.105C259.58 325.382 259.85 323.335 259.335 321.413C258.265 317.413 254.151 315.038 250.147 316.108L187.807 332.815C184.511 333.698 181.113 331.733 180.227 328.437C180.014 327.652 179.96 326.833 180.066 326.027C180.173 325.221 180.438 324.444 180.847 323.741C181.251 323.035 181.791 322.417 182.436 321.922C183.081 321.427 183.818 321.065 184.604 320.858L324.347 283.413C327.644 282.526 331.046 284.495 331.929 287.788ZM315.061 270.37L200.655 301.026L195.811 259.327H316.347L315.061 270.37Z" fill="black"/>
<path d="M312.994 43.8158C275.815 54.601 236.337 54.601 199.158 43.8158C195.182 42.6678 191.018 44.9568 189.869 48.9368C189.595 49.8828 189.51 50.8735 189.619 51.8524C189.728 52.8313 190.028 53.7792 190.503 54.6419C190.979 55.5046 191.619 56.2652 192.388 56.8804C193.157 57.4955 194.04 57.953 194.986 58.2268C214.966 64.0158 235.521 66.9098 256.076 66.9098C276.631 66.9098 297.186 64.0158 317.166 58.2268C318.113 57.9529 318.996 57.4953 319.765 56.8801C320.534 56.2649 321.175 55.5042 321.65 54.6415C322.126 53.7787 322.426 52.8308 322.535 51.8518C322.644 50.8729 322.559 49.882 322.285 48.9358C322.011 47.9896 321.554 47.1067 320.939 46.3374C320.324 45.568 319.563 44.9274 318.7 44.4521C317.837 43.9767 316.889 43.676 315.91 43.567C314.931 43.458 313.941 43.5419 312.994 43.8158Z" fill="black"/>
</g>
</g>
<defs>
<clipPath id="clip0_1467_2">
<rect width="512" height="512" fill="white"/>
</clipPath>
</defs>
</svg>
