<svg width="512" height="512" viewBox="0 0 512 512" fill="none" xmlns="http://www.w3.org/2000/svg">
<g clip-path="url(#clip0_1030_106)">
<path d="M508.616 247.797L392.255 131.435C388.075 126.554 380.729 125.985 375.848 130.166C370.967 134.346 370.398 141.692 374.579 146.572C374.969 147.027 375.393 147.452 375.848 147.841L472.312 244.422H11.6358C5.20991 244.422 0 249.632 0 256.059C0 262.485 5.20991 267.694 11.6358 267.694H472.312L375.848 364.158C370.967 368.338 370.398 375.683 374.579 380.564C378.76 385.445 386.105 386.014 390.986 381.833C391.441 381.443 391.866 381.019 392.255 380.564L508.617 264.202C513.128 259.666 513.128 252.336 508.616 247.797Z" fill="black"/>
</g>
<defs>
<clipPath id="clip0_1030_106">
<rect width="512" height="512" fill="white"/>
</clipPath>
</defs>
</svg>
