<svg width="512" height="512" viewBox="0 0 512 512" fill="none" xmlns="http://www.w3.org/2000/svg">
<path d="M349.958 119.729C355.556 119.729 360.744 121.208 365.693 123.039C370.648 124.854 375.114 127.101 381.104 127.101C387.095 127.101 391.538 124.854 396.481 123.039C401.425 121.208 406.647 119.729 412.245 119.729C421.632 119.729 429.511 126.458 433.903 137.182C438.312 147.94 438.556 162.071 432.361 174.399C429.426 180.201 426.94 184.44 424.516 188.911C420.483 196.295 414.174 198.247 408.092 198.247H354.116C348.041 198.247 341.692 196.295 337.692 188.911C335.269 184.44 332.806 180.201 329.87 174.399C323.681 162.071 323.891 147.94 328.272 137.182C332.686 126.458 340.565 119.729 349.958 119.729ZM225.308 119.729C230.906 119.729 236.123 121.208 241.072 123.039C246.022 124.854 250.465 127.101 256.449 127.101C262.434 127.101 266.911 124.854 271.855 123.039C276.799 121.208 282.021 119.729 287.59 119.729C296.977 119.729 304.868 126.458 309.248 137.182C313.668 147.94 313.873 162.071 307.684 174.399C304.782 180.201 302.296 184.44 299.861 188.911C295.862 196.295 289.519 198.247 283.449 198.247H229.49C223.386 198.247 217.043 196.295 213.043 188.911C210.62 184.44 208.128 180.201 205.221 174.399C198.992 162.071 199.265 147.94 203.651 137.182C208.031 126.458 215.945 119.729 225.308 119.729ZM100.335 119.729C105.933 119.729 111.144 121.208 116.099 123.039C121.043 124.854 125.486 127.101 131.476 127.101C137.461 127.101 141.932 124.854 146.881 123.039C151.836 121.208 157.047 119.729 162.623 119.729C172.009 119.729 179.894 126.458 184.28 137.182C188.695 147.94 188.962 162.071 182.739 174.399C179.837 180.201 177.374 184.44 174.95 188.911C170.945 196.295 164.54 198.247 158.475 198.247H104.505C98.4064 198.247 92.0974 196.295 88.0868 188.911C85.6292 184.44 83.1716 180.201 80.2702 174.399C74.0807 162.071 74.2855 147.94 78.6717 137.182C83.0578 126.458 90.9654 119.729 100.335 119.729ZM100.335 107.867C85.2822 107.867 73.4606 118.807 67.7433 132.705C62.0544 146.603 61.8382 164.056 69.7003 179.695C72.778 185.828 75.3607 190.271 77.6647 194.537C83.9225 206.063 95.323 210.091 104.511 210.091H158.47C167.623 210.091 179.058 206.063 185.316 194.537C188.752 188.348 191.414 183.455 193.991 178.119C196.54 183.78 199.942 189.645 202.644 194.537C208.896 206.063 220.302 210.091 229.49 210.091H283.449C292.602 210.091 304.037 206.063 310.295 194.537C313.255 189.249 316.078 183.884 318.76 178.449C321.337 183.985 324.625 189.764 327.293 194.537C333.517 206.063 344.957 210.091 354.116 210.091H408.092C417.246 210.091 428.692 206.063 434.916 194.537C437.248 190.271 439.825 185.828 442.914 179.695C450.736 164.051 450.56 146.603 444.871 132.705C439.182 118.813 427.327 107.867 412.251 107.867C404.543 107.867 397.875 109.921 392.431 111.923C387.362 113.801 383.511 115.342 381.144 115.837C378.766 115.337 374.921 113.818 369.823 111.923C364.368 109.915 357.678 107.867 349.969 107.867C335.991 107.867 324.881 117.299 318.771 129.735C312.707 117.294 301.591 107.867 287.602 107.867C279.899 107.867 273.203 109.921 267.748 111.923C262.656 113.818 258.833 115.342 256.461 115.837C254.094 115.337 250.209 113.795 245.14 111.923C239.696 109.915 233.023 107.867 225.32 107.867C211.251 107.867 200.044 117.442 193.968 130.003C187.921 117.442 176.697 107.867 162.628 107.867C154.92 107.867 148.287 109.921 142.803 111.923C137.734 113.801 133.882 115.342 131.516 115.837C129.143 115.337 125.298 113.818 120.235 111.923C114.762 109.921 108.032 107.867 100.335 107.867ZM381.133 266.542H428.686C426.462 271.4 422.844 280.673 421.717 287.312C418.839 304.231 420.437 312.229 411.46 329.831C407.814 336.964 403.974 338.097 402.074 337.892C400.174 337.681 398.575 336.589 398.575 332.499V315.256C398.575 309.567 397.688 304.435 394.729 300.265C391.765 296.09 386.52 293.712 381.127 293.712C375.706 293.712 370.426 296.09 367.462 300.265C364.504 304.43 363.639 309.567 363.639 315.256V332.499C363.639 336.589 362.018 337.681 360.118 337.892C358.218 338.097 354.372 336.964 350.731 329.831C341.754 312.229 343.467 304.196 340.44 287.312C339.167 280.116 336.842 273.146 333.54 266.627C349.309 266.365 365.278 266.542 381.133 266.542ZM83.9168 266.542H131.499C147.319 266.599 163.351 266.365 179.081 266.633C176.003 273.095 173.096 281.356 172.095 287.318C169.273 304.236 170.82 312.235 161.872 329.836C158.219 336.97 154.351 338.102 152.451 337.897C150.585 337.687 148.986 336.595 148.986 332.504V315.261C148.986 309.572 148.065 304.441 145.101 300.271C142.137 296.095 136.92 293.718 131.499 293.718C126.106 293.718 120.804 296.095 117.84 300.271C114.881 304.435 114.017 309.572 114.017 315.261V332.504C114.017 336.595 112.384 337.687 110.484 337.897C108.618 338.102 104.744 336.97 101.097 329.836C92.1486 312.235 93.8382 304.202 90.8516 287.318C89.5435 280.097 87.2083 273.1 83.9168 266.542ZM58.5216 263.754C63.7042 263.106 70.5878 266.929 73.6939 272.822C76.8342 278.756 77.989 282.186 79.178 289.269C81.7835 304.822 80.6571 315.734 90.5558 335.167C95.6473 345.156 103.828 350.515 111.792 349.651C119.763 348.769 125.838 341.299 125.838 332.499V315.256C125.838 310.926 126.527 308.082 127.499 307.103C130.344 304.259 133.126 304.76 135.435 307.103C136.414 308.082 137.125 310.926 137.125 315.256V332.499C137.125 341.299 143.229 348.763 151.205 349.651C159.169 350.515 167.322 345.156 172.413 335.167C182.312 315.734 181.191 304.822 183.791 289.269C184.98 282.067 186.192 278.636 188.888 273.744C189.958 271.872 190.703 269.83 190.999 267.753C199.828 269.21 209.015 272.02 213.305 276.315C219.551 282.579 224.865 288.142 231.526 292.318C238.194 296.494 246.164 298.985 256.302 298.985C266.468 298.985 274.466 296.494 281.134 292.318C287.801 288.142 293.069 282.573 299.321 276.315C303.622 272.02 312.741 269.244 321.576 267.753C321.9 269.83 322.662 271.872 323.709 273.744C326.4 278.631 327.589 282.067 328.801 289.269C331.378 304.822 330.291 315.734 340.179 335.167C345.276 345.156 353.456 350.515 361.421 349.651C369.397 348.769 375.444 341.299 375.444 332.499V315.256C375.444 310.926 376.155 308.082 377.134 307.103C379.978 304.259 383.113 304.942 385.07 307.103C385.991 308.116 386.759 310.926 386.759 315.256V332.499C386.759 341.299 392.806 348.763 400.782 349.651C408.747 350.515 416.927 345.156 422.025 335.167C431.912 315.734 430.825 304.822 433.402 289.269C434.614 282.067 435.826 278.636 439.626 272.384C443.415 266.132 449.161 263.521 453.695 263.754C459.861 264.056 461.938 267.611 461.938 271.901V368.879C461.938 375.08 461.073 381.27 458.524 385.303C455.947 389.302 452.068 392.181 442.027 392.181H70.2009C60.16 392.181 56.2461 389.302 53.6974 385.303C51.1147 381.27 50.2898 375.08 50.2898 368.879V271.895C50.2841 265.853 53.925 264.346 58.5216 263.754ZM362.166 241.09H399.997C402.842 241.09 404.383 241.71 405.333 242.421C406.312 243.092 407 244.042 407.444 245.914L409.668 254.714H352.535L354.788 245.914C355.265 244.042 355.886 243.092 356.83 242.421C357.78 241.715 359.322 241.09 362.166 241.09ZM112.566 241.09H150.403C153.219 241.09 154.817 241.71 155.762 242.421C156.712 243.092 157.36 244.042 157.838 245.914L160.034 254.714H102.935L105.159 245.914C105.637 244.042 106.291 243.092 107.241 242.421C108.186 241.715 109.722 241.09 112.566 241.09ZM112.566 229.262C107.89 229.262 103.589 230.423 100.21 232.915C96.8363 235.406 94.6404 239.076 93.6676 243.018L90.7321 254.72H83.4105C80.5661 254.72 77.7216 255.903 75.5598 257.741C70.3431 253.85 64.2731 251.847 58.3737 251.933C53.3959 251.984 48.3897 253.554 44.5668 257.024C40.7438 260.517 38.4285 265.887 38.4285 271.895V368.873C38.4285 375.928 39.0827 384.353 43.7419 391.629C48.3613 398.916 57.3725 404.019 70.1952 404.019H442.021C454.821 404.019 463.821 398.922 468.446 391.629C473.099 384.353 473.759 375.928 473.759 368.873V271.895C473.759 265.882 471.45 260.517 467.627 257.024C463.827 253.56 458.826 251.984 453.814 251.933C448.006 251.842 441.993 253.827 436.867 257.593C434.699 255.835 431.912 254.714 429.158 254.714H421.848L418.913 243.012C417.934 239.07 415.733 235.395 412.359 232.909C408.986 230.423 404.691 229.262 400.003 229.262H362.172C357.518 229.262 353.229 230.423 349.85 232.915C346.436 235.406 344.275 239.076 343.296 243.018L340.361 254.72C337.692 254.601 334.825 254.806 332.248 254.862C319.915 255.096 301.961 256.973 290.935 267.964C284.627 274.273 279.825 279.194 274.825 282.328C269.847 285.44 264.693 287.164 256.307 287.164C247.956 287.164 242.825 285.44 237.841 282.328C232.835 279.188 227.982 274.273 221.668 267.964C210.643 256.939 192.631 255.221 180.326 254.828C177.692 254.749 174.911 254.714 172.243 254.714L169.307 243.012C168.306 239.07 166.133 235.395 162.765 232.909C159.357 230.417 155.056 229.257 150.409 229.257L112.566 229.262Z" fill="black"/>
</svg>
