<svg width="1117" height="562" viewBox="0 0 1117 562" fill="none" xmlns="http://www.w3.org/2000/svg">
<g clip-path="url(#clip0_750_24)">
<mask id="mask0_750_24" style="mask-type:luminance" maskUnits="userSpaceOnUse" x="0" y="0" width="1117" height="562">
<path d="M1117 0H0V562H1117V0Z" fill="white"/>
</mask>
<g mask="url(#mask0_750_24)">
<mask id="mask1_750_24" style="mask-type:luminance" maskUnits="userSpaceOnUse" x="0" y="0" width="1117" height="562">
<path d="M1117 562H0V0H1117V562Z" fill="white"/>
</mask>
<g mask="url(#mask1_750_24)">
<path d="M107.184 53.5465C107.184 59.3292 130.354 46.4164 130.354 53.9016C130.354 50.0957 153.211 58.981 153.211 62.2316C153.211 66.3049 170.552 64.8028 170.552 74.9301C170.552 63.2023 191.225 59.0059 191.225 69.6536C191.225 82.4649 206.939 86.4118 206.939 79.9182C206.939 89.7006 223.634 63.8847 223.634 73.0799C223.634 71.8557 241.731 84.9765 241.731 84.6105C241.731 83.7033 257.217 72.2285 257.217 69.6499C257.217 74.3109 274.72 72.2673 274.72 69.8544C274.72 59.238 292.772 68.3767 292.772 62.5092C292.772 65.1193 312.119 63.153 312.119 63.1424C312.119 60.3529 330.504 63.4238 330.504 57.8377C330.504 69.8681 349.152 41.3015 349.152 54.169C349.152 50.7744 365.394 31.8039 365.394 35.6874C365.394 41.9207 385.043 33.32 385.043 38.171C385.043 42.6381 403.881 40.7106 403.881 35.6733C403.881 41.4985 420.53 15.5454 420.53 19.6962C420.53 17.8563 439.378 22.1093 439.378 20.5228C439.378 13.5755 457.378 9.21009 457.378 16.4212C457.378 19.7595 475.636 27.8043 475.636 16.8258C475.636 17.8036 493.725 18.0008 493.725 12.2529C493.725 6.93771 513.441 18.1168 513.441 13.6107C513.441 16.8575 531.721 21.8807 531.721 24.1003C531.721 25.8345 549.214 37.8437 549.214 36.0215C549.214 36.5106 571.32 39.7994 571.32 32.7045C571.32 27.516 588.194 47.3024 588.194 46.9368C588.194 46.3985 602.892 64.2541 602.892 67.9476C602.892 66.678 621.289 79.9532 621.289 77.8884C621.289 79.612 641.702 74.8 641.702 79.3167C641.702 82.106 661.455 80.0904 661.455 79.57C661.455 79.3517 680.36 94.344 680.36 97.1194C680.36 98.6881 699.595 106.023 699.595 103.444C699.595 103.761 720.484 97.5521 720.484 101.013C720.484 104.01 733.387 122.763 733.387 124.336C733.387 128.954 752.386 131.687 752.386 131.986C752.386 127.065 772.417 136.425 772.417 134.649C772.417 130.938 791.845 129.425 791.845 128.06C791.845 126.154 811.853 137.625 811.853 137.66C811.853 141.702 829.141 123.087 829.141 123.175C829.141 122.692 850.604 114.078 850.604 121.577C850.604 123.463 865.983 104.232 865.983 102.185C865.983 94.2911 883.612 80.182 883.612 89.1696C883.612 77.6705 899.238 96.5671 899.238 95.3815C899.238 95.3217 916.109 90.1652 916.109 94.3404C916.109 92.4689 933.187 95.4484 933.187 92.1665C933.187 84.0091 952.533 104.622 952.533 108.998C952.533 111.89 972.525 86.6577 972.525 100.929C972.525 113.758 991.555 97.5238 991.555 91.7654C991.555 95.0015 1011.85 86.788 1011.85 89.3243C1011.85 94.1432 1029.43 81.575 1029.43 78.0749C1029.43 82.1446 1048.38 69.1927 1048.38 73.312C1048.38 80.0447 1065.11 46.0959 1065.11 55.0131C1065.11 53.8103 1083.96 53.0856 1083.96 48.6884C1083.96 62.2209 1103.62 51.8967 1103.62 48.2101C1103.62 47.9392 1124.03 56.3817 1124.03 53.9508C1124.03 47.6542 1142.48 38.0725 1142.48 45.1956C1142.48 43.9749 1156.3 44.1228 1156.3 48.7519C1156.3 50.1694 1168.19 67.3917 1168.19 60.5219C1168.19 59.1499 1175.01 81.0436 1175.01 82.9573C1175.01 83.4887 1182.47 111.932 1182.47 108.432C1182.47 107.394 1178.02 136.629 1178.02 133.886C1178.02 129.035 1183.64 158.79 1183.64 158.059C1183.64 157.317 1183.36 180.881 1183.36 183.284C1183.36 184.684 1196.38 202.619 1196.38 205.315C1196.38 204.801 1193.68 231.16 1193.68 231.16L1197.77 255.314L1196.54 280.621L1209.23 303.287L1204.47 328.963L1199.96 353.735L1211.41 378.924L1207.67 403.915L1201.12 427.752L1197.14 452.414L1181.97 472.317L1178.98 500.493L1162.37 518.255L1159.92 546.906L1143.98 566.562L1137.09 588.451L1132.87 612.733L1113.18 615.361L1094.58 628.367L1075.63 618.237L1057.14 631.243L1038.39 631.516L1019.64 631.561L1000.78 625.922L982.207 635.14L963.437 634.246L944.755 637.917L925.971 636.29L906.982 623.806L888.306 627.732L869.702 635.579L850.961 636.177L832.119 631.06L813.41 633.385L794.622 631.149L775.96 636.224L757.329 643.563L738.421 633.707L719.839 644.374L700.942 634.738L682.157 632.16L663.59 644.884L644.652 631.017L626.012 639.057L607.356 646.446L588.534 640.122L569.751 636.837L551.003 636.221L532.275 637.827L513.646 650.474L494.888 650.085L476.079 642.037L457.286 634.757L438.581 640.548L419.88 648.757L401.137 649.978L382.341 636.651L363.62 644.209L344.876 644.289L326.129 644.169L307.385 639.012L288.629 651.986L269.91 637.534L251.168 638.592L232.384 648.698L213.641 647.534L194.939 640.377L176.174 643.088L157.413 644.745L138.747 636.484L119.926 643.727L102.279 640.973L84.5362 641.428L66.7883 640.188L50.5581 626.736L32.4767 627.845L15.1737 622.237L-1.11588 612.234L-13.0616 593.749L-28.8418 581.371L-41.8581 563.526L-46.6932 539.344L-50.8767 515.826L-48.0714 490.896L-52.4256 467.937L-51.9937 444.126L-52.4281 420.329L-55.3861 395.436L-59.1716 370.571L-61.1289 345.587L-62.3545 320.552L-63.0449 295.482L-65.4521 270.366L-54.6312 245.556L-56.697 220.522L-56.4825 195.54L-52.4954 170.969L-61.1263 144.537L-58.5769 119.502C-58.5769 119.502 -51.8129 89.6618 -51.8129 90.5377C-51.8129 89.3137 -39.8413 63.846 -39.8413 66.3857C-39.8413 66.6145 -23.4042 48.7938 -23.4042 54.1374C-23.4042 54.7317 -6.49404 62.9385 -6.49404 65.6083C-6.49404 70.4381 12.3372 72.7596 12.3372 72.7282C12.3372 64.6375 31.4839 60.6379 31.4839 65.3445C31.4839 64.3139 50.3411 61.6476 50.3411 62.4318C50.3411 53.4866 69.5368 76.0275 69.5368 65.8334C69.5368 72.306 88.0682 54.3201 88.0682 55.4846C88.0682 58.8406 107.184 58.2144 107.184 53.5465Z" fill="white"/>
</g>
<mask id="mask2_750_24" style="mask-type:luminance" maskUnits="userSpaceOnUse" x="0" y="0" width="1117" height="562">
<path d="M1117 562H0V0H1117V562Z" fill="white"/>
</mask>
<g mask="url(#mask2_750_24)">
<path d="M56.3915 94.4263C56.3915 94.0246 73.5866 77.1329 73.5866 85.55C73.5866 80.9396 91.8938 94.2574 91.8938 82.8189C91.8938 76.9288 108.918 70.3082 108.918 76.6162C108.918 79.7174 126.341 72.1235 126.341 81.0001C126.341 78.6867 143.401 84.299 143.401 88.779C143.401 84.7585 161.08 91.3952 161.08 98.1501C161.08 101.832 181.874 89.6403 181.874 92.7452C181.874 83.3835 199.864 93.5906 199.864 98.622C199.864 97.4798 218.109 98.8647 218.109 107.068C218.109 106.558 237.632 113.995 237.632 113.634C237.632 111.178 256.907 107.773 256.907 107.993C256.907 114.282 272.753 98.7659 272.753 100.642C272.753 98.4021 289.262 93.0003 289.262 96.6058C289.262 94.4712 302.718 83.2335 302.718 82.8189C302.718 83.8367 321.107 73.8627 321.107 75.8088C321.107 74.9312 338.237 65.2093 338.237 62.3443C338.237 69.2072 357.196 58.7259 357.196 57.0253C357.196 52.0414 377.505 59.5298 377.505 60.9943C377.505 68.1383 395.683 41.0207 395.683 51.4479C395.683 51.6042 415.511 57.3538 415.511 53.8026C415.511 49.9452 434.345 52.7465 434.345 50.4652C434.345 49.189 452.326 32.8973 452.326 37.9385C452.326 37.3896 471.869 39.5595 471.869 40.7207C471.869 51.8213 490.969 49.8112 490.969 48.0307C490.969 52.1147 510.978 37.4089 510.978 38.9117C510.978 36.1071 529.593 51.1703 529.593 47.2618C529.593 50.1908 549.047 48.9497 549.047 49.7536C549.047 46.9779 567.382 59.0449 567.382 57.727C567.382 61.3743 583.972 75.8407 583.972 71.0833C583.972 68.8849 600.702 83.5846 600.702 82.9017C600.702 81.4756 618.723 84.8991 618.723 90.9136C618.723 88.5525 639.029 95.6613 639.029 93.6129C639.029 93.7342 651.067 113.667 651.067 116.516C651.067 110.45 669.402 118.746 669.402 124.259C669.402 121.212 686.01 133.082 686.01 136.078C686.01 140.602 704.464 132.686 704.464 134.31C704.464 131.343 717.316 151.84 717.316 144.524C717.316 151.61 731.954 146.674 731.954 146.109C731.954 145.787 751.113 153.936 751.113 157.404C751.113 158.237 766.725 139.259 766.725 139.208C766.725 136.113 785.278 131.521 785.278 134.045C785.278 138.822 804.564 142.868 804.564 138.898C804.564 141.001 823.186 136.901 823.186 139.026C823.186 145.082 840.703 141.445 840.703 142.957C840.703 137.906 855.752 143.534 855.752 138.57C855.752 134.431 862.459 118.647 862.459 119.726C862.459 121.602 884.204 126.547 884.204 119.898C884.204 116.614 902.343 102.748 902.343 103.6C902.343 105.817 922.715 113.433 922.715 107.582C922.715 105.801 942.496 114.416 942.496 112.779C942.496 108.577 962.459 110.804 962.459 117.38C962.459 115.434 981.596 127.552 981.596 120.625C981.596 126.63 998.689 105.505 998.689 105.294C998.689 102.997 1016.13 109.11 1016.13 98.0893C1016.13 104.33 1036.19 97.5885 1036.19 102.914C1036.19 100.862 1052.34 84.6823 1052.34 89.1808C1052.34 80.3589 1072.61 98.447 1072.61 94.3275C1072.61 112.234 1089.78 93.3735 1089.78 85.668C1089.78 87.9367 1106.45 77.5477 1106.45 70.2094C1106.45 70.9622 1125.75 74.3955 1125.75 75.595C1125.75 72.0151 1146.03 68.5978 1146.03 73.2022C1146.03 77.8 1150.22 97.9426 1150.22 97.6075C1150.22 101.245 1156.53 116.028 1156.53 119.454C1156.53 114.139 1151.61 144.54 1151.61 143.713C1151.61 143.123 1154.6 167.299 1154.6 166.128C1154.6 168.846 1162.49 186.337 1162.49 188.035C1162.49 184.774 1157.43 211.406 1157.43 211.406L1160.73 233.987L1158.29 256.775L1160 279.538L1158.82 302.252L1157.32 324.928L1163.54 348.814L1152.78 370.081L1151.76 392.991L1145.86 414.766L1145.93 438.25L1137.41 459.074L1137.05 482.852L1131.6 504.848L1118.44 523.163L1119.61 548.542L1102.6 563.3L1099.05 589.03L1082.45 597.982L1065.65 601.723L1049.39 606.189L1030.24 605.437L1011.21 603.602L992.582 609.197L973.658 608.693L954.797 616.78L935.829 607.884L916.862 616.011L898.292 612.796L879.707 613.314L861.158 605.248L842.539 614.751L823.954 616.291L805.397 610.212L786.806 612.752L768.249 606.033L749.666 606.624L731.096 604.153L712.484 611.748L693.902 612.376L675.349 604.905L656.766 604.771L638.144 615.193L619.572 613.039L600.981 615.211L582.441 604.759L563.858 605.573L545.252 612.248L526.686 608.004L508.124 603.621L489.77 611.087L471.436 614.386L453.11 607.752L434.811 613.351L416.368 603.116L398.049 606.537L379.836 612.035L361.57 613.984L342.848 606.683L325.312 621.262L306.545 615.67L288.797 622.886L270.524 624.029L252.399 626.976L233.859 624.728L216.195 635.947L197.635 632.713L179.225 635.462L160.84 632.523L140.314 628.499L119.839 624.768L99.4041 620.813L79.9875 611.106L62.9631 607.734L45.892 604.628L27.996 606.259L11.4268 600.256L-5.54329 596.562L-25.6374 572.591L-35.9976 549.001L-38.356 525.451L-34.7432 501.487L-35.7386 477.863L-38.8526 454.345L-42.7367 430.805L-34.3422 406.855L-45.7986 383.456L-38.4851 359.656L-38.7336 336.003L-46.541 312.284L-34.2335 288.322L-35.8292 264.213L-42.8221 239.871L-42.7289 215.71L-32.1907 192.113C-32.1907 192.113 -35.0096 165.059 -35.0096 168.294C-35.0096 167.599 -33.657 146.476 -33.657 144.913C-33.657 143.614 -42.7987 122.093 -42.7987 121.206C-42.7987 122.122 -40.3241 91.7496 -40.3241 97.4803C-40.3241 94.7486 -31.1432 74.124 -31.1432 75.4895C-31.1432 79.7684 -12.5284 87.5157 -12.5284 86.9124C-12.5284 87.3813 7.28642 94.9563 7.28642 100.115C7.28642 101.529 24.2411 94.3179 24.2411 96.9886C24.2411 97.6619 40.4224 103.995 40.4224 98.2619C40.4327 100.569 56.3915 100.834 56.3915 94.4263Z" fill="#0C7785"/>
</g>
</g>
</g>
<defs>
<clipPath id="clip0_750_24">
<rect width="1117" height="562" fill="white"/>
</clipPath>
</defs>
</svg>
