<svg width="36" height="41" viewBox="0 0 36 41" fill="none" xmlns="http://www.w3.org/2000/svg">
<path d="M34.698 6.05098C33.5371 6.84919 17.7319 12.7908 9.25782 18.6177L3.80186 22.3693C1.48016 23.9657 0.453359 20.4492 2.19462 19.2519C3.47155 18.3739 7.79349 13.6427 20.152 6.2005C27.5879 1.72261 32.5462 -0.562397 35.0821 1.91628C36.6646 3.4631 35.8589 5.25277 34.698 6.05098Z" fill="#137785"/>
<path d="M28.5827 26.9786C27.6318 27.2119 15.5469 26.3471 8.60519 28.0499L4.13589 29.1462C2.23407 29.6127 2.13186 26.3556 3.55825 26.0057C4.60424 25.7491 8.45248 23.4376 18.3913 21.8201C24.3714 20.8469 28.2363 20.7729 29.5747 23.7266C30.4099 25.5699 29.5336 26.7454 28.5827 26.9786Z" fill="#137785"/>
<path d="M19.3668 40.8964C18.6592 40.8523 10.3297 36.8782 5.16465 36.5562L1.83921 36.3489C0.424136 36.2607 0.915815 33.33 1.97712 33.3962C2.75541 33.4447 5.8553 32.4042 13.1085 33.5966C17.4726 34.3141 20.1971 35.2725 20.6253 38.2604C20.8924 40.125 20.0743 40.9405 19.3668 40.8964Z" fill="#137785"/>
</svg>
