<svg width="36" height="41" viewBox="0 0 36 41" fill="none" xmlns="http://www.w3.org/2000/svg">
<g clip-path="url(#clip0_3572_3259)">
<path d="M34.698 6.05127C33.5371 6.84948 17.7319 12.7911 9.25782 18.618L3.80186 22.3696C1.48016 23.966 0.453359 20.4495 2.19462 19.2522C3.47155 18.3742 7.79349 13.643 20.152 6.20079C27.5879 1.7229 32.5462 -0.562106 35.0821 1.91657C36.6646 3.46339 35.8589 5.25306 34.698 6.05127Z" fill="black"/>
<path d="M28.5827 26.9805C27.6318 27.2138 15.5469 26.349 8.60519 28.0518L4.13589 29.1481C2.23407 29.6146 2.13186 26.3575 3.55825 26.0076C4.60424 25.751 8.45248 23.4395 18.3913 21.822C24.3714 20.8488 28.2363 20.7748 29.5747 23.7285C30.4099 25.5718 29.5336 26.7473 28.5827 26.9805Z" fill="black"/>
<path d="M19.3668 40.898C18.6592 40.8539 10.3297 36.8798 5.16465 36.5578L1.83921 36.3505C0.424136 36.2623 0.915815 33.3316 1.97712 33.3978C2.75541 33.4463 5.8553 32.4058 13.1085 33.5982C17.4726 34.3157 20.1971 35.2741 20.6253 38.262C20.8924 40.1266 20.0743 40.9421 19.3668 40.898Z" fill="black"/>
</g>
<defs>
<clipPath id="clip0_3572_3259">
<rect width="36" height="41" fill="white"/>
</clipPath>
</defs>
</svg>
