<svg width="512" height="512" viewBox="0 0 512 512" fill="none" xmlns="http://www.w3.org/2000/svg">
<path d="M256.138 122.948C259.004 122.948 261.328 120.625 261.328 117.759C261.328 114.893 259.004 112.57 256.138 112.57C253.272 112.57 250.949 114.893 250.949 117.759C250.949 120.625 253.272 122.948 256.138 122.948Z" fill="black"/>
<path d="M436.238 442.254C407.732 413.955 371.684 414.37 370.301 414.44H360.615C352.589 414.44 345.323 418.937 341.656 426.133C329.271 450.556 311.697 466.954 297.929 466.954C289.349 466.954 278.763 463.771 273.09 438.656C272.186 434.802 270.006 431.366 266.904 428.907C263.801 426.448 259.959 425.11 256 425.11C252.041 425.11 248.199 426.448 245.096 428.907C241.994 431.366 239.814 434.802 238.91 438.656C233.306 463.702 222.72 466.954 214.071 466.954C200.303 466.954 182.729 450.556 170.344 426.133C168.576 422.62 165.868 419.666 162.52 417.602C159.173 415.537 155.319 414.443 151.386 414.44H141.838C140.316 414.44 104.268 413.886 75.7627 442.254C73.7562 444.26 73.7562 447.581 75.7627 449.588C77.7692 451.594 81.0903 451.594 83.0967 449.588C108.35 424.541 141.354 424.887 141.699 424.818H151.386C155.468 424.818 159.204 427.101 161.072 430.837C175.602 459.551 195.944 477.402 214.071 477.402C232.061 477.402 243.477 465.501 249.012 441.008C249.704 437.825 252.679 435.542 256 435.542C259.321 435.542 262.227 437.825 262.988 441.008C268.523 465.501 279.94 477.402 297.929 477.402C316.056 477.402 336.398 459.551 350.928 430.837C352.796 427.101 356.533 424.818 360.615 424.818H370.439C370.785 424.818 403.719 424.472 428.973 449.588C430.98 451.594 434.301 451.594 436.307 449.588C438.314 447.581 438.244 444.26 436.238 442.254Z" fill="black"/>
<path d="M124.955 242.161C121.495 267.83 130.836 293.361 149.863 310.589C158.235 318.131 163.009 328.717 163.078 339.51V353.417C163.078 404.686 194.836 449.659 214.001 449.659C226.732 449.659 233.858 414.857 235.035 346.083C235.035 343.333 235.577 340.61 236.632 338.071C237.686 335.531 239.232 333.225 241.179 331.283C243.127 329.342 245.438 327.805 247.982 326.759C250.525 325.713 253.249 325.179 255.999 325.188C258.749 325.188 261.472 325.731 264.011 326.785C266.551 327.839 268.857 329.385 270.799 331.332C272.74 333.28 274.278 335.592 275.324 338.135C276.37 340.678 276.903 343.402 276.894 346.152C278.07 414.788 285.197 449.659 297.928 449.659C317.093 449.659 348.851 404.686 348.851 353.417V339.51C348.92 328.717 353.694 318.2 361.997 310.658C381.093 293.361 390.434 267.692 386.974 241.953C382.684 209.988 358.122 183.558 326.78 176.846C320.207 158.788 309.275 140.73 298.827 124.816C304.224 120.042 309.69 115.268 315.087 110.563C340.41 88.4918 366.563 65.5901 385.936 43.1036C387.804 40.9588 387.528 37.6377 385.383 35.7696C383.238 33.9015 379.917 34.1783 378.049 36.3232C359.16 58.2561 333.283 80.881 308.237 102.745C250.948 152.768 191.791 204.384 206.875 255.791C167.714 209.919 199.817 162.524 233.789 112.5C249.564 89.2529 265.824 65.2442 274.334 41.4431C274.589 40.7976 274.711 40.1077 274.694 39.4141C274.677 38.7205 274.521 38.0373 274.236 37.4049C273.95 36.7726 273.541 36.204 273.031 35.7327C272.522 35.2614 271.924 34.8969 271.271 34.6609C270.619 34.425 269.926 34.3222 269.233 34.3587C268.54 34.3953 267.862 34.5705 267.238 34.8739C266.614 35.1772 266.057 35.6026 265.6 36.1248C265.143 36.6471 264.796 37.2557 264.579 37.9145C262.364 44.4875 259.389 50.9912 255.999 57.495C252.332 50.4377 249.495 44.1415 247.35 38.0528C246.382 35.3544 243.407 33.9016 240.708 34.8702C238.01 35.8389 236.626 38.814 237.595 41.5124C240.501 49.7459 244.583 58.3944 250.049 68.2885C242.576 81.1577 233.859 94.027 225.279 106.688C223.134 109.802 220.989 112.985 218.914 116.167C213.586 111.463 208.258 106.758 202.931 102.122C178.161 80.4659 152.63 58.1178 133.88 36.3923C132.977 35.3533 131.7 34.7125 130.327 34.6088C128.954 34.5052 127.595 34.9471 126.546 35.8387C124.401 37.7069 124.124 40.9588 125.993 43.1729C145.158 65.4518 171.035 88.0767 196.081 109.94L213.102 124.885C201.755 142.113 191.446 159.48 185.011 176.916C153.668 183.834 129.175 210.265 124.955 242.161ZM315.087 175.186C303.809 174.425 292.739 176.224 282.499 180.098C277.171 173.179 270.806 165.845 263.264 157.958C271.982 149.24 281.322 140.591 291.009 131.873C299.865 145.365 308.929 160.31 315.087 175.186ZM256.068 196.773C251.087 191.999 245.344 187.917 239.186 184.596C244.237 178.23 249.91 171.796 255.999 165.361C262.503 172.211 268.107 178.507 272.812 184.457C266.793 187.778 261.119 191.86 256.068 196.773ZM206.252 270.252C217.945 281.599 221.958 266.031 219.675 260.081C211.095 238.01 216.907 215.938 232.959 193.037C240.224 196.773 246.866 201.685 252.263 207.705C252.332 207.774 252.47 207.843 252.54 207.912C263.597 220.254 269.708 236.245 269.698 252.816C269.698 255.653 272.051 258.005 274.888 258.005C277.724 258.005 280.077 255.653 280.077 252.816C280.077 235.173 274.057 218.221 263.126 204.522C278.624 189.231 300.488 182.451 322.628 186.602C350.65 191.722 372.86 215.108 376.665 243.406C379.709 266.1 371.822 287.826 355.009 302.978C344.561 312.457 338.473 325.741 338.403 339.51V353.417C338.403 401.573 308.721 437.62 298.55 439.212C292.669 432.916 287.964 386.49 287.203 346.083C287.185 337.782 283.875 329.828 277.999 323.965C272.123 318.102 264.161 314.81 255.861 314.81C238.633 314.81 224.587 328.855 224.587 346.014C223.895 386.559 219.19 432.985 213.24 439.281C203.069 437.69 173.387 401.642 173.387 353.486V339.579C173.318 325.811 167.229 312.457 156.713 302.978C140.246 288.103 132.15 265.962 135.126 243.614C138.516 218.083 156.989 196.565 181.206 188.747C174.356 216.007 178.646 243.406 206.252 270.252Z" fill="black"/>
<path d="M318.339 210.406C336.19 213.658 350.305 228.534 352.727 246.592C353.834 255.102 352.588 263.613 348.99 271.223C348.623 272.016 348.46 272.888 348.517 273.759C348.575 274.631 348.85 275.474 349.319 276.211C349.787 276.948 350.434 277.556 351.198 277.978C351.963 278.4 352.822 278.623 353.695 278.627C355.632 278.627 357.501 277.52 358.4 275.652C362.828 266.242 364.419 255.725 362.967 245.278C359.991 222.791 342.348 204.318 320.138 200.235C317.302 199.682 314.603 201.619 314.119 204.387C313.635 207.223 315.503 209.922 318.339 210.406Z" fill="black"/>
</svg>
