<svg width="512" height="512" viewBox="0 0 512 512" fill="none" xmlns="http://www.w3.org/2000/svg">
<path d="M461.212 300.185C435.818 298.549 411.316 290.19 390.217 275.966C390.09 274.336 389.957 272.709 389.821 271.061C389.615 268.554 389.403 265.979 389.202 263.238C387.736 243.221 390.173 225.247 396.447 209.812C420.439 157.31 435.888 80.3479 400.541 36.0229C384.715 16.1779 361.029 5.13395 332.044 4.08495C311.289 3.32995 296.954 7.55195 280.356 12.438C276.786 13.4979 273.208 14.5309 269.622 15.537C265.558 16.669 260.766 17.825 256.034 17.825C251.302 17.825 246.513 16.669 242.449 15.538C238.864 14.5321 235.286 13.499 231.716 12.439C215.117 7.55295 200.779 3.33095 180.024 4.08495C151.039 5.13395 127.354 16.1779 111.528 36.0229C91.573 61.0469 85.846 97.073 94.506 143.1C98.796 165.9 106.096 188.964 115.621 209.809C122.833 227.55 124.959 248.625 121.941 272.455L121.822 273.397C121.803 273.542 121.79 273.687 121.78 273.833L121.72 274.783C121.693 275.209 121.675 275.63 121.649 276.055C100.579 290.225 76.1262 298.551 50.787 300.184C24.551 301.872 3.99899 323.789 3.99899 350.079V467.236C3.99899 489.713 22.286 507.999 44.762 507.999H467.236C489.713 507.999 507.999 489.712 507.999 467.236V350.079C507.999 323.789 487.447 301.873 461.211 300.184L461.212 300.185ZM108.264 140.513C102.851 111.744 100.922 71.779 122.473 44.754C139.152 23.839 163.251 18.7029 180.531 18.0779C199.005 17.4069 211.7 21.143 227.763 25.871C231.399 26.9502 235.044 28.0026 238.696 29.028C243.671 30.412 249.621 31.827 256.034 31.827C262.447 31.827 268.401 30.4109 273.376 29.0259C277.028 28.0012 280.672 26.9492 284.308 25.87C300.37 21.143 313.056 17.4109 331.537 18.0779C348.817 18.7029 372.916 23.839 389.595 44.754C404.018 62.841 409.709 88.813 406.51 121.949C404.003 147.91 395.673 177.861 383.655 204.122C383.615 204.21 383.576 204.299 383.54 204.389C376.403 221.87 373.611 242.014 375.24 264.262C375.444 267.046 375.659 269.662 375.868 272.209C376.428 279.026 376.957 285.466 377.086 293.276C377.471 316.599 375.491 338.464 371.201 358.263C363.815 392.354 354.449 415.139 342.567 427.92C334.715 436.364 324.736 441.054 314.468 441.126H314.222C314.168 441.126 314.116 441.12 314.063 441.12C315.548 435.765 317.419 430.302 319.54 424.157C323.514 422.973 327.352 420.501 330.691 416.91C342.79 403.897 350.787 375.973 355.365 354.84C360.386 331.657 362.016 305.36 360.207 276.685C360.198 276.538 360.184 276.392 360.165 276.247C356.453 246.938 359.336 220.546 368.734 197.799C384.109 164.362 403.871 97.8979 380.688 60.209C370.598 43.805 353.853 35.0669 330.919 34.2369C313.499 33.6089 299.661 37.9369 287.448 41.7579C277.035 45.0149 267.178 48.081 256.059 47.997H255.939C244.792 48.101 234.962 45.0149 224.55 41.7579C212.337 37.9369 198.496 33.6059 181.079 34.2369C158.145 35.0669 141.4 43.805 131.31 60.209C108.127 97.8979 127.889 164.362 143.265 197.799C152.663 220.547 155.546 246.938 151.835 276.247C151.817 276.392 151.803 276.539 151.793 276.685C149.983 305.362 151.611 331.657 156.634 354.84C161.212 375.973 169.209 403.897 181.308 416.911C184.647 420.502 188.485 422.974 192.459 424.158C194.579 430.301 196.449 435.763 197.934 441.116C197.822 441.116 197.712 441.127 197.6 441.126C187.332 441.055 177.353 436.365 169.502 427.92C157.62 415.141 148.253 392.356 140.867 358.263C135.529 333.62 133.787 305.83 135.691 275.668L135.829 274.215C139.161 247.907 136.704 224.414 128.528 204.388C128.491 204.298 128.453 204.209 128.413 204.121C119.454 184.541 112.298 161.951 108.264 140.512V140.513ZM282.576 419.646C278.133 409.902 277.348 395.889 276.657 383.526C276.492 380.583 276.336 377.803 276.136 375.093C274.906 358.417 272.977 338.776 267.998 319.54C265.39 309.471 263.33 301.517 256.035 301.518C248.74 301.518 246.68 309.471 244.072 319.541C239.093 338.774 237.164 358.416 235.934 375.094C235.734 377.802 235.579 380.579 235.414 383.52C234.722 395.885 233.938 409.9 229.495 419.645C225.553 428.293 219.253 434.67 211.634 438.141C210.243 433.012 208.553 427.915 206.688 422.478C210.027 420.44 212.805 417.199 214.748 412.938C217.636 406.603 218.196 397.885 219.044 384.69C219.255 381.405 219.485 377.818 219.774 373.904C221.122 355.632 223.099 335.909 228.384 315.49C237.817 279.048 249.544 258.817 256 257.9C262.457 258.817 274.185 279.048 283.616 315.49C288.901 335.909 290.878 355.632 292.226 373.904C292.515 377.818 292.745 381.404 292.956 384.689C293.804 397.885 294.364 406.603 297.253 412.939C299.195 417.2 301.973 420.442 305.312 422.48C303.449 427.911 301.761 433.002 300.371 438.125C292.779 434.647 286.509 428.273 282.576 419.648V419.646ZM297.473 452.045C295.905 463.335 296.085 476.219 299.103 493.999H212.896C215.912 476.231 216.094 463.353 214.529 452.069C226.459 447.538 236.429 438.182 242.233 425.452C247.768 413.31 248.63 397.899 249.392 384.302C249.553 381.425 249.705 378.707 249.895 376.123C250.936 362.018 252.486 345.745 256.035 329.689C259.583 345.747 261.133 362.017 262.174 376.123C262.365 378.709 262.517 381.429 262.678 384.308C263.439 397.904 264.302 413.313 269.837 425.453C275.63 438.159 285.572 447.504 297.472 452.045H297.473ZM156.149 192.316C156.114 192.232 156.078 192.149 156.04 192.067C140.651 158.662 124.542 97.9329 143.236 67.5429C150.825 55.2039 163.37 48.886 181.587 48.226C196.601 47.686 208.687 51.462 220.371 55.118C231.342 58.55 242.679 62.0879 256 61.9959C269.281 62.0939 280.659 58.55 291.629 55.118C303.313 51.463 315.4 47.683 330.413 48.226C348.63 48.886 361.174 55.2039 368.764 67.5429C387.458 97.9329 371.349 158.662 355.96 192.067C355.922 192.149 355.886 192.232 355.852 192.316C345.494 217.311 342.263 246.064 346.248 277.782C347.955 305.085 346.419 330.012 341.682 351.876C337.331 371.961 331.942 388.279 326.329 398.718C333.912 355.341 324.999 303.039 315.2 254.178C314.028 248.352 312.845 242.528 311.651 236.707C309.485 226.114 307.385 215.842 305.495 205.936C306.124 197.885 311.409 190.626 318.281 188.503C324.285 186.646 330.274 189.215 335.142 195.735C335.692 196.472 336.381 197.093 337.171 197.563C337.961 198.033 338.836 198.343 339.746 198.475C340.655 198.607 341.582 198.559 342.473 198.332C343.364 198.106 344.202 197.706 344.938 197.156C345.675 196.606 346.296 195.916 346.766 195.127C347.236 194.337 347.546 193.462 347.677 192.552C347.809 191.643 347.761 190.716 347.535 189.825C347.308 188.934 346.909 188.096 346.359 187.36C337.931 176.071 325.89 171.498 314.147 175.127C309.33 176.616 305.001 179.357 301.448 182.964L301.3 182.021C297.497 157.566 308.121 148.702 320.422 138.438C332.969 127.968 347.191 116.101 343.684 88.539C343.568 87.6271 343.273 86.747 342.817 85.9489C342.361 85.1508 341.752 84.4504 341.025 83.8877C340.298 83.325 339.468 82.911 338.581 82.6692C337.694 82.4275 336.768 82.3629 335.856 82.479C334.944 82.595 334.064 82.8896 333.266 83.3458C332.468 83.802 331.767 84.411 331.205 85.1379C330.642 85.8648 330.228 86.6954 329.986 87.5823C329.745 88.4692 329.68 89.3951 329.796 90.307C332.336 110.265 323.12 117.954 311.453 127.689C310.073 128.841 308.657 130.023 307.234 131.254C291.963 99.34 269.376 84.765 239.994 87.898C239.08 87.9956 238.194 88.2723 237.387 88.7123C236.58 89.1523 235.867 89.747 235.29 90.4624C234.713 91.1778 234.282 91.9998 234.022 92.8817C233.763 93.7635 233.679 94.6879 233.777 95.602C233.875 96.516 234.151 97.4019 234.591 98.209C235.031 99.0162 235.626 99.7287 236.341 100.306C237.057 100.883 237.879 101.314 238.761 101.574C239.643 101.833 240.567 101.917 241.481 101.819C265.902 99.207 284.009 112.351 296.723 141.965C289.373 151.35 284.35 164.124 287.468 184.173C288.648 191.762 290.037 199.578 291.563 207.613L291.597 207.79C292.626 213.185 293.684 218.574 294.771 223.957C286.611 218.356 278.344 216.522 273.546 215.928C273.507 215.923 273.469 215.919 273.43 215.915C266.976 215.225 265.995 214.159 266.752 201.046C267.466 188.662 268.661 167.935 240.919 161.369C240.024 161.157 239.097 161.123 238.189 161.269C237.282 161.416 236.412 161.74 235.629 162.222C234.847 162.705 234.168 163.338 233.63 164.083C233.092 164.829 232.706 165.673 232.495 166.568C232.067 168.374 232.375 170.277 233.35 171.857C234.325 173.436 235.888 174.564 237.694 174.992C253.281 178.681 253.585 186.187 252.775 200.241C252.429 206.233 252.072 212.429 254.164 217.839C256.86 224.812 262.82 228.845 271.879 229.83C282.05 231.105 295.4 236.887 301.511 257.128C311.933 309.126 321.308 364.927 310.14 407.433C310.09 407.331 310.039 407.239 309.99 407.132C308.169 403.138 307.648 395.023 306.926 383.792C306.712 380.467 306.479 376.836 306.187 372.875C304.791 353.95 302.731 333.475 297.168 311.984C295.136 304.13 290.829 288.872 284.824 274.921C276.036 254.504 266.71 244.354 256.313 243.887C256.104 243.877 255.894 243.877 255.685 243.887C245.288 244.354 235.962 254.505 227.174 274.921C221.171 288.87 216.863 304.129 214.83 311.984C209.267 333.475 207.207 353.95 205.811 372.875C205.519 376.837 205.286 380.468 205.072 383.794C204.35 395.024 203.829 403.139 202.009 407.132C201.93 407.305 201.847 407.458 201.765 407.62C189.101 365.087 195.772 334.156 204.812 292.292C207.889 278.043 211.062 263.351 213.796 246.698C214.052 245.138 214.302 243.576 214.545 242.014C219.345 211.147 213.686 191.49 204.525 175.942C196.682 156.922 195.827 141.502 202.195 133.562C208.108 126.19 218.759 126.849 224.581 127.896C226.403 128.213 228.277 127.797 229.793 126.737C231.309 125.678 232.344 124.061 232.672 122.241C233 120.421 232.594 118.545 231.543 117.022C230.492 115.5 228.881 114.456 227.063 114.118C211.946 111.397 198.903 115.29 191.274 124.803C187.324 129.727 183.829 137.288 183.9 148.595C171.448 133.282 160.699 117.365 162.001 87.48C162.082 85.6253 161.423 83.8145 160.168 82.4459C158.914 81.0773 157.168 80.2629 155.313 80.182C151.459 80.019 148.184 83.008 148.015 86.87C146.345 125.216 162.634 144.889 177.005 162.246C189.817 177.719 202.041 192.482 202.255 220.463C196.733 215.585 189.736 212.717 182.353 212.963C180.498 213.025 178.743 213.822 177.475 215.178C176.207 216.534 175.53 218.339 175.592 220.194C175.722 224.058 178.964 227.07 182.823 226.955C191.264 226.652 199.137 235.057 199.878 245.054C197.22 261.121 194.128 275.443 191.128 289.338C183.023 326.871 176.353 357.82 184.488 396.433C179.302 385.968 174.361 370.549 170.316 351.878C165.579 330.015 164.044 305.089 165.751 277.786C169.736 246.067 166.505 217.312 156.147 192.318L156.149 192.316ZM18 467.237V350.08C18 331.152 32.797 315.372 51.688 314.156C76.1243 312.579 99.8566 305.327 121 292.975C120.606 317.5 122.674 340.393 127.187 361.227C135.121 397.846 145.609 422.78 159.251 437.453C169.755 448.75 183.341 455.026 197.504 455.124L197.839 455.125C198.836 455.125 199.827 455.087 200.812 455.025C202.145 465.417 201.731 477.178 198.687 493.998H44.763C30.006 493.998 18 481.992 18 467.235V467.237ZM494 467.237C494 481.994 481.994 494 467.237 494H313.313C310.268 477.178 309.855 465.415 311.188 455.023C312.201 455.09 313.215 455.124 314.23 455.127L314.566 455.126C328.73 455.028 342.315 448.752 352.82 437.454C366.463 422.78 376.951 397.847 384.884 361.228C389.401 340.381 391.487 317.441 391.085 293.046V293.025C412.208 305.347 435.909 312.582 460.313 314.156C479.203 315.372 494.001 331.152 494.001 350.08V467.237H494Z" fill="black"/>
</svg>
