<svg width="2503" height="1218" viewBox="0 0 2503 1218" fill="none" xmlns="http://www.w3.org/2000/svg">
<g clip-path="url(#clip0_4614_3932)">
<path d="M2034.79 130.887C2041.1 104.187 2024.57 77.4306 1997.86 71.1259C1971.16 64.8211 1944.41 81.3552 1938.1 108.056C1931.8 134.756 1948.33 161.512 1975.03 167.817C2001.73 174.122 2028.49 157.588 2034.79 130.887Z" fill="#D5F1F7"/>
<path d="M2128.75 374.374C2140.48 374.374 2149.98 364.867 2149.98 353.138C2149.98 341.41 2140.48 331.902 2128.75 331.902C2117.02 331.902 2107.51 341.41 2107.51 353.138C2107.51 364.867 2117.02 374.374 2128.75 374.374Z" fill="#D5F1F7"/>
<path d="M2416.25 516.663C2435.87 516.663 2451.77 500.762 2451.77 481.148C2451.77 461.533 2435.87 445.633 2416.25 445.633C2396.64 445.633 2380.74 461.533 2380.74 481.148C2380.74 500.762 2396.64 516.663 2416.25 516.663Z" fill="#D5F1F7"/>
<path d="M1062.06 71.5925C1081.67 71.5925 1097.57 55.6919 1097.57 36.0775C1097.57 16.4631 1081.67 0.5625 1062.06 0.5625C1042.44 0.5625 1026.54 16.4631 1026.54 36.0775C1026.54 55.6919 1042.44 71.5925 1062.06 71.5925Z" fill="#D5F1F7"/>
<path d="M1135.36 320.647C1143.53 320.647 1150.16 314.02 1150.16 305.845C1150.16 297.67 1143.53 291.043 1135.36 291.043C1127.18 291.043 1120.55 297.67 1120.55 305.845C1120.55 314.02 1127.18 320.647 1135.36 320.647Z" fill="#D5F1F7"/>
<path d="M38.345 935.311C46.5199 935.311 53.147 928.684 53.147 920.509C53.147 912.334 46.5199 905.707 38.345 905.707C30.1701 905.707 23.543 912.334 23.543 920.509C23.543 928.684 30.1701 935.311 38.345 935.311Z" fill="#D5F1F7"/>
<path d="M210.462 701.315C218.637 701.315 225.264 694.688 225.264 686.513C225.264 678.338 218.637 671.711 210.462 671.711C202.287 671.711 195.66 678.338 195.66 686.513C195.66 694.688 202.287 701.315 210.462 701.315Z" fill="#D5F1F7"/>
<path d="M195.661 367.94C203.836 367.94 210.463 361.313 210.463 353.138C210.463 344.963 203.836 338.336 195.661 338.336C187.486 338.336 180.859 344.963 180.859 353.138C180.859 361.313 187.486 367.94 195.661 367.94Z" fill="#D5F1F7"/>
<path d="M427.767 130.038C435.942 130.038 442.569 123.411 442.569 115.236C442.569 107.061 435.942 100.434 427.767 100.434C419.592 100.434 412.965 107.061 412.965 115.236C412.965 123.411 419.592 130.038 427.767 130.038Z" fill="#D5F1F7"/>
<path d="M2182.01 1114.17C2190.18 1114.17 2196.81 1107.54 2196.81 1099.36C2196.81 1091.19 2190.18 1084.56 2182.01 1084.56C2173.83 1084.56 2167.2 1091.19 2167.2 1099.36C2167.2 1107.54 2173.83 1114.17 2182.01 1114.17Z" fill="#D5F1F7"/>
<path d="M2388.61 1217.8L2355.83 1093.61L2238.88 1040.5L2502.25 969.957L2388.61 1217.8ZM2274.39 1043.43L2365.99 1085.03L2391.67 1182.31L2480.68 988.172L2274.39 1043.43Z" fill="#D5F1F7"/>
<path d="M2487.5 974.43L2356.97 1084.7L2364.72 1093.88L2495.26 983.611L2487.5 974.43Z" fill="#D5F1F7"/>
<path d="M1490.75 124.365C1506.15 124.365 1518.63 111.886 1518.63 96.4911C1518.63 81.0968 1506.15 68.6172 1490.75 68.6172C1475.36 68.6172 1462.88 81.0968 1462.88 96.4911C1462.88 111.886 1475.36 124.365 1490.75 124.365Z" fill="#D5F1F7"/>
<path d="M1623.84 195.362C1638.06 189.47 1644.81 173.164 1638.92 158.941C1633.03 144.719 1616.73 137.965 1602.5 143.856C1588.28 149.747 1581.53 166.053 1587.42 180.276C1593.31 194.499 1609.61 201.253 1623.84 195.362Z" fill="#D5F1F7"/>
<path d="M1732.79 147.217C1748.19 147.217 1760.67 134.737 1760.67 119.343C1760.67 103.948 1748.19 91.4688 1732.79 91.4688C1717.4 91.4688 1704.92 103.948 1704.92 119.343C1704.92 134.737 1717.4 147.217 1732.79 147.217Z" fill="#D5F1F7"/>
<path d="M1830.48 272.03C1844.7 266.138 1851.46 249.831 1845.57 235.608C1839.68 221.386 1823.37 214.633 1809.15 220.524C1794.92 226.415 1788.17 242.721 1794.06 256.944C1799.95 271.167 1816.26 277.921 1830.48 272.03Z" fill="#D5F1F7"/>
<path d="M1814.81 249.691L1730.58 126.746L1609.61 176.339L1487.62 101.614L1493.89 91.3711L1610.69 162.911L1735 111.945L1824.72 242.904L1814.81 249.691Z" fill="#D5F1F7"/>
<path d="M73.5931 1207.62L0.871094 1035.13L251.977 929.258L324.699 1101.74L73.5931 1207.62ZM16.6051 1041.53L79.9991 1191.88L308.964 1095.34L245.57 944.997L16.6051 1041.53Z" fill="#D5F1F7"/>
<path d="M177.06 1102.3L6.78906 1044.02L10.6851 1032.65L170.806 1087.45L243.346 934.551L254.199 939.702L177.06 1102.3Z" fill="#D5F1F7"/>
<path d="M686.149 152.191C686.149 154.67 685.273 156.713 683.525 158.315C681.777 159.917 679.734 160.721 677.401 160.721C675.944 160.721 674.632 160.358 673.465 159.627L588.394 108.455C585.334 106.702 583.805 104.156 583.805 100.801C583.805 98.032 585.335 95.48 588.394 93.147L673.465 41.969C674.922 41.243 676.379 40.875 677.842 40.875C680.17 40.875 682.136 41.611 683.743 43.063C685.345 44.525 686.149 46.418 686.149 48.752C686.149 52.107 684.764 54.653 681.995 56.406L607.861 100.578L681.995 144.755C684.765 146.653 686.149 149.131 686.149 152.191Z" fill="#D5F1F7"/>
<path d="M775.922 7.85886C777.301 6.98286 778.873 6.54688 780.62 6.54688C783.099 6.54688 785.106 7.38686 786.635 9.06186C788.164 10.7369 788.932 12.7439 788.932 15.0719C788.932 16.2439 788.714 17.4049 788.274 18.5719L719.605 190.026C718.438 193.231 715.814 194.833 711.733 194.833C709.399 194.833 707.434 194.034 705.832 192.432C704.224 190.825 703.426 188.854 703.426 186.526C703.426 185.359 703.644 184.12 704.079 182.808L772.748 11.5719C773.474 9.96887 774.532 8.72986 775.922 7.85886Z" fill="#D5F1F7"/>
<path d="M908.336 100.801C908.336 104.156 906.806 106.702 903.742 108.455L818.676 159.627C817.654 160.358 816.343 160.721 814.74 160.721C812.406 160.721 810.363 159.917 808.616 158.315C806.863 156.713 805.992 154.669 805.992 152.191C805.992 149.131 807.377 146.653 810.146 144.755L884.28 100.578L810.146 56.406C807.377 54.653 805.992 52.107 805.992 48.752C805.992 46.418 806.791 44.526 808.398 43.063C810 41.611 811.966 40.875 814.299 40.875C815.756 40.875 817.213 41.243 818.676 41.969L903.742 93.147C906.806 95.48 908.336 98.032 908.336 100.801Z" fill="#D5F1F7"/>
</g>
<defs>
<clipPath id="clip0_4614_3932">
<rect width="2503" height="1218" fill="white"/>
</clipPath>
</defs>
</svg>
