<svg width="150" height="115" viewBox="0 0 150 115" fill="none" xmlns="http://www.w3.org/2000/svg">
    <path
        d="M122.213 2.69445C105.673 -3.10255 91.3308 9.43545 75.0878 9.23045C68.7138 9.14945 62.7168 6.50445 56.7138 4.06245C43.6818 -1.23855 28.4498 -2.07556 18.2868 9.44744C8.20583 20.8774 11.9468 35.4974 17.7208 47.9964C24.5018 62.6784 32.3618 76.5365 37.5628 91.9445C40.4708 100.558 43.4558 121.05 57.7478 113.085C62.9618 110.179 66.0298 104.593 70.8448 101.158C78.8098 95.4764 85.2528 101.431 89.5318 108.054C96.1768 118.336 108.599 116.277 111.848 104.692C114.411 95.5505 115.698 86.2284 119 77.2684C124.703 61.7944 134.893 46.7554 136.949 30.1634C138.449 18.0624 134.162 6.88245 122.213 2.69445Z"
        fill="#01A2BC" />
    <path
        d="M63.1768 29.4034C77.4769 18.1454 93.6238 8.70745 111.402 4.81645C115.354 3.95145 119.292 3.42545 123.229 3.10345C122.89 2.96745 122.566 2.81845 122.213 2.69445C105.673 -3.10255 91.3308 9.43545 75.0878 9.23045C68.7138 9.14945 62.7168 6.50445 56.7138 4.06245C43.6808 -1.23855 28.4498 -2.07556 18.2868 9.44744C8.20583 20.8774 11.9468 35.4974 17.7208 47.9964C20.8838 54.8444 24.2798 61.5144 27.5328 68.2454C36.8218 53.3804 49.3648 40.2764 63.1768 29.4034Z"
        fill="#01A2BC" />
    <path
        d="M128.932 51.9841C122.881 60.4711 114.457 67.4341 104.595 70.8101C95.1796 74.0331 84.6736 73.9881 75.8816 78.6491C68.0706 82.7901 62.5536 90.1491 55.7136 95.7501C51.4786 99.2181 46.0886 102.006 40.7676 102.603C43.5616 110.799 48.0516 118.492 57.7466 113.088C62.9606 110.182 66.0286 104.596 70.8436 101.161C78.8096 95.4791 85.2516 101.434 89.5306 108.057C96.1756 118.339 108.598 116.28 111.847 104.695C114.41 95.5531 115.697 86.2311 118.999 77.2711C123.01 66.3891 129.229 55.7201 133.288 44.5781C132.058 47.1021 130.649 49.5761 128.932 51.9841Z"
        fill="#01A2BC" />
    <path
        d="M53.517 75.9464C53.517 75.2197 53.6512 74.5098 53.9195 73.8167C54.1878 73.1124 54.5791 72.4752 55.0933 71.905C55.6076 71.3349 56.2336 70.8821 56.9714 70.5467C57.7093 70.2001 58.5477 70.0269 59.4868 70.0269C60.6048 70.0269 61.5718 70.2672 62.3879 70.7479C63.2151 71.2286 63.83 71.8547 64.2325 72.6261L62.1196 74.1018C61.9407 73.6769 61.7003 73.3471 61.3985 73.1124C61.1078 72.8776 60.7836 72.7155 60.4259 72.6261C60.0793 72.5255 59.7439 72.4752 59.4197 72.4752C58.8943 72.4752 58.436 72.5814 58.0447 72.7938C57.6534 72.995 57.3292 73.2689 57.0721 73.6154C56.8149 73.962 56.6249 74.3477 56.5019 74.7725C56.3789 75.1973 56.3175 75.6222 56.3175 76.047C56.3175 76.5165 56.3901 76.9693 56.5355 77.4053C56.6808 77.8413 56.8876 78.227 57.1559 78.5623C57.4354 78.8977 57.7708 79.166 58.1621 79.3673C58.5533 79.5573 58.9837 79.6523 59.4533 79.6523C59.7887 79.6523 60.1296 79.5964 60.4762 79.4846C60.8228 79.3728 61.1414 79.1996 61.432 78.9648C61.7339 78.7188 61.9631 78.4002 62.1196 78.009L64.3666 79.3337C64.1319 79.915 63.7462 80.4125 63.2096 80.8262C62.6729 81.2398 62.0637 81.5584 61.3817 81.782C60.711 81.9944 60.0458 82.1006 59.3862 82.1006C58.5254 82.1006 57.7316 81.9273 57.005 81.5808C56.2895 81.223 55.669 80.7535 55.1436 80.1722C54.6294 79.5797 54.2269 78.9201 53.9362 78.1934C53.6568 77.4556 53.517 76.7066 53.517 75.9464ZM68.5712 70.0939H71.5393L75.631 82H72.8138L71.8915 79.3337H68.1855L67.28 82H64.4628L68.5712 70.0939ZM71.4387 77.4388L70.0469 72.8608L68.6215 77.4388H71.4387ZM76.8035 82V70.0939H82.1696C82.7286 70.0939 83.2429 70.2113 83.7124 70.4461C84.1931 70.6697 84.6068 70.9771 84.9533 71.3684C85.2999 71.7485 85.5682 72.1789 85.7582 72.6596C85.9595 73.1403 86.0601 73.6266 86.0601 74.1185C86.0601 74.6104 85.9818 75.08 85.8253 75.5271C85.6688 75.9631 85.4452 76.36 85.1545 76.7177C84.8639 77.0643 84.5173 77.3494 84.1149 77.573L86.7308 82H83.6956L81.415 78.1599H79.5537V82H76.8035ZM79.5537 75.7619H82.069C82.2926 75.7619 82.4883 75.6948 82.6559 75.5607C82.8348 75.4153 82.9801 75.2197 83.0919 74.9737C83.2037 74.7278 83.2596 74.4427 83.2596 74.1185C83.2596 73.7943 83.1926 73.5148 83.0584 73.2801C82.9354 73.0341 82.7789 72.8441 82.5889 72.7099C82.3988 72.5758 82.1976 72.5087 81.9852 72.5087H79.5537V75.7619ZM96.4053 79.5852V82H88.0375V70.0939H96.2544V72.5087H90.7876V74.8228H95.483V77.0531H90.7876V79.5852H96.4053Z"
        fill="white" />
    <path
        d="M2.34884 59V31.6611H12.8608C15.8899 31.6611 18.4185 32.2772 20.4464 33.5094C22.5 34.7159 24.0403 36.3588 25.0671 38.4381C26.1196 40.4917 26.6458 42.7763 26.6458 45.292C26.6458 48.0644 26.0682 50.4774 24.9131 52.5311C23.7836 54.5847 22.1792 56.1763 20.0999 57.3058C18.0462 58.4353 15.6332 59 12.8608 59H2.34884ZM19.0217 45.292C19.0217 43.8802 18.7778 42.648 18.2901 41.5955C17.8024 40.5174 17.0964 39.6831 16.1723 39.0927C15.2482 38.5022 14.1444 38.207 12.8608 38.207H9.85741V52.4541H12.8608C14.17 52.4541 15.2738 52.146 16.1723 51.5299C17.0964 50.9138 17.8024 50.0667 18.2901 48.9886C18.7778 47.8847 19.0217 46.6526 19.0217 45.292ZM49.3956 52.4541V59H29.9119V31.6611H49.0491V38.207H37.4204V42.0576H47.3548V48.1414H37.4204V52.4541H49.3956ZM60.3959 45.5616V59H52.8873V31.6611H58.7401L69.7142 45.5616V31.6611H77.2228V59H71.2544L60.3959 45.5616ZM103.21 38.207H95.3553V59H87.8467V38.207H79.9531V31.6611H103.21V38.207ZM109.741 31.6611H118.135L126.837 59H119.213L117.557 53.6477H110.28L108.663 59H101L109.741 31.6611ZM116.364 48.642L113.938 39.0156L111.396 48.642H116.364ZM129.109 59V31.6611H136.617V52.4541H149.016V59H129.109Z"
        fill="white" />
</svg>