<svg width="768" height="768" viewBox="0 0 768 768" fill="none" xmlns="http://www.w3.org/2000/svg">
    <g clip-path="url(#clip0_3231_2391)">
        <path d="M0 384V219C0 98.0496 98.0496 0 219 0H549C669.95 0 768 98.0496 768 219V549C768 669.95 669.95 768 549 768H0" fill="#007ACC"/>
        <path d="M167 268.958V294.236H247.541V523.748H304.693V294.236H385.234V269.423C385.234 255.467 385.234 244.146 384.614 243.836C384.614 243.371 335.516 243.216 275.885 243.216L167.465 243.681V269.113L167 268.958ZM528.968 243.06C544.766 246.782 556.847 253.916 567.689 265.236C573.42 271.439 581.939 282.295 582.558 285.086C582.558 286.017 555.763 304.16 539.5 314.24C538.881 314.706 536.402 312.069 533.924 308.037C525.87 296.562 517.661 291.599 504.806 290.669C486.219 289.428 473.829 299.198 473.829 315.481C473.829 320.443 474.758 323.235 476.617 327.267C480.798 335.796 488.543 340.913 512.55 351.459C556.847 370.533 576.053 383.094 587.67 401.083C600.835 421.243 603.778 452.878 594.949 476.605C585.036 502.503 560.874 520.026 526.335 525.764C515.493 527.625 490.711 527.315 479.095 525.299C454.313 520.647 430.615 508.241 416.056 492.268C410.325 486.065 399.329 469.472 399.948 468.386L405.834 464.664L429.067 451.173L446.569 440.938L450.596 446.365C455.707 454.429 467.168 465.285 473.829 469.006C493.964 479.397 520.914 478.001 534.234 465.905C539.965 460.632 542.443 455.05 542.443 447.296C542.443 440.162 541.359 436.906 537.796 431.478C532.84 424.655 522.927 419.072 495.048 406.666C462.987 393.019 449.357 384.335 436.656 370.998C429.376 362.934 422.716 350.373 419.619 339.983C417.295 330.989 416.521 308.968 418.689 300.128C425.349 269.113 448.737 247.403 482.192 241.2C493.034 239.028 518.591 239.959 529.278 242.75L528.968 243.06Z" fill="white"/>
    </g>
    <defs>
        <clipPath id="clip0_3231_2391">
            <rect width="768" height="768" rx="384" fill="white"/>
        </clipPath>
    </defs>
</svg>