<svg width="512" height="512" viewBox="0 0 512 512" fill="none" xmlns="http://www.w3.org/2000/svg">
<g clip-path="url(#clip0_1026_29)">
<path d="M117.851 233.408C118.14 240.544 119.867 277.069 126.213 314.665C136.171 373.652 151.931 403.418 174.395 405.664C193.363 407.564 210.451 391.633 225.168 358.324C236.432 332.831 243.947 302.568 247.424 286.797C247.44 286.723 247.455 286.649 247.469 286.574C248.619 280.482 254.776 280.173 256.004 280.173H256.006C257.228 280.173 263.383 280.484 264.529 286.57C264.543 286.646 264.558 286.722 264.575 286.797C268.053 302.568 275.567 332.831 286.832 358.324C300.766 389.861 316.817 405.817 334.59 405.816C360.017 405.378 375.516 374.397 385.786 314.665C391.377 281.548 393.381 249.273 393.978 237.173C428.909 224.331 466.969 224.896 501.695 238.889C502.613 239.259 503.562 239.434 504.496 239.434C506.237 239.434 507.924 238.828 509.268 237.72C510.611 236.611 511.527 235.071 511.859 233.361C512.19 231.652 511.917 229.88 511.085 228.35C510.254 226.82 508.916 225.627 507.301 224.975C472.499 210.954 434.648 209.185 399.13 219.667L415.221 175.276C419.923 162.294 421.749 148.75 420.656 135.018C420.462 132.986 419.649 130.809 417.368 129.248L368.347 96.1255C366.699 95.0482 364.692 94.6625 362.762 95.0517C360.831 95.4408 359.131 96.5735 358.029 98.2052C356.926 99.837 356.51 101.837 356.869 103.773C357.228 105.709 358.335 107.427 359.949 108.554L404.977 138.98C402.321 152.822 396.882 162.61 388.756 168.082C377.405 175.728 362.248 174.123 351.533 171.429C345.054 169.801 340.221 164.277 339.507 157.683L337.145 135.848C336.997 134.474 336.471 133.167 335.627 132.072C334.782 130.978 333.651 130.138 332.359 129.646L316.388 123.563C313.85 122.602 311.735 120.773 310.418 118.4C309.1 116.028 308.665 113.266 309.191 110.603L315.464 78.4936L330.712 88.7975C332.361 89.8748 334.367 90.2605 336.298 89.8714C338.228 89.4822 339.928 88.3495 341.031 86.7178C342.133 85.086 342.55 83.0861 342.191 81.1498C341.831 79.2135 340.725 77.4962 339.11 76.3686L314.498 59.7368C314.458 59.7098 314.417 59.6848 314.377 59.6588C305.176 53.4848 293.844 51.8288 283.264 55.1208L256 63.5997L215.468 50.9938C181.075 40.2899 143.995 49.5648 118.704 75.1946C100.865 93.2585 91.0403 117.198 91.0403 142.604C91.0361 153.747 92.9783 164.805 96.7792 175.279L117.851 233.408ZM129.379 85.7326C150.716 64.1107 181.996 56.2888 211.012 65.3157L232.665 72.0507C215.171 78.5886 192.487 80.5746 192.022 79.0976C190.074 78.6957 188.046 79.0841 186.385 80.1774C184.723 81.2708 183.563 82.9794 183.162 84.9276C182.76 86.8757 183.148 88.9037 184.241 90.5655C185.335 92.2272 187.043 93.3866 188.992 93.7885C191.415 94.2885 194.1 94.5125 196.972 94.5125C219.42 94.5125 253.024 80.8336 258.563 78.5126L287.719 69.4447C292.348 67.9932 297.334 68.165 301.852 69.9317L294.468 107.727C293.259 113.86 294.261 120.223 297.296 125.688C300.331 131.153 305.203 135.366 311.049 137.581L322.727 142.029L324.595 159.297C325.98 172.104 335.336 182.826 347.877 185.978C353.796 187.466 360.833 188.655 368.205 188.655C377.863 188.655 388.097 186.613 397.135 180.525C397.241 180.453 397.341 180.373 397.446 180.3L379.648 229.399C379.563 229.781 379.336 230.074 379.204 231.697C379.189 232.098 377.747 272.244 370.975 312.298C367.053 335.493 362.156 354.05 356.419 367.458C352.086 377.586 345.045 389.848 336.113 390.741C316.384 392.733 294.037 350.695 279.247 283.671C277.103 272.606 267.782 265.178 256.011 265.175H256.003C244.23 265.175 234.903 272.602 232.754 283.67C217.963 350.693 195.639 392.713 175.887 390.741C166.955 389.848 159.914 377.587 155.581 367.458C149.844 354.05 144.947 335.493 141.025 312.298C134.253 272.244 132.81 232.098 132.796 231.697C132.769 230.913 132.619 230.138 132.352 229.399L110.883 170.171C107.676 161.335 106.038 152.006 106.041 142.606C106.041 121.17 114.329 100.973 129.379 85.7326ZM7.50494 239.434C8.44793 239.434 9.40793 239.255 10.3349 238.876C34.3957 229.06 61.0385 225.854 87.3813 229.603C89.3443 229.871 91.3333 229.35 92.914 228.156C94.4946 226.962 95.5385 225.19 95.8177 223.229C96.0969 221.268 95.5888 219.276 94.4042 217.688C93.2196 216.1 91.4549 215.045 89.4953 214.754C60.5205 210.631 31.1878 214.17 4.66796 224.988C3.0568 225.645 1.72387 226.841 0.897388 228.371C0.0709078 229.902 -0.197708 231.673 0.137535 233.38C0.472777 235.087 1.39102 236.624 2.73505 237.729C4.07908 238.833 5.76528 239.436 7.50494 239.434ZM504.498 478.492H7.50194C5.51283 478.492 3.60519 479.283 2.19868 480.689C0.792169 482.096 0.00199882 484.003 0.00199882 485.992C0.00199882 487.982 0.792169 489.889 2.19868 491.296C3.60519 492.702 5.51283 493.492 7.50194 493.492H504.498C508.641 493.492 511.998 490.134 511.998 485.992C511.998 481.85 508.641 478.492 504.498 478.492ZM369.73 44.0019C370.444 45.8587 371.865 47.3561 373.683 48.1649C375.5 48.9737 377.564 49.0276 379.421 48.3149C381.278 47.6018 382.775 46.1803 383.584 44.3631C384.393 42.5459 384.447 40.4818 383.734 38.6249L377.857 23.3201C377.138 21.4711 375.716 19.9823 373.902 19.1794C372.088 18.3765 370.03 18.3249 368.178 19.036C366.326 19.7471 364.832 21.163 364.021 22.9736C363.211 24.7842 363.151 26.8422 363.854 28.697L369.73 44.0019ZM406.843 52.6558C408.176 53.7384 409.841 54.3285 411.558 54.3268C412.676 54.3284 413.781 54.0795 414.79 53.5982C415.8 53.117 416.689 52.4157 417.392 51.5458L427.708 38.8039C428.916 37.2538 429.468 35.2912 429.245 33.3384C429.021 31.3855 428.04 29.5984 426.512 28.3616C424.984 27.1248 423.032 26.5371 421.076 26.7249C419.119 26.9128 417.314 27.8611 416.05 29.366L405.734 42.1079C404.482 43.6537 403.896 45.6334 404.104 47.6115C404.312 49.5896 405.297 51.4041 406.843 52.6558ZM416.796 78.5746C416.485 80.5392 416.967 82.5468 418.136 84.1558C419.306 85.7648 421.066 86.8435 423.031 87.1546L439.223 89.7175C441.187 90.0281 443.195 89.5457 444.804 88.3763C446.413 87.2069 447.492 85.4463 447.803 83.4816C448.114 81.517 447.632 79.5094 446.463 77.9004C445.294 76.2914 443.533 75.2127 441.569 74.9016L425.377 72.3397C423.412 72.0288 421.404 72.511 419.795 73.6802C418.186 74.8495 417.107 76.61 416.796 78.5746Z" fill="black"/>
<path d="M311.278 203.772C319.854 210.783 330.699 214.315 343.596 214.315C346.242 214.315 348.974 214.167 351.79 213.869C352.77 213.766 353.719 213.47 354.584 213C355.45 212.529 356.214 211.893 356.833 211.127C357.453 210.361 357.915 209.481 358.194 208.537C358.473 207.592 358.564 206.602 358.46 205.622C358.024 201.503 354.337 198.513 350.214 198.952C334.396 200.625 322.734 196.469 315.54 186.602C309.955 178.942 308.96 170.424 308.937 170.21C308.527 166.105 304.863 163.097 300.763 163.49C298.783 163.678 296.958 164.646 295.692 166.179C294.425 167.713 293.819 169.686 294.008 171.667C294.084 172.464 296.041 191.316 311.278 203.772ZM440.017 337.016C440.017 339 440.804 340.902 442.207 342.305C443.61 343.707 445.512 344.495 447.495 344.495C449.479 344.495 451.381 343.707 452.784 342.305C454.186 340.902 454.974 339 454.974 337.016C454.974 335.033 454.186 333.13 452.784 331.728C451.381 330.325 449.479 329.537 447.495 329.537C445.512 329.537 443.61 330.325 442.207 331.728C440.804 333.13 440.017 335.033 440.017 337.016Z" fill="black"/>
<path d="M49.7349 408.677C52.6556 405.756 52.6556 401.021 49.7349 398.1C46.8141 395.179 42.0787 395.179 39.158 398.1C36.2372 401.021 36.2372 405.756 39.158 408.677C42.0787 411.598 46.8141 411.598 49.7349 408.677Z" fill="black"/>
<path d="M176.587 429.736C157.098 432.534 140.388 423.876 126.923 404.004C116.249 388.252 111.711 371.174 111.628 370.858C111.106 368.961 109.859 367.344 108.156 366.357C106.453 365.371 104.431 365.093 102.525 365.584C100.619 366.075 98.9824 367.295 97.968 368.981C96.9535 370.668 96.6426 372.686 97.1022 374.599C97.3052 375.388 102.208 394.122 114.272 412.073C128.956 433.922 147.899 445.257 169.478 445.257C172.508 445.257 175.589 445.034 178.718 444.585C182.818 443.997 185.665 440.196 185.076 436.096C184.487 431.996 180.685 429.151 176.587 429.736Z" fill="black"/>
</g>
<defs>
<clipPath id="clip0_1026_29">
<rect width="512" height="512" fill="white"/>
</clipPath>
</defs>
</svg>
