<svg width="512" height="512" viewBox="0 0 512 512" fill="none" xmlns="http://www.w3.org/2000/svg">
<path d="M474.42 453.36H430.46C470.96 413.07 493.92 358.49 493.92 301.32C493.92 269.87 486.79 238.32 473.33 209.86C476.8 202.7 478.75 194.66 478.75 186.19C478.75 158.98 458.7 136.37 432.61 132.34L439.06 108.17C439.91 104.97 438.01 101.68 434.81 100.83L409.22 93.9998L414.16 75.4898L432.48 80.3798C432.99 80.5198 433.51 80.5798 434.03 80.5798C435.08 80.5798 436.11 80.3098 437.04 79.7698C438.42 78.9698 439.42 77.6598 439.83 76.1198L448.57 43.3698C449.42 40.1698 447.52 36.8798 444.32 36.0298L366.16 15.1998C362.96 14.3498 359.67 16.2498 358.82 19.4498L350.08 52.1998C349.67 53.7398 349.89 55.3698 350.68 56.7498C351.48 58.1298 352.79 59.1298 354.33 59.5398L372.65 64.4298L367.71 82.9398L342.12 76.1098C340.584 75.7012 338.948 75.9169 337.57 76.7098C336.19 77.5098 335.19 78.8198 334.78 80.3598L293.39 235.54C292.98 237.08 293.2 238.71 293.99 240.09C294.79 241.47 296.1 242.47 297.64 242.88L309.46 246.03L302.48 272.21C301.63 275.41 303.53 278.7 306.73 279.55L313.15 281.26L306.59 305.85C306.18 307.39 306.4 309.02 307.19 310.4C307.99 311.78 309.3 312.78 310.84 313.19L343.85 321.99C344.37 322.13 344.89 322.19 345.4 322.19C348.05 322.19 350.48 320.42 351.19 317.73L357.75 293.14L364.17 294.85C364.68 294.99 365.2 295.05 365.72 295.05C366.77 295.05 367.8 294.78 368.73 294.24C370.11 293.44 371.11 292.13 371.52 290.59L378.5 264.41L390.32 267.56C390.84 267.7 391.36 267.76 391.87 267.76C394.52 267.76 396.95 265.99 397.66 263.3L404.69 236.96C410.38 239.16 416.52 240.42 422.93 240.58C431.14 259.85 435.31 280.25 435.31 301.26C435.31 345.5 416.58 387.23 383.66 416.96C374.54 399.79 356.47 388.06 335.71 388.06C332.31 388.06 328.99 388.39 325.76 388.99V376.37H383.98C387.29 376.37 389.98 373.68 389.98 370.37V346.21C389.98 342.9 387.29 340.21 383.98 340.21H223.2C219.89 340.21 217.2 342.9 217.2 346.21V370.37C217.2 373.68 219.89 376.37 223.2 376.37H281.42V453.29H197.59C186.65 453.29 177.74 462.19 177.74 473.14V491C177.74 494.31 180.43 497 183.74 497H488.26C491.57 497 494.26 494.31 494.26 491V473.21C494.27 462.26 485.36 453.36 474.42 453.36ZM466.74 186.2C466.74 209.63 447.68 228.68 424.26 228.68C400.83 228.68 381.78 209.62 381.78 186.2C381.78 162.78 400.84 143.72 424.26 143.72C447.68 143.71 466.74 162.77 466.74 186.2ZM368.87 28.3398L435.4 46.0798L429.76 67.2398L363.22 49.4998L368.87 28.3398ZM384.25 67.5298L402.55 72.4098L397.61 90.9198L379.31 86.0398L384.25 67.5298ZM341.14 308.88L319.73 303.17L324.74 284.37L346.15 290.08L341.14 308.88ZM361.46 281.75L315.62 269.52L321.06 249.14L366.9 261.37L361.46 281.75ZM387.61 254.47L306.53 232.85L344.83 89.2598L425.91 110.89L420.31 131.87C392.11 133.9 369.78 157.48 369.78 186.2C369.78 204.96 379.31 221.53 393.78 231.34L387.61 254.47ZM447.3 301.33C447.3 279.98 443.31 259.23 435.44 239.53C447.36 237.04 457.85 230.63 465.52 221.73C476.27 246.79 481.92 274.1 481.92 301.33C481.92 359.42 456.79 414.7 412.92 453.37H389.97V442.4C389.97 437.76 389.38 433.25 388.28 428.94C425.83 396.77 447.3 350.5 447.3 301.33ZM229.2 352.28H377.96V364.44H229.2V352.28ZM293.42 376.44H313.74V392.78C305.82 396.305 298.855 401.666 293.42 408.42V376.44ZM293.42 442.4C293.42 419.09 312.38 400.13 335.69 400.13C359 400.13 377.96 419.09 377.96 442.4V453.36H293.42V442.4ZM482.27 485H189.74V473.21C189.74 468.88 193.26 465.36 197.59 465.36H474.42C478.75 465.36 482.27 468.88 482.27 473.21V485ZM401.97 186.19C401.97 198.48 411.97 208.48 424.26 208.48C436.55 208.48 446.55 198.48 446.55 186.19C446.55 173.9 436.55 163.9 424.26 163.9C411.97 163.91 401.97 173.9 401.97 186.19ZM434.55 186.19C434.55 191.86 429.93 196.48 424.26 196.48C418.59 196.48 413.97 191.86 413.97 186.19C413.97 180.52 418.59 175.9 424.26 175.9C429.93 175.91 434.55 180.52 434.55 186.19ZM263.35 272.58C263.85 272.71 264.35 272.77 264.85 272.77C265.77 272.771 266.677 272.561 267.503 272.155C268.328 271.75 269.049 271.159 269.61 270.43C270.171 269.701 270.556 268.853 270.736 267.951C270.917 267.05 270.887 266.118 270.65 265.23L255 206.19C265.22 187.62 270.61 166.62 270.61 145.29C270.61 75.5698 213.89 18.8498 144.17 18.8498C74.45 18.8498 17.73 75.5698 17.73 145.29C17.73 215.01 74.45 271.73 144.17 271.73C164.8 271.73 185.2 266.67 203.32 257.07L263.35 272.58ZM199.62 245.41C182.76 254.77 163.58 259.72 144.17 259.72C81.07 259.72 29.73 208.38 29.73 145.28C29.73 82.1798 81.07 30.8398 144.17 30.8398C207.27 30.8398 258.61 82.1798 258.61 145.28C258.61 165.35 253.34 185.09 243.38 202.37C242.59 203.74 242.37 205.37 242.78 206.91L256.43 258.4L204.04 244.85C202.549 244.465 200.968 244.665 199.62 245.41ZM215.03 110.59C215.03 86.2398 195.22 66.4298 170.87 66.4298C164.32 66.4298 158 67.8498 152.09 70.6498C146.83 73.1398 141.5 73.1398 136.24 70.6498C130.373 67.8596 123.956 66.4177 117.46 66.4298C93.11 66.4298 73.3 86.2398 73.3 110.59V110.72C73.3 121.43 77.22 131.77 84.33 139.85C89.72 145.97 92.37 152.91 92.45 161.06C92.49 165.73 92.53 170.4 92.53 175.04C92.53 191.45 96.31 206.97 102.9 217.63C105.65 222.08 110.4 224.49 115.62 224.09C120.83 223.69 125.16 220.57 127.19 215.75C130.57 207.75 130.44 198.56 130.31 189.68C130.21 182.89 130.12 175.87 131.59 169.61C132.99 163.66 138.05 159.66 144.16 159.66C150.27 159.66 155.32 163.66 156.73 169.61C158.21 175.87 158.11 182.89 158.01 189.68C157.89 198.56 157.76 207.75 161.13 215.75C163.16 220.57 167.49 223.68 172.7 224.09C173.08 224.12 173.45 224.13 173.82 224.13C178.59 224.13 182.86 221.75 185.41 217.63C192 206.97 195.78 191.44 195.78 175.04C195.78 170.4 195.82 165.73 195.86 161.06C195.93 152.91 198.59 145.97 203.98 139.85C211.09 131.77 215.01 121.43 215.01 110.72V110.59H215.03ZM203.03 110.72C203.03 118.51 200.18 126.03 194.99 131.92C187.72 140.18 183.98 149.95 183.88 160.95C183.84 165.66 183.8 170.36 183.8 175.04C183.8 189.28 180.67 202.5 175.22 211.32C174.85 211.92 174.34 212.18 173.64 212.12C172.93 212.07 172.47 211.74 172.2 211.08C169.8 205.39 169.91 197.84 170.02 189.84C170.12 182.32 170.23 174.54 168.42 166.84C165.75 155.54 155.78 147.65 144.17 147.65C132.56 147.65 122.59 155.54 119.92 166.84C118.1 174.54 118.21 182.32 118.32 189.84C118.43 197.84 118.54 205.4 116.14 211.08C115.86 211.73 115.41 212.06 114.7 212.12C113.99 212.18 113.49 211.92 113.12 211.32C107.67 202.5 104.54 189.28 104.54 175.04C104.54 170.36 104.5 165.66 104.46 160.95C104.36 149.94 100.62 140.18 93.35 131.92C88.17 126.04 85.31 118.51 85.31 110.72V110.59C85.31 92.8598 99.74 78.4298 117.47 78.4298C122.23 78.4298 126.83 79.4598 131.12 81.4898C139.66 85.5298 148.69 85.5298 157.23 81.4898C161.52 79.4598 166.12 78.4298 170.88 78.4298C188.61 78.4298 203.04 92.8498 203.04 110.59V110.72H203.03Z" fill="black"/>
</svg>
