<svg class="svg-icon" style="width: 1.06640625em;height: 1em;vertical-align: middle;fill: currentColor;overflow: hidden;" viewBox="0 0 1092 1024" version="1.1" xmlns="http://www.w3.org/2000/svg"><path d="M265.216 532.770133c-82.090667-50.807467-136.704-141.431467-136.704-244.770133C128.512 128.938667 257.928533 0 417.621333 0c159.6928 0 289.143467 128.938667 289.143467 288 0 103.3216-54.613333 193.9456-136.686933 244.753067a479.607467 479.607467 0 0 1 95.061333 38.058666c15.650133 8.3456 21.504 27.733333 13.141333 43.3152a32.187733 32.187733 0 0 1-43.52 13.073067c-61.6448-32.938667-137.284267-51.2-217.122133-51.2-197.0688 0-353.3824 110.421333-353.3824 240.349867 0 34.474667 124.279467 72.8064 296.277333 79.684266a32.0512 32.0512 0 0 1 30.805334 33.245867 32.085333 32.085333 0 0 1-33.3824 30.685867C146.875733 951.534933 0 906.257067 0 816.349867c0-130.833067 110.677333-239.701333 265.216-283.579734zM417.621333 512c124.2112 0 224.887467-100.283733 224.887467-224S541.815467 64 417.6384 64c-124.2112 0-224.887467 100.283733-224.887467 224S293.444267 512 417.6384 512z m619.554134 73.6256a32.221867 32.221867 0 0 1 45.431466-0.512 31.914667 31.914667 0 0 1 0.512 45.2608l-377.1392 384a32.221867 32.221867 0 0 1-45.9264 0l-201.130666-204.8a31.914667 31.914667 0 0 1 0.494933-45.243733 32.221867 32.221867 0 0 1 45.431467 0.494933l178.176 181.418667 354.1504-360.618667z"  /></svg>