<svg width="76" height="62" viewBox="0 0 76 62" fill="none" xmlns="http://www.w3.org/2000/svg">
<ellipse cx="56.0316" cy="31" rx="19.9682" ry="19.9805" fill="#D6E7EF"/>
<path d="M62.1314 30.065L49.1516 17.0771C48.6854 16.5323 47.866 16.4688 47.3215 16.9354C46.777 17.402 46.7136 18.2219 47.1799 18.7667C47.2234 18.8175 47.2707 18.8649 47.3215 18.9083L58.0818 29.6883H6.69443C5.97764 29.6883 5.39648 30.2698 5.39648 30.9871C5.39648 31.7045 5.97764 32.2859 6.69443 32.2859H58.0818L47.3215 43.0528C46.777 43.5193 46.7136 44.3392 47.1799 44.884C47.6463 45.4288 48.4656 45.4923 49.0101 45.0257C49.0608 44.9821 49.1082 44.9348 49.1516 44.884L62.1315 31.8961C62.6347 31.3897 62.6347 30.5716 62.1314 30.065Z" fill="#0D7D8C"/>
</svg>
