<svg width="512" height="512" viewBox="0 0 512 512" fill="none" xmlns="http://www.w3.org/2000/svg">
<path d="M255.488 191.404H255.088C249.43 191.053 243.811 190.234 238.288 188.956C236.739 188.591 235.399 187.625 234.562 186.272C233.725 184.918 233.46 183.287 233.826 181.738C234.191 180.19 235.157 178.849 236.511 178.013C237.864 177.176 239.495 176.911 241.044 177.276C245.921 178.403 250.883 179.123 255.88 179.428C257.471 179.481 258.976 180.164 260.064 181.327C261.152 182.49 261.733 184.037 261.68 185.628C261.627 187.22 260.944 188.725 259.781 189.812C258.618 190.9 257.071 191.481 255.48 191.428L255.488 191.404ZM271.488 191.296C269.94 191.293 268.454 190.692 267.339 189.618C266.224 188.544 265.567 187.081 265.506 185.535C265.444 183.988 265.983 182.478 267.009 181.319C268.035 180.16 269.469 179.443 271.012 179.316C275.96 178.959 280.863 178.134 285.656 176.852C287.19 176.428 288.83 176.63 290.214 177.415C291.599 178.2 292.616 179.502 293.04 181.036C293.464 182.57 293.262 184.21 292.477 185.595C291.692 186.98 290.39 187.996 288.856 188.42C283.331 189.898 277.679 190.854 271.976 191.276C271.807 191.289 271.637 191.295 271.468 191.296H271.488ZM224.716 183.508C223.664 183.512 222.63 183.235 221.72 182.708C218.585 181.141 215.814 178.932 213.589 176.224C211.363 173.517 209.731 170.371 208.8 166.992C208.456 165.438 208.744 163.811 209.6 162.469C210.456 161.127 211.81 160.18 213.364 159.836C214.918 159.493 216.545 159.78 217.887 160.636C219.229 161.492 220.176 162.846 220.52 164.4C221.785 167.886 224.372 170.734 227.72 172.328C228.866 172.988 229.762 174.009 230.269 175.23C230.776 176.452 230.864 177.807 230.521 179.085C230.178 180.362 229.423 181.49 228.372 182.294C227.321 183.098 226.035 183.532 224.712 183.528L224.716 183.508ZM301.592 181.828C300.359 181.829 299.156 181.449 298.146 180.741C297.137 180.033 296.37 179.032 295.949 177.873C295.529 176.713 295.477 175.453 295.798 174.263C296.12 173.072 296.801 172.01 297.748 171.22C298.714 170.589 299.514 169.735 300.08 168.73C300.647 167.724 300.964 166.598 301.004 165.444C300.986 164.705 300.977 163.965 300.976 163.224C300.976 162.62 300.976 162.024 301 161.436C301.02 160.649 301.195 159.872 301.515 159.152C301.836 158.432 302.295 157.782 302.866 157.239C303.438 156.696 304.11 156.271 304.846 155.988C305.582 155.705 306.366 155.57 307.154 155.59C307.942 155.611 308.718 155.786 309.438 156.106C310.158 156.426 310.809 156.885 311.351 157.457C311.894 158.028 312.319 158.701 312.602 159.437C312.885 160.172 313.02 160.956 313 161.744V163.224C313 163.776 313 164.34 313.024 164.912V165.444C312.973 168.353 312.265 171.212 310.953 173.808C309.641 176.404 307.759 178.67 305.448 180.436C304.369 181.339 303.006 181.832 301.6 181.828H301.592ZM208.916 156.98C207.973 156.981 207.044 156.759 206.203 156.333C205.362 155.907 204.633 155.289 204.076 154.528C201.067 150.771 197.58 147.423 193.704 144.568C192.495 143.564 191.729 142.125 191.57 140.561C191.412 138.997 191.873 137.433 192.855 136.206C193.837 134.979 195.261 134.186 196.822 133.998C198.382 133.81 199.954 134.242 201.2 135.2C205.903 138.7 210.119 142.811 213.736 147.424C214.391 148.318 214.786 149.376 214.877 150.481C214.968 151.586 214.751 152.695 214.25 153.683C213.749 154.672 212.984 155.503 212.04 156.084C211.095 156.664 210.008 156.972 208.9 156.972L208.916 156.98ZM309.952 151.968C308.979 151.968 308.02 151.731 307.159 151.278C306.298 150.825 305.561 150.169 305.009 149.367C304.458 148.565 304.11 147.641 303.996 146.675C303.881 145.709 304.003 144.729 304.352 143.82C306.564 138.225 309.714 133.048 313.668 128.512C314.696 127.298 316.165 126.541 317.751 126.41C319.338 126.278 320.911 126.782 322.126 127.81C323.341 128.839 324.097 130.308 324.229 131.894C324.36 133.48 323.856 135.054 322.828 136.268C319.732 139.764 317.271 143.773 315.556 148.116C315.121 149.25 314.353 150.225 313.352 150.913C312.352 151.601 311.166 151.969 309.952 151.968ZM185.788 135.012C184.859 135.016 183.942 134.803 183.109 134.392C182.276 133.98 181.55 133.38 180.988 132.64C176.901 127.356 174.728 120.841 174.824 114.16C174.824 110.848 186.824 110.848 186.824 114.16C186.721 118.221 188.038 122.19 190.548 125.384C191.223 126.274 191.637 127.335 191.742 128.447C191.848 129.559 191.64 130.678 191.144 131.679C190.648 132.679 189.882 133.522 188.933 134.111C187.984 134.7 186.889 135.012 185.772 135.012H185.788ZM328.62 126.244C327.557 126.244 326.514 125.96 325.597 125.424C324.679 124.888 323.921 124.117 323.399 123.192C322.877 122.266 322.61 121.219 322.626 120.156C322.641 119.094 322.939 118.054 323.488 117.144C324.097 116.279 324.442 115.254 324.48 114.196C324.48 110.884 336.48 110.892 336.48 114.196C336.445 117.436 335.504 120.6 333.764 123.332C333.231 124.221 332.477 124.956 331.575 125.466C330.674 125.976 329.656 126.244 328.62 126.244ZM256 110.752C254.409 110.752 252.882 110.12 251.757 108.995C250.632 107.87 250 106.344 250 104.752V72.8364C250 71.2451 250.632 69.719 251.757 68.5938C252.882 67.4686 254.409 66.8364 256 66.8364C257.591 66.8364 259.117 67.4686 260.242 68.5938C261.368 69.719 262 71.2451 262 72.8364V104.752C262 106.344 261.368 107.87 260.242 108.995C259.117 110.12 257.591 110.752 256 110.752Z" fill="black"/>
<path d="M502.312 58.0002H436.136V46.9122C436.136 45.3209 435.504 43.7948 434.379 42.6696C433.253 41.5444 431.727 40.9122 430.136 40.9122C428.545 40.9122 427.018 41.5444 425.893 42.6696C424.768 43.7948 424.136 45.3209 424.136 46.9122V58.0002H386.668C384.497 57.9985 382.354 57.5158 380.392 56.587C378.431 55.6581 376.699 54.3061 375.322 52.6282C373.945 50.9503 372.957 48.9882 372.429 46.8829C371.901 44.7775 371.846 42.5814 372.268 40.4522C373.027 37.0602 374.935 34.0345 377.668 31.8872C380.401 29.7399 383.793 28.6028 387.268 28.6682H502.304C503.895 28.6682 505.421 28.0361 506.547 26.9109C507.672 25.7856 508.304 24.2595 508.304 22.6682C508.304 21.0769 507.672 19.5508 506.547 18.4256C505.421 17.3004 503.895 16.6682 502.304 16.6682H386.668C380.827 16.6788 375.151 18.6054 370.511 22.1524C365.871 25.6995 362.523 30.671 360.98 36.3042L284.656 22.2242C283.825 18.7443 281.84 15.6483 279.025 13.4408C276.21 11.2334 272.729 10.0446 269.152 10.0682H243.248C240.981 10.068 238.739 10.5478 236.671 11.4761C234.602 12.4043 232.754 13.76 231.247 15.4539C229.74 17.1478 228.609 19.1415 227.928 21.304C227.247 23.4664 227.032 25.7485 227.296 28.0002L231.552 64.1002C232.032 68.157 233.983 71.8969 237.036 74.6113C240.088 77.3257 244.031 78.8261 248.116 78.8282H264.28C268.365 78.8261 272.307 77.3257 275.36 74.6113C278.413 71.8969 280.364 68.157 280.844 64.1002L284.352 34.3562L360.508 48.4122C361.882 54.6031 365.347 60.1314 370.32 64.0658C375.294 68.0002 381.471 70.1002 387.812 70.0122H502.312C503.903 70.0122 505.429 69.3801 506.555 68.2549C507.68 67.1296 508.312 65.6035 508.312 64.0122C508.312 62.4209 507.68 60.8948 506.555 59.7696C505.429 58.6444 503.903 58.0122 502.312 58.0122V58.0002ZM268.924 62.7042C268.791 63.8423 268.244 64.8919 267.388 65.6536C266.532 66.4153 265.426 66.8362 264.28 66.8362H248.116C246.97 66.8353 245.865 66.4141 245.009 65.6526C244.153 64.8911 243.606 63.842 243.472 62.7042L239.2 26.6002C239.133 26.0308 239.188 25.4537 239.36 24.907C239.533 24.3602 239.819 23.8562 240.2 23.4281C240.582 22.9999 241.049 22.6574 241.572 22.423C242.096 22.1886 242.663 22.0677 243.236 22.0682H269.14C269.715 22.0643 270.285 22.1827 270.811 22.4156C271.337 22.6485 271.808 22.9905 272.191 23.4191C272.575 23.8476 272.864 24.3528 273.038 24.9012C273.211 25.4497 273.267 26.0288 273.2 26.6002L268.924 62.7042ZM415.22 149.168C388.7 103.672 326.82 99.0922 282.304 120.948C274.483 124.755 265.924 126.806 257.226 126.956C248.529 127.107 239.904 125.354 231.956 121.82C231.332 121.54 226.32 119.16 224.424 118.348C180.476 99.5482 122.588 105.576 97.1799 149.168C62.5999 208.492 95.9999 293.2 130.096 353.84C142.724 376.288 148.78 406.016 154.128 432.24C162.096 471.34 169.648 508.412 198.356 508.412C200.483 508.403 202.605 508.216 204.7 507.852C225.944 504.272 230.024 465.296 234.748 420.164C238.188 387.28 242.904 342.248 256.204 342.248C269.504 342.248 274.204 387.28 277.656 420.164C282.376 465.296 286.456 504.272 307.696 507.852C341.696 513.568 349.744 474.076 358.268 432.252C363.612 406.02 369.672 376.292 382.296 353.852C416.4 293.2 449.796 208.492 415.22 149.168ZM371.84 347.96C358.288 372.048 352.032 402.76 346.512 429.852C337.672 473.236 331.176 499.652 309.712 496.024C297.46 493.956 292.912 450.588 289.612 418.92C284.632 371.32 280.336 330.252 256.224 330.252C232.112 330.252 227.824 371.34 222.832 418.92C219.52 450.588 214.98 493.96 202.724 496.024C181.28 499.624 174.748 473.224 165.904 429.848C160.384 402.752 154.124 372.044 140.576 347.96C108 290.064 75.8279 209.628 107.544 155.2C121.6 131.076 148.4 120.532 176 120.532C192.505 120.546 208.806 124.187 223.748 131.2C224.1 131.372 228.168 133.42 229.1 133.96C234.598 137.227 239.577 141.298 243.872 146.036C249.944 152.236 255.68 158.092 267.98 159.296C268.773 159.391 269.577 159.326 270.344 159.106C271.112 158.886 271.828 158.515 272.45 158.015C273.072 157.514 273.588 156.895 273.968 156.193C274.348 155.49 274.584 154.719 274.662 153.925C274.74 153.13 274.659 152.328 274.423 151.565C274.186 150.802 273.801 150.094 273.287 149.482C272.774 148.871 272.144 148.367 271.434 148.002C270.724 147.637 269.948 147.418 269.152 147.356C266.115 147.059 263.17 146.148 260.497 144.677C257.823 143.206 255.477 141.206 253.6 138.8C265.345 139.275 277.024 136.839 287.6 131.708C326.316 112.692 382.164 116.268 404.856 155.2C436.572 209.628 404.4 290.064 371.84 347.96Z" fill="black"/>
</svg>
