<svg width="512" height="512" viewBox="0 0 512 512" fill="none" xmlns="http://www.w3.org/2000/svg">
<path d="M124.216 147.104C104.017 158.242 87.7969 175.405 77.816 196.2C77.3186 197.143 77.0146 198.175 76.9219 199.237C76.8291 200.299 76.9494 201.368 77.2756 202.383C77.6019 203.397 78.1276 204.336 78.8219 205.145C79.5162 205.954 80.365 206.615 81.3186 207.091C82.2721 207.567 83.3112 207.848 84.3747 207.917C85.4382 207.986 86.5047 207.841 87.5117 207.492C88.5187 207.143 89.4457 206.596 90.2385 205.884C91.0312 205.172 91.6736 204.308 92.128 203.344C100.714 185.565 114.558 170.855 131.784 161.208C132.724 160.72 133.559 160.051 134.238 159.238C134.918 158.425 135.429 157.486 135.743 156.474C136.056 155.462 136.166 154.397 136.064 153.343C135.963 152.288 135.654 151.264 135.154 150.33C134.653 149.396 133.973 148.571 133.151 147.902C132.329 147.233 131.383 146.734 130.367 146.434C129.351 146.134 128.286 146.039 127.232 146.154C126.179 146.269 125.159 146.592 124.232 147.104H124.216Z" fill="black"/>
<path d="M488 16H408V32H480V48H427.144C417.799 48.0376 408.849 51.7773 402.256 58.4C398.665 61.9783 393.805 63.9913 388.736 64H240V32H392.392V16H240C235.757 16 231.687 17.6857 228.686 20.6863C225.686 23.6869 224 27.7565 224 32V64C224 68.2435 225.686 72.3131 228.686 75.3137C231.687 78.3143 235.757 80 240 80V120C240.011 121.775 240.221 123.543 240.624 125.272C237.396 127.166 234.277 129.239 231.28 131.48C226.891 134.83 221.522 136.645 216 136.645C210.478 136.645 205.109 134.83 200.72 131.48C200.432 131.256 200.128 131.072 199.832 130.864C202.408 126.345 204.062 121.361 204.7 116.199C205.338 111.037 204.947 105.8 203.55 100.79C202.152 95.78 199.775 91.0967 196.557 87.0107C193.339 82.9246 189.343 79.5167 184.8 76.984C178.18 73.3047 170.588 71.7543 163.056 72.544C160.475 68.3795 156.862 64.9516 152.568 62.592C149.366 60.8004 145.832 59.6824 142.182 59.3068C138.532 58.9313 134.844 59.306 131.344 60.408C130.529 60.6585 129.728 60.9522 128.944 61.288C124.925 53.5558 118.314 47.4844 110.268 44.1375C102.222 40.7905 93.2555 40.3815 84.9385 42.9821C76.6214 45.5827 69.4848 51.0271 64.7789 58.3613C60.073 65.6955 58.098 74.4518 59.2 83.096C58.365 83.2677 57.5398 83.4841 56.728 83.744C53.2218 84.8252 49.9738 86.6122 47.1838 88.995C44.3937 91.3778 42.1205 94.3062 40.504 97.6C38.3078 101.984 37.2878 106.863 37.544 111.76C29.8568 116.103 23.9061 122.969 20.699 131.196C17.4918 139.422 17.2251 148.504 19.944 156.904C21.9946 163.497 25.7642 169.426 30.8652 174.08C35.9662 178.734 42.2146 181.945 48.968 183.384C43.0097 198.899 39.9694 215.381 40 232C39.563 265.928 52.5884 298.647 76.224 322.992C79.9183 326.52 82.8647 330.756 84.8878 335.447C86.9109 340.138 87.9693 345.188 88 350.296V352C88 402.256 107.2 496 144 496C156.256 496 168.736 482.872 189.808 418.824L174.608 413.824C154.92 473.656 145.352 479.488 144 480C127.48 480 104 413.808 104 352V350.48C103.998 343.228 102.535 336.05 99.6984 329.375C96.8614 322.701 92.7087 316.666 87.488 311.632C66.8764 290.295 55.5548 261.663 56 232C56 174.656 95.48 128 144 128C161.048 128.112 177.588 133.817 191.08 144.24C198.234 149.715 206.991 152.682 216 152.682C225.009 152.682 233.766 149.715 240.92 144.24C243.582 142.259 246.358 140.434 249.232 138.776C253.423 142.137 258.628 143.978 264 144H334.656C347.83 154.519 358.411 167.925 365.579 183.184C372.748 198.442 376.313 215.144 376 232C376.443 261.664 365.118 290.296 344.504 311.632C339.28 316.673 335.126 322.716 332.29 329.399C329.455 336.082 327.996 343.268 328 350.528V352C328 413.808 304.52 480 288.368 480.04C278.848 476.936 262.264 434.216 239.064 353.064C237.624 348.059 234.595 343.659 230.434 340.527C226.274 337.395 221.208 335.701 216 335.701C210.792 335.701 205.726 337.395 201.566 340.527C197.405 343.659 194.376 348.059 192.936 353.064C188.708 367.987 184.313 382.863 179.752 397.688L195.032 402.44C199.832 386.976 204.344 371.392 208.328 357.456C208.817 355.801 209.829 354.348 211.211 353.315C212.594 352.282 214.274 351.723 216 351.723C217.726 351.723 219.406 352.282 220.789 353.315C222.171 354.348 223.183 355.801 223.672 357.456C253.656 462.336 269.288 496 288 496C324.8 496 344 402.256 344 352V350.352C344.024 347.239 344.457 344.144 345.288 341.144C350.997 344.146 357.35 345.716 363.8 345.72C371.277 345.768 378.602 343.614 384.862 339.525C391.122 335.436 396.04 329.594 399 322.728C405.139 322.446 411.01 320.135 415.695 316.158C420.379 312.182 423.613 306.763 424.888 300.752C425.057 299.916 425.182 299.073 425.264 298.224C432.649 298.239 439.884 296.138 446.112 292.168C450.315 289.531 453.936 286.064 456.755 281.981C459.573 277.897 461.529 273.281 462.504 268.416C464.103 259.87 462.699 251.034 458.531 243.403C454.363 235.773 447.687 229.817 439.632 226.544C439.881 225.728 440.09 224.901 440.256 224.064C440.98 220.467 440.962 216.76 440.204 213.17C439.447 209.579 437.964 206.182 435.848 203.184C433.052 199.162 429.262 195.931 424.848 193.808C424.725 184.973 421.551 176.452 415.865 169.689C410.179 162.925 402.33 158.335 393.648 156.696C385.878 155.159 377.825 155.996 370.536 159.096C366.952 153.734 362.922 148.684 358.488 144H360C366.365 144 372.47 141.471 376.971 136.971C381.471 132.47 384 126.365 384 120V80H388.736C398.073 79.9578 407.013 76.2183 413.6 69.6C417.197 66.0159 422.066 64.0023 427.144 64H488C490.122 64 492.157 63.1571 493.657 61.6569C495.157 60.1566 496 58.1217 496 56V24C496 21.8783 495.157 19.8434 493.657 18.3431C492.157 16.8429 490.122 16 488 16ZM56.08 168.192C51.3681 168.041 46.8222 166.416 43.0823 163.545C39.3424 160.675 36.5968 156.704 35.232 152.192C33.3578 146.683 33.7404 140.657 36.2963 135.43C38.8522 130.202 43.3735 126.2 48.872 124.296C50.8954 123.663 52.5848 122.252 53.5688 120.374C54.5528 118.496 54.7511 116.304 54.12 114.28C53.1181 111.148 53.3705 107.75 54.824 104.8C55.4804 103.437 56.4098 102.222 57.5548 101.233C58.6997 100.243 60.0358 99.4998 61.48 99.048C63.4493 98.4524 65.548 98.4329 67.528 98.992C68.9751 99.3758 70.5009 99.3458 71.9318 98.9055C73.3627 98.4652 74.6414 97.6322 75.6223 96.5012C76.6033 95.3702 77.2472 93.9866 77.4809 92.5078C77.7145 91.029 77.5285 89.5143 76.944 88.136L76.424 86.984C76.2783 86.7015 76.15 86.4102 76.04 86.112C74.1535 80.5984 74.5298 74.5617 77.0867 69.3251C79.6435 64.0885 84.1721 60.0792 89.68 58.176C95.2866 56.594 101.292 57.302 106.377 60.1445C111.462 62.987 115.211 67.7315 116.8 73.336C116.88 73.6414 116.941 73.9513 116.984 74.264L117.208 75.52C117.511 76.9865 118.219 78.3386 119.252 79.4225C120.285 80.5064 121.602 81.2785 123.052 81.6511C124.503 82.0237 126.028 81.9817 127.456 81.53C128.884 81.0783 130.156 80.235 131.128 79.096C132.444 77.4979 134.19 76.3098 136.16 75.672C137.604 75.2362 139.12 75.0952 140.62 75.2573C142.119 75.4195 143.571 75.8816 144.888 76.616C147.769 78.2147 149.915 80.8714 150.872 84.024C151.185 85.0278 151.694 85.9599 152.368 86.767C153.042 87.5742 153.868 88.2406 154.8 88.728C155.728 89.2215 156.746 89.5239 157.793 89.6174C158.84 89.7108 159.895 89.5934 160.896 89.272C163.576 88.4457 166.396 88.1727 169.185 88.4698C171.974 88.7668 174.674 89.6277 177.12 91C182.44 94.006 186.373 98.973 188.08 104.84C189.788 110.707 189.133 117.009 186.256 122.4C173.208 115.597 158.715 112.03 144 112C106.984 112 74.512 134.496 56.08 168.192ZM390.592 172.384C396.326 173.381 401.43 176.61 404.787 181.363C408.145 186.117 409.481 192.007 408.504 197.744C408.087 199.824 408.514 201.985 409.69 203.751C410.866 205.517 412.696 206.743 414.776 207.16C418.011 207.782 420.879 209.634 422.776 212.328C423.65 213.56 424.265 214.957 424.583 216.434C424.9 217.911 424.914 219.437 424.624 220.92C424.197 222.935 423.204 224.787 421.76 226.256C420.726 227.34 420.018 228.693 419.715 230.16C419.413 231.627 419.528 233.149 420.048 234.554C420.569 235.959 421.473 237.189 422.658 238.105C423.843 239.022 425.262 239.586 426.752 239.736L428.008 239.832C428.33 239.838 428.651 239.868 428.968 239.92C434.698 240.919 439.8 244.147 443.155 248.899C446.511 253.65 447.847 259.538 446.872 265.272C446.319 268.019 445.211 270.623 443.617 272.927C442.022 275.231 439.975 277.186 437.6 278.672C432.559 281.872 426.468 282.977 420.624 281.752C420.298 281.674 419.977 281.575 419.664 281.456L418.464 281.064C417.032 280.631 415.507 280.609 414.062 281C412.618 281.39 411.312 282.178 410.293 283.274C409.274 284.37 408.582 285.729 408.297 287.198C408.012 288.667 408.145 290.187 408.68 291.584C409.45 293.494 409.653 295.586 409.264 297.608C408.527 300.693 406.598 303.36 403.9 305.027C401.201 306.694 397.953 307.225 394.864 306.504C392.784 306.087 390.623 306.514 388.857 307.69C387.091 308.866 385.865 310.696 385.448 312.776C384.129 318.44 380.623 323.352 375.694 326.438C370.765 329.524 364.815 330.535 359.144 329.248C356.839 328.783 354.616 327.974 352.552 326.848C353.559 325.491 354.646 324.195 355.808 322.968C379.426 298.624 392.439 265.915 392 232C392.099 211.639 387.578 191.521 378.776 173.16C382.582 171.89 386.652 171.622 390.592 172.384ZM320 128V80H336V128H320ZM304 128H288V80H304V128ZM256 120V80H272V128H264C261.878 128 259.843 127.157 258.343 125.657C256.843 124.157 256 122.122 256 120ZM368 120C368 122.122 367.157 124.157 365.657 125.657C364.157 127.157 362.122 128 360 128H352V80H368V120Z" fill="black"/>
<path d="M448 88C443.253 88 438.613 89.4076 434.666 92.0447C430.72 94.6819 427.643 98.4302 425.827 102.816C424.01 107.201 423.535 112.027 424.461 116.682C425.387 121.338 427.673 125.614 431.029 128.971C434.386 132.327 438.662 134.613 443.318 135.539C447.973 136.465 452.799 135.99 457.184 134.173C461.57 132.357 465.318 129.28 467.955 125.334C470.592 121.387 472 116.747 472 112C472 105.635 469.471 99.5303 464.971 95.0294C460.47 90.5286 454.365 88 448 88ZM448 120C446.418 120 444.871 119.531 443.555 118.652C442.24 117.773 441.214 116.523 440.609 115.061C440.003 113.6 439.845 111.991 440.154 110.439C440.462 108.887 441.224 107.462 442.343 106.343C443.462 105.224 444.887 104.462 446.439 104.154C447.991 103.845 449.6 104.003 451.061 104.609C452.523 105.214 453.773 106.24 454.652 107.555C455.531 108.871 456 110.418 456 112C456 114.122 455.157 116.157 453.657 117.657C452.157 119.157 450.122 120 448 120ZM184 64C188.747 64 193.387 62.5924 197.334 59.9553C201.28 57.3181 204.357 53.5698 206.173 49.1844C207.99 44.799 208.465 39.9734 207.539 35.3178C206.613 30.6623 204.327 26.3859 200.971 23.0294C197.614 19.673 193.338 17.3872 188.682 16.4612C184.027 15.5351 179.201 16.0104 174.816 17.8269C170.43 19.6434 166.682 22.7195 164.045 26.6663C161.408 30.6131 160 35.2533 160 40C160 46.3652 162.529 52.4697 167.029 56.9706C171.53 61.4714 177.635 64 184 64ZM184 32C185.582 32 187.129 32.4692 188.445 33.3483C189.76 34.2273 190.786 35.4767 191.391 36.9385C191.997 38.4004 192.155 40.0089 191.846 41.5607C191.538 43.1126 190.776 44.538 189.657 45.6569C188.538 46.7757 187.113 47.5376 185.561 47.8463C184.009 48.155 182.4 47.9965 180.939 47.391C179.477 46.7855 178.227 45.7602 177.348 44.4446C176.469 43.129 176 41.5823 176 40C176 37.8783 176.843 35.8434 178.343 34.3432C179.843 32.8429 181.878 32 184 32ZM24 24H40V40H24V24ZM400 128H416V144H400V128ZM472 176H488V192H472V176Z" fill="black"/>
</svg>
