<svg width="2454" height="1358" viewBox="0 0 2454 1358" fill="none" xmlns="http://www.w3.org/2000/svg">
<g clip-path="url(#clip0_4042_3295)">
<mask id="mask0_4042_3295" style="mask-type:luminance" maskUnits="userSpaceOnUse" x="0" y="0" width="2454" height="1358">
<path d="M2453.04 0H0V1358H2453.04V0Z" fill="white"/>
</mask>
<g mask="url(#mask0_4042_3295)">
<path d="M2581.34 157.818C2570.52 157.43 2542.83 179.941 2532.87 178.778C2522.92 177.614 2488.73 166.745 2476.08 171.985C2463.42 177.224 2349.5 209.828 2345.61 207.79C2341.71 205.752 2336.19 201.676 2327.11 203.714C2318.02 205.752 2271.07 196.63 2265.44 196.63C2259.81 196.63 2248.56 208.079 2244.02 208.079C2239.47 208.079 2221.95 199.347 2215.46 195.271C2208.97 191.195 2051.23 223.799 2044.74 223.216C2038.25 222.633 2020.72 208.079 2011.64 210.408C2002.55 212.738 1961.65 268.048 1945.21 260.284C1928.77 252.52 1729.27 123.077 1722.78 120.164C1716.29 117.254 1669.12 120.164 1660.9 119.389C1652.68 118.613 1576.95 9.93382 1571.32 9.54603C1565.69 9.15824 1563.96 25.0712 1558.77 28.9518C1553.58 32.8324 1518.16 45.8329 1512.22 52.659C1506.84 58.8388 1465.3 180.326 1463.57 184.985C1461.83 189.641 1430.25 194.688 1424.62 200.898C1418.99 207.108 1389.57 266.494 1387.4 275.422C1385.24 284.349 1370.53 284.737 1363.6 289.396C1356.68 294.055 1343.7 331.315 1331.58 325.881C1319.46 320.446 1277.92 252.133 1274.89 251.745C1271.86 251.357 1263.64 256.401 1256.71 256.791C1249.79 257.179 1222.96 192.361 1206.03 192.361C1189.11 192.361 1104.82 333.257 1101.79 333.257C1098.76 333.257 1092.7 325.493 1086.65 325.883C1080.59 326.271 1058.95 353.053 1055.92 351.89C1052.89 350.727 1048.57 342.575 1042.51 339.082C1036.45 335.589 987.98 328.991 981.489 327.825C974.998 326.662 965.909 335.006 959.418 333.843C952.927 332.679 936.7 312.883 925.664 313.466C914.629 314.049 862.701 353.639 859.454 348.98C856.206 344.324 778.963 258.156 773.122 258.156C767.281 258.156 749.104 275.039 742.612 272.13C736.121 269.22 642.648 166.751 630.965 165.585C619.283 164.419 563.458 230.793 551.772 234.866C540.087 238.942 531.001 227.881 503.739 210.997C476.476 194.113 460.246 209.834 433.634 195.86C407.019 181.885 333.67 129.488 323.284 128.905C312.899 128.321 298.619 167.914 284.336 158.596C270.056 149.281 264.43 144.622 264.43 144.622C246.256 145.398 130.279 256.406 127.682 256.406C125.085 256.406 103.449 223.802 93.9281 226.132C84.4073 228.461 26.7824 305.171 14.6889 307.943C-6.68627 312.842 -80.8508 426.031 -144.121 528.371V1383.23H2621.68V164.74C2605.15 161.514 2587.09 158.024 2581.34 157.818Z" fill="#DCF5F9"/>
<path d="M2404.68 393.198C2391.03 399.015 2355.19 483.946 2334.7 482.784C2314.22 481.621 2225.47 426.937 2213.52 419.957C2201.57 412.977 2054.79 412.977 2025.78 403.67C1996.76 394.363 1849.98 314.084 1841.45 309.432C1832.91 304.777 1791.95 310.594 1766.35 305.942C1740.75 301.287 1532.53 223.336 1512.04 239.625C1491.56 255.913 1351.61 474.641 1343.08 474.641C1334.54 474.641 1249.21 401.345 1230.43 402.508C1211.66 403.67 1087.06 540.958 1073.41 538.63C1059.75 536.303 1040.98 526.995 1025.62 531.65C1010.25 536.306 940.281 628.216 918.093 631.706C895.905 635.196 800.326 547.938 755.95 539.793C711.575 531.648 517.006 515.361 493.109 510.598C469.216 505.836 447.028 521.178 447.028 521.178C419.721 522.34 380.465 495.581 332.676 506.053C284.886 516.526 196.136 642.176 180.777 646.831C165.418 651.483 56.1852 604.947 23.7543 600.124C-8.6726 595.301 -298.822 675.915 -298.822 675.915C-326.758 683.582 -397.243 661.566 -413.174 660.016C-429.106 658.463 -547.437 695.695 -583.851 701.9C-620.26 708.105 -759.078 650.708 -825.073 636.746C-859.648 629.431 -943.332 632.55 -1015.18 637.175V1484.17H2620.95V319.943C2545.47 343.495 2414.75 388.908 2404.68 393.198Z" fill="#C9ECF4"/>
</g>
</g>
<defs>
<clipPath id="clip0_4042_3295">
<rect width="2454" height="1358" fill="white"/>
</clipPath>
</defs>
</svg>
