<svg width="67" height="53" viewBox="0 0 67 53" fill="none" xmlns="http://www.w3.org/2000/svg">
    <g clip-path="url(#clip0_2473_26076)">
        <path fill-rule="evenodd" clip-rule="evenodd" d="M13.9161 0.00683594C10.0932 0.00683594 7.2644 3.32874 7.39107 6.93126C7.51264 10.3923 7.35469 14.8749 6.21804 18.5304C5.07734 22.1962 3.14952 24.5192 0 24.8173V28.1837C3.14952 28.4825 5.07734 30.8043 6.21791 34.4706C7.35469 38.1261 7.51251 42.6087 7.39094 46.0697C7.26427 49.6717 10.0931 52.9942 13.9166 52.9942H53.089C56.9119 52.9942 59.7402 49.6723 59.6135 46.0697C59.4919 42.6087 59.6499 38.1261 60.7865 34.4706C61.9272 30.8043 63.8503 28.4816 67 28.1837V24.8173C63.8505 24.5185 61.9274 22.1967 60.7865 18.5304C59.6498 14.8754 59.4919 10.3923 59.6135 6.93126C59.7402 3.32926 56.9119 0.00683594 53.089 0.00683594H13.9156H13.9161ZM45.4238 32.624C45.4238 37.5845 41.6968 40.5929 35.5117 40.5929H24.983C24.6818 40.5929 24.393 40.4742 24.18 40.2627C23.9671 40.0513 23.8474 39.7645 23.8474 39.4655V13.5356C23.8474 13.2366 23.9671 12.9498 24.18 12.7384C24.393 12.527 24.6818 12.4082 24.983 12.4082H35.4518C40.6091 12.4082 43.9937 15.1816 43.9937 19.4397C43.9937 22.4283 41.7168 25.1039 38.816 25.5726V25.7285C42.7648 26.1586 45.4238 28.8738 45.4238 32.624ZM34.3637 15.982H28.3604V24.4004H33.4166C37.3254 24.4004 39.4807 22.8378 39.4807 20.0448C39.4803 17.4273 37.6273 15.982 34.3637 15.982ZM28.3604 27.7407V37.018H34.5846C38.6543 37.018 40.8099 35.3968 40.8099 32.35C40.8099 29.3033 38.5938 27.7401 34.3228 27.7401H28.3604V27.7407Z" fill="url(#paint0_linear_2473_26076)"/>
    </g>
    <defs>
        <linearGradient id="paint0_linear_2473_26076" x1="33.5" y1="0.00683594" x2="33.5" y2="52.9942" gradientUnits="userSpaceOnUse">
            <stop stop-color="#8612FB"/>
            <stop offset="1" stop-color="#8912FC"/>
        </linearGradient>
        <clipPath id="clip0_2473_26076">
            <rect width="67" height="53" fill="white"/>
        </clipPath>
    </defs>
</svg>