<svg width="71" height="54" viewBox="0 0 71 54" fill="none" xmlns="http://www.w3.org/2000/svg">
    <path d="M0.32959 54.0001L34.6288 0.280273L53.0134 11.9668L26.1756 54.0001H0.32959Z" fill="#FBBC04"/>
    <path d="M33.9038 0H55.0167V54H33.9038V0Z" fill="#1A73E8"/>
    <path d="M12.025 21.782C17.8046 21.782 22.49 17.107 22.49 11.3402C22.49 5.57337 17.8046 0.898438 12.025 0.898438C6.24538 0.898438 1.56006 5.57337 1.56006 11.3402C1.56006 17.107 6.24538 21.782 12.025 21.782Z" fill="#EA4335"/>
    <path d="M70.0544 38.9958C70.0544 42.9751 68.4701 46.7914 65.6501 49.6052C62.83 52.419 59.0052 53.9998 55.0171 53.9998V23.9932C59.005 23.9932 62.8296 25.5737 65.6496 28.3872C68.4696 31.2007 70.0541 35.0167 70.0544 38.9958Z" fill="#34A853"/>
    <path d="M55.0159 23.9932V53.9998C51.0531 53.9617 47.2655 52.3642 44.4768 49.5547C41.688 46.7452 40.1235 42.9508 40.1235 38.9965C40.1235 35.0422 41.688 31.2478 44.4768 28.4383C47.2655 25.6288 51.0531 24.0313 55.0159 23.9932Z" fill="#0D652D"/>
    <path d="M66.5899 12.447C66.5895 15.5093 65.3701 18.4462 63.1999 20.6116C61.0296 22.777 58.0863 23.9937 55.0171 23.9941V0.898438C58.0865 0.898807 61.0301 2.11569 63.2004 4.28142C65.3706 6.44714 66.5899 9.38435 66.5899 12.447Z" fill="#1A73E8"/>
    <path d="M55.0173 0.898438V23.9941C51.9699 23.9607 49.0586 22.7293 46.9155 20.5673C44.7723 18.4053 43.5703 15.4872 43.5703 12.4463C43.5703 9.40539 44.7723 6.48722 46.9155 4.32521C49.0586 2.1632 51.9699 0.931845 55.0173 0.898438Z" fill="#174EA6"/>
</svg>