<svg width="49" height="55" viewBox="0 0 49 55" fill="none" xmlns="http://www.w3.org/2000/svg">
    <path d="M4.41177 49.5187L0 0H48.5027L44.0909 49.492L24.2112 55" fill="#FF4C1E"/>
    <path d="M24.252 50.789V4.06445H44.0782L40.2947 46.3104L24.252 50.789Z" fill="#FF651E"/>
    <path d="M9.00977 10.1191H24.2504L26.5166 13.1539L24.2504 16.1887H15.6675L16.229 22.4052H24.2504L26.5166 25.5535L24.2504 28.4614H10.6675L9.00977 10.1191ZM10.9349 31.5095H17.0312L17.459 36.3625L24.2504 38.1806L26.8075 41.21L24.2504 44.5175L11.7905 41.0416L10.9349 31.5095Z" fill="#EBEBEB"/>
    <path d="M39.4366 10.1191H24.2227V16.1887H38.8751L39.4366 10.1191ZM38.3269 22.4052H24.2227V28.4748H31.7093L31.0007 36.3625L24.2227 38.1806V44.4908L36.6558 41.0416L38.3269 22.4052Z" fill="white"/>
</svg>