<svg width="54" height="54" viewBox="0 0 54 54" fill="none" xmlns="http://www.w3.org/2000/svg">
    <path d="M0 48.2143C0 51.4041 2.59586 54 5.78571 54H48.2143C51.4041 54 54 51.4041 54 48.2143V15.4286H0V48.2143ZM35.2794 30.2921C34.5253 29.538 34.5253 28.3191 35.2794 27.5651C36.0334 26.811 37.2523 26.811 38.0064 27.5651L45.7206 35.2794C46.4747 36.0334 46.4747 37.2523 45.7206 38.0064L38.0064 45.7206C37.6303 46.0967 37.1366 46.2857 36.6429 46.2857C36.1491 46.2857 35.6554 46.0967 35.2794 45.7206C34.5253 44.9666 34.5253 43.7477 35.2794 42.9936L41.6301 36.6429L35.2794 30.2921ZM22.2808 27.2025C23.2354 26.7261 24.3906 27.1119 24.8689 28.0646L32.5832 43.4931C33.0596 44.4459 32.6739 45.6049 31.7211 46.0813C31.4434 46.2201 31.1503 46.2838 30.861 46.2838C30.1532 46.2838 29.4724 45.8942 29.133 45.2173L21.4187 29.7887C20.9424 28.836 21.3281 27.6789 22.2808 27.2025ZM8.27936 35.2794L15.9936 27.5651C16.7477 26.811 17.9666 26.811 18.7206 27.5651C19.4747 28.3191 19.4747 29.538 18.7206 30.2921L12.3699 36.6429L18.7206 42.9936C19.4747 43.7477 19.4747 44.9666 18.7206 45.7206C18.3446 46.0967 17.8509 46.2857 17.3571 46.2857C16.8634 46.2857 16.3697 46.0967 15.9936 45.7206L8.27936 38.0064C7.52529 37.2523 7.52529 36.0334 8.27936 35.2794ZM48.2143 0H5.78571C2.59586 0 0 2.59586 0 5.78571V11.5714H54V5.78571C54 2.59586 51.4041 0 48.2143 0ZM36.6429 7.71429C35.5783 7.71429 34.7143 6.85029 34.7143 5.78571C34.7143 4.72114 35.5783 3.85714 36.6429 3.85714C37.7074 3.85714 38.5714 4.72114 38.5714 5.78571C38.5714 6.85029 37.7074 7.71429 36.6429 7.71429ZM44.3571 7.71429C43.2926 7.71429 42.4286 6.85029 42.4286 5.78571C42.4286 4.72114 43.2926 3.85714 44.3571 3.85714C45.4217 3.85714 46.2857 4.72114 46.2857 5.78571C46.2857 6.85029 45.4217 7.71429 44.3571 7.71429Z" fill="#3657e1"/>
</svg>