<svg width="55" height="55" viewBox="0 0 55 55" fill="none" xmlns="http://www.w3.org/2000/svg">
<path d="M16.8081 52.8202C17.5507 53.1339 18.3033 53.4252 19.0708 53.6727C18.6833 52.4876 18.6095 52.3589 17.8145 49.9648L16.8081 52.8202Z" fill="#56b883"/>
<path d="M33.8162 52.1025C35.7164 47.3395 37.0416 42.4515 37.8041 37.501H22.215L19.2021 46.0519C20.8048 51.1774 20.9948 51.4737 21.9562 54.4253C25.5553 55.1879 29.4582 55.1891 33.0361 54.4428C33.0361 54.444 33.8162 52.1025 33.8162 52.1025Z" fill="#56b883"/>
<path d="M0 27.4998C0 30.0489 0.368789 32.5716 1.05886 35.0006H7.33829L14.0515 31.4252C13.8365 27.6123 13.9452 23.7882 14.3628 19.999H1.04886C0.37004 22.3855 0 24.8995 0 27.4998Z" fill="#56b883"/>
<path d="M0.0125595 42.6387C0.0625649 43.1388 0.412602 43.5638 0.912656 43.7013C2.57784 44.1789 7.4071 45.5615 8.98977 46.0128C9.43857 47.5917 10.83 52.4435 11.3013 54.0899C11.5926 55.2326 13.3165 55.3051 13.6765 54.1649C15.9968 47.558 18.8596 39.4696 21.1773 32.9127C21.4811 32.1338 20.831 31.2212 20.0022 31.25C19.6209 31.1437 3.50918 39.8909 0.662629 41.4011C0.212581 41.6386 -0.0499472 42.1262 0.0125595 42.6387Z" fill="#56b883"/>
<path d="M23.1023 35.0006H38.1414C38.7202 30.0088 38.6965 24.9821 38.1251 19.999H16.8804C16.4966 23.3544 16.3641 26.736 16.5016 30.1126C17.4917 29.6226 18.8493 28.67 20.0019 28.75C22.511 28.6937 24.4412 31.3865 23.5398 33.7505L23.1023 35.0006Z" fill="#56b883"/>
<path d="M32.9892 0.54834C29.4614 -0.182988 25.5372 -0.182988 22.0093 0.54959L21.1755 2.90984C19.2978 7.6166 17.9889 12.5196 17.2275 17.4989H37.7872C36.9922 11.7295 35.0707 6.05893 32.9892 0.54834Z" fill="#56b883"/>
<path d="M53.1156 37.501H40.3542C39.7254 42.9016 37.8039 48.7797 35.9287 53.6777C43.8321 51.1424 50.1177 45.1505 53.1156 37.501Z" fill="#56b883"/>
<path d="M1.89014 17.499H14.6515C15.2803 12.0984 17.2018 6.21904 19.077 1.32227C11.1736 3.85754 4.88796 9.84943 1.89014 17.499Z" fill="#56b883"/>
<path d="M35.9077 1.31445C37.9754 6.57502 39.5456 11.9931 40.3307 17.4987H53.1158C50.1155 9.84287 43.7823 3.84847 35.9077 1.31445Z" fill="#56b883"/>
<path d="M40.6455 19.999C41.1993 24.9858 41.2306 30.0126 40.6793 35.0006H53.9582C55.3458 30.2689 55.3458 24.7308 53.9582 19.999H40.6455Z" fill="#56b883"/>
</svg>
