<svg width="46" height="55" viewBox="0 0 46 55" fill="none" xmlns="http://www.w3.org/2000/svg">
    <path d="M33.6617 8.87109H2.07911C0.932552 8.87109 0 9.80365 0 10.9502V52.9206C0 54.0672 0.932552 54.9997 2.07911 54.9997H33.6617C34.8072 54.9997 35.7397 54.0672 35.7397 52.9206V10.9502C35.7397 9.80365 34.8072 8.87109 33.6617 8.87109ZM26.6127 38.145H9.75798C8.77775 38.145 7.9838 37.3511 7.9838 36.3708C7.9838 35.3906 8.77775 34.5967 9.75798 34.5967H26.6127C27.5929 34.5967 28.3868 35.3906 28.3868 36.3708C28.3868 37.3511 27.5929 38.145 26.6127 38.145ZM26.6127 31.0483H9.75798C8.77775 31.0483 7.9838 30.2544 7.9838 29.2741C7.9838 28.2939 8.77775 27.5 9.75798 27.5H26.6127C27.5929 27.5 28.3868 28.2939 28.3868 29.2741C28.3868 30.2544 27.5929 31.0483 26.6127 31.0483ZM26.6127 23.9516H9.75798C8.77775 23.9516 7.9838 23.1577 7.9838 22.1774C7.9838 21.1972 8.77775 20.4032 9.75798 20.4032H26.6127C27.5929 20.4032 28.3868 21.1972 28.3868 22.1774C28.3868 23.1577 27.5929 23.9516 26.6127 23.9516Z" fill="#553CDF"/>
    <path d="M45.2412 5.32253V44.3544C45.2412 47.0335 43.0855 49.677 39.2877 49.677V10.95C39.2877 7.8463 36.7639 5.32253 33.6614 5.32253H5.95312C5.95312 2.38738 8.48244 0 11.5906 0H39.6037C42.7119 0 45.2412 2.38738 45.2412 5.32253Z" fill="#553CDF"/>
</svg>