<svg width="139" height="44" viewBox="0 0 139 44" fill="none" xmlns="http://www.w3.org/2000/svg">
<path d="M31.7948 7.50924C29.5069 4.88978 27.0916 2.38168 24.5567 0C23.5257 9.88635 18.6119 20.2868 12.0898 29.1341C20.0776 23.4186 26.8555 15.9954 31.7948 7.50924Z" fill="url(#paint0_linear_3886_444)"/>
<path d="M46.6755 29.5682C45.5345 27.3167 44.3136 25.1057 43.0163 22.9404C38.3994 27.4648 32.7771 31.019 26.8765 33.7254C18.3259 37.6471 9.13467 39.9344 0.00061524 42.1882C-0.0980116 42.2719 11.6857 43.4871 17.6945 43.374C23.5255 42.4951 29.2176 40.6888 34.4755 38.0183C38.8999 35.7711 43.0108 32.9139 46.6755 29.5682Z" fill="url(#paint1_linear_3886_444)"/>
<path d="M46.6783 29.5684C43.0136 32.9142 38.9028 35.7713 34.4784 38.0185C29.2204 40.6891 23.5284 42.4953 17.6973 43.3742C28.8391 43.1644 39.9542 41.4994 50.6606 38.4068C49.4694 35.4015 48.1394 32.4517 46.6783 29.5684Z" fill="url(#paint2_linear_3886_444)"/>
<path d="M31.7953 7.50977C26.8559 15.9959 20.078 23.4192 12.0903 29.1347C9.33837 32.8678 6.30012 36.3245 3.14648 39.3491C16.8777 35.2342 29.2674 26.6991 38.0221 15.3493C36.0702 12.6408 33.9914 10.0241 31.7953 7.50977Z" fill="url(#paint3_linear_3886_444)"/>
<path d="M135.479 38.3302C134.665 38.3302 133.983 38.2972 133.433 38.2312C132.883 38.1652 132.333 38.0332 131.783 37.8352C131.167 37.6372 130.661 37.3622 130.265 37.0102C129.891 36.6582 129.583 36.1742 129.341 35.5582C129.077 34.9202 128.945 34.1832 128.945 33.3472V24.9982H125.711V22.0282H128.945V17.4082H133.763V22.0282H138.152V24.9982H133.763V32.5222C133.763 33.2922 133.829 33.8752 133.961 34.2712C134.093 34.6452 134.346 34.9202 134.72 35.0962C135.094 35.2502 135.666 35.3272 136.436 35.3272C136.744 35.3272 137.316 35.2722 138.152 35.1622V38.1652C137.118 38.2752 136.227 38.3302 135.479 38.3302Z" fill="white"/>
<path d="M113.387 38.3302C111.891 38.3302 110.769 38.1982 110.021 37.9342C109.295 37.6482 108.778 37.1532 108.47 36.4492C108.184 35.7232 108.041 34.6452 108.041 33.2152C108.041 31.9392 108.195 30.9382 108.503 30.2122C108.833 29.4862 109.35 28.9692 110.054 28.6612C110.78 28.3312 111.77 28.1662 113.024 28.1662H118.436V27.0772C118.436 26.3952 118.337 25.8892 118.139 25.5592C117.963 25.2292 117.622 24.9982 117.116 24.8662C116.632 24.7342 115.895 24.6682 114.905 24.6682C113.541 24.6682 111.671 24.8002 109.295 25.0642V22.0282C111.033 21.8082 113.068 21.6982 115.4 21.6982C117.446 21.6982 119.019 21.8522 120.119 22.1602C121.241 22.4682 122.044 22.9962 122.528 23.7442C123.012 24.4922 123.254 25.5812 123.254 27.0112V38.0002H118.535V36.5482C118.161 37.1862 117.655 37.6372 117.017 37.9012C116.379 38.1872 115.169 38.3302 113.387 38.3302ZM115.268 35.3272C116.236 35.3272 116.929 35.2942 117.347 35.2282C117.655 35.1842 117.864 35.1182 117.974 35.0302C118.106 34.9422 118.216 34.7992 118.304 34.6012C118.392 34.4472 118.436 34.2162 118.436 33.9082V30.8062H115.136C114.388 30.8062 113.86 30.8612 113.552 30.9712C113.244 31.0592 113.035 31.2572 112.925 31.5652C112.815 31.8512 112.76 32.3682 112.76 33.1162C112.76 33.8422 112.815 34.3482 112.925 34.6342C113.035 34.9202 113.244 35.1072 113.552 35.1952C113.882 35.2832 114.454 35.3272 115.268 35.3272Z" fill="white"/>
<path d="M95.75 22.0282H100.337V24.8332C100.337 24.3272 100.546 23.8322 100.964 23.3482C101.382 22.8642 101.91 22.4682 102.548 22.1602C103.208 21.8522 103.857 21.6982 104.495 21.6982H106.211V25.6912H104.561C103.197 25.6912 102.185 25.9002 101.525 26.3182C100.887 26.7362 100.568 27.4292 100.568 28.3972V38.0002H95.75V22.0282Z" fill="white"/>
<path d="M81.669 38.3303C79.623 38.3303 78.182 37.9673 77.346 37.2413C76.532 36.4933 76.125 35.3273 76.125 33.7433V22.0283H80.943V33.0833C80.943 33.6993 80.998 34.1613 81.108 34.4693C81.24 34.7773 81.482 34.9973 81.834 35.1293C82.208 35.2613 82.769 35.3273 83.517 35.3273C84.463 35.3273 85.156 35.2723 85.596 35.1623C86.036 35.0303 86.333 34.8103 86.487 34.5023C86.641 34.1943 86.718 33.7213 86.718 33.0833V22.0283H91.536V38.0003H86.784V36.0533C86.432 37.5713 84.727 38.3303 81.669 38.3303Z" fill="white"/>
<path d="M63.2397 38.3299C61.1937 38.3299 58.6637 38.1319 55.6497 37.7359V33.8089C59.3897 34.3809 61.9417 34.6669 63.3057 34.6669C66.1657 34.6669 67.5957 33.9299 67.5957 32.4559V31.0699C67.5957 30.3659 67.3867 29.8269 66.9687 29.4529C66.5727 29.0789 65.8467 28.8919 64.7907 28.8919H62.2827C57.5747 28.8919 55.2207 27.0219 55.2207 23.2819V21.6979C55.2207 19.8279 56.0017 18.4529 57.5637 17.5729C59.1257 16.6929 61.6007 16.2529 64.9887 16.2529C66.7487 16.2529 68.9817 16.3959 71.6877 16.6819V20.5099C68.3657 20.1139 66.0777 19.9159 64.8237 19.9159C63.0857 19.9159 61.9197 20.0589 61.3257 20.3449C60.6877 20.6529 60.3687 21.1369 60.3687 21.7969V23.3149C60.3687 24.4369 61.3147 24.9979 63.2067 24.9979H65.7807C68.2227 24.9979 69.9937 25.4489 71.0937 26.3509C72.1937 27.2529 72.7437 28.6279 72.7437 30.4759V31.8949C72.7437 34.4469 71.8307 36.1739 70.0047 37.0759C69.1247 37.5379 68.1457 37.8569 67.0677 38.0329C66.0117 38.2309 64.7357 38.3299 63.2397 38.3299Z" fill="white"/>
<defs>
<linearGradient id="paint0_linear_3886_444" x1="12.0898" y1="14.5671" x2="31.7948" y2="14.5671" gradientUnits="userSpaceOnUse">
<stop stop-color="#F04E23"/>
<stop offset="1" stop-color="#FFD400"/>
</linearGradient>
<linearGradient id="paint1_linear_3886_444" x1="23.3378" y1="43.3815" x2="23.3378" y2="22.9404" gradientUnits="userSpaceOnUse">
<stop stop-color="#ED1C24"/>
<stop offset="1" stop-color="#F68B1F"/>
</linearGradient>
<linearGradient id="paint2_linear_3886_444" x1="17.6973" y1="36.4713" x2="50.6605" y2="36.4713" gradientUnits="userSpaceOnUse">
<stop stop-color="#9E0B0F"/>
<stop offset="1" stop-color="#F04E23"/>
</linearGradient>
<linearGradient id="paint3_linear_3886_444" x1="3.14647" y1="23.4295" x2="38.0222" y2="23.4295" gradientUnits="userSpaceOnUse">
<stop stop-color="#F04E23"/>
<stop offset="1" stop-color="#F68B1F"/>
</linearGradient>
</defs>
</svg>
